<svg width="58" height="61" viewBox="0 0 58 61" fill="none" xmlns="http://www.w3.org/2000/svg">
<path d="M51.9638 60.7098H5.77375C2.62443 60.7098 0 57.9828 0 54.7104V10.6695C0 7.39715 2.09955 4.67017 4.8552 4.67017H7.74208V8.62429H4.8552C4.46154 8.62429 3.93665 9.44239 3.93665 10.6695V54.7104C3.93665 55.8012 4.8552 56.7557 5.90498 56.7557H52.095C53.1448 56.7557 54.0633 55.8012 54.0633 54.7104V10.6695C54.0633 9.44239 53.4072 8.62429 53.1448 8.62429H50.2579V4.67017H53.1448C55.7692 4.67017 58 7.39715 58 10.6695V54.7104C57.7376 57.9828 55.1131 60.7098 51.9638 60.7098Z" fill="#008FD5"/>
<path d="M13.5158 12.7148C12.466 12.7148 11.5475 11.7604 11.5475 10.6696V2.62495C11.5475 1.53416 12.466 0.579712 13.5158 0.579712C14.5656 0.579712 15.4841 1.53416 15.4841 2.62495V10.6696C15.3529 11.7604 14.5656 12.7148 13.5158 12.7148Z" fill="#008FD5"/>
<path d="M44.2217 12.7148C43.172 12.7148 42.2534 11.7604 42.2534 10.6696V2.62495C42.2534 1.53416 43.172 0.579712 44.2217 0.579712C45.2715 0.579712 46.1901 1.53416 46.1901 2.62495V10.6696C46.1901 11.7604 45.2715 12.7148 44.2217 12.7148Z" fill="#008FD5"/>
<path d="M19.2896 4.67017H38.448V8.76141H19.2896V4.67017Z" fill="#008FD5"/>
<path d="M3.80548 16.669H53.9322V20.7603H3.80548V16.669Z" fill="#008FD5"/>
<path d="M46.1901 24.7136H49.9955V28.6684H46.1901V24.7136Z" fill="#008FD5"/>
<path d="M38.4479 24.7136H42.3846V28.6684H38.4479V24.7136Z" fill="#008FD5"/>
<path d="M30.8371 24.7136H34.6425V28.6684H30.8371V24.7136Z" fill="#008FD5"/>
<path d="M23.095 24.7136H26.9004V28.6684H23.095V24.7136Z" fill="#008FD5"/>
<path d="M15.353 24.7136H19.2896V28.6684H15.353V24.7136Z" fill="#008FD5"/>
<path d="M46.1901 32.7582H49.9955V36.713H46.1901V32.7582Z" fill="#008FD5"/>
<path d="M38.4479 32.7582H42.3846V36.713H38.4479V32.7582Z" fill="#008FD5"/>
<path d="M30.8371 32.7582H34.6425V36.713H30.8371V32.7582Z" fill="#008FD5"/>
<path d="M23.095 32.7582H26.9004V36.713H23.095V32.7582Z" fill="#008FD5"/>
<path d="M15.353 32.7582H19.2896V36.713H15.353V32.7582Z" fill="#008FD5"/>
<path d="M7.74213 32.7582H11.5476V36.713H7.74213V32.7582Z" fill="#008FD5"/>
<path d="M46.1901 40.6665H49.9955V44.7578H46.1901V40.6665Z" fill="#008FD5"/>
<path d="M38.4479 40.6665H42.3846V44.7578H38.4479V40.6665Z" fill="#008FD5"/>
<path d="M30.8371 40.6665H34.6425V44.7578H30.8371V40.6665Z" fill="#008FD5"/>
<path d="M23.095 40.6665H26.9004V44.7578H23.095V40.6665Z" fill="#008FD5"/>
<path d="M15.353 40.6665H19.2896V44.7578H15.353V40.6665Z" fill="#008FD5"/>
<path d="M7.74213 40.6665H11.5476V44.7578H7.74213V40.6665Z" fill="#008FD5"/>
<path d="M38.4479 48.7111H42.3846V52.666H38.4479V48.7111Z" fill="#008FD5"/>
<path d="M30.8371 48.7111H34.6425V52.666H30.8371V48.7111Z" fill="#008FD5"/>
<path d="M23.095 48.7111H26.9004V52.666H23.095V48.7111Z" fill="#008FD5"/>
<path d="M15.353 48.7111H19.2896V52.666H15.353V48.7111Z" fill="#008FD5"/>
<path d="M7.74213 48.7111H11.5476V52.666H7.74213V48.7111Z" fill="#008FD5"/>
</svg>
