<svg width="58" height="61" viewBox="0 0 58 61" fill="none" xmlns="http://www.w3.org/2000/svg">
<path d="M51.9638 60.7098H5.77375C2.62443 60.7098 0 57.9828 0 54.7104V10.6695C0 7.39709 2.09955 4.6701 4.8552 4.6701H7.74208V8.62423H4.8552C4.46154 8.62423 3.93665 9.44233 3.93665 10.6695V54.7104C3.93665 55.8012 4.8552 56.7556 5.90498 56.7556H52.095C53.1448 56.7556 54.0633 55.8012 54.0633 54.7104V10.6695C54.0633 9.44233 53.4072 8.62423 53.1448 8.62423H50.2579V4.6701H53.1448C55.7692 4.6701 58 7.39709 58 10.6695V54.7104C57.7376 57.9828 55.1131 60.7098 51.9638 60.7098Z" fill="#828282"/>
<path d="M13.5158 12.7147C12.466 12.7147 11.5475 11.7603 11.5475 10.6695V2.62489C11.5475 1.5341 12.466 0.579651 13.5158 0.579651C14.5656 0.579651 15.4841 1.5341 15.4841 2.62489V10.6695C15.3529 11.7603 14.5656 12.7147 13.5158 12.7147Z" fill="#828282"/>
<path d="M44.2217 12.7147C43.172 12.7147 42.2534 11.7603 42.2534 10.6695V2.62489C42.2534 1.5341 43.172 0.579651 44.2217 0.579651C45.2715 0.579651 46.1901 1.5341 46.1901 2.62489V10.6695C46.1901 11.7603 45.2715 12.7147 44.2217 12.7147Z" fill="#828282"/>
<path d="M19.2896 4.6701H38.448V8.76135H19.2896V4.6701Z" fill="#828282"/>
<path d="M3.80548 16.6689H53.9322V20.7602H3.80548V16.6689Z" fill="#828282"/>
<path d="M46.1901 24.7135H49.9955V28.6684H46.1901V24.7135Z" fill="#828282"/>
<path d="M38.4479 24.7135H42.3846V28.6684H38.4479V24.7135Z" fill="#828282"/>
<path d="M30.8371 24.7135H34.6425V28.6684H30.8371V24.7135Z" fill="#828282"/>
<path d="M23.095 24.7135H26.9004V28.6684H23.095V24.7135Z" fill="#828282"/>
<path d="M15.353 24.7135H19.2896V28.6684H15.353V24.7135Z" fill="#828282"/>
<path d="M46.1901 32.7581H49.9955V36.713H46.1901V32.7581Z" fill="#828282"/>
<path d="M38.4479 32.7581H42.3846V36.713H38.4479V32.7581Z" fill="#828282"/>
<path d="M30.8371 32.7581H34.6425V36.713H30.8371V32.7581Z" fill="#828282"/>
<path d="M23.095 32.7581H26.9004V36.713H23.095V32.7581Z" fill="#828282"/>
<path d="M15.353 32.7581H19.2896V36.713H15.353V32.7581Z" fill="#828282"/>
<path d="M7.74213 32.7581H11.5476V36.713H7.74213V32.7581Z" fill="#828282"/>
<path d="M46.1901 40.6664H49.9955V44.7577H46.1901V40.6664Z" fill="#828282"/>
<path d="M38.4479 40.6664H42.3846V44.7577H38.4479V40.6664Z" fill="#828282"/>
<path d="M30.8371 40.6664H34.6425V44.7577H30.8371V40.6664Z" fill="#828282"/>
<path d="M23.095 40.6664H26.9004V44.7577H23.095V40.6664Z" fill="#828282"/>
<path d="M15.353 40.6664H19.2896V44.7577H15.353V40.6664Z" fill="#828282"/>
<path d="M7.74213 40.6664H11.5476V44.7577H7.74213V40.6664Z" fill="#828282"/>
<path d="M38.4479 48.7111H42.3846V52.6659H38.4479V48.7111Z" fill="#828282"/>
<path d="M30.8371 48.7111H34.6425V52.6659H30.8371V48.7111Z" fill="#828282"/>
<path d="M23.095 48.7111H26.9004V52.6659H23.095V48.7111Z" fill="#828282"/>
<path d="M15.353 48.7111H19.2896V52.6659H15.353V48.7111Z" fill="#828282"/>
<path d="M7.74213 48.7111H11.5476V52.6659H7.74213V48.7111Z" fill="#828282"/>
</svg>
