<svg width="75" height="90" viewBox="0 0 75 90" fill="none" xmlns="http://www.w3.org/2000/svg">
<path d="M53.3774 26.0359C56.7885 26.8118 56.8624 32.7188 55.1346 34.967C54.3618 35.9734 52.5234 36.6006 52.3634 36.8237C52.1862 37.0691 51.566 39.7313 51.3026 40.403C50.5126 42.4233 49.2057 44.5228 47.7537 46.1241C47.4386 46.4736 46.6314 46.8256 46.4591 47.2346C46.085 48.1171 47.1876 52.7698 48.0711 53.2259L56.7516 55.96C57.138 56.2599 57.1946 57.1796 57.2734 57.249C57.394 57.3555 58.7993 57.2341 59.1881 57.2737C68.4642 58.2231 74.3414 65.5182 74.7967 74.6452C74.9862 78.4551 75.1388 84.5182 74.7967 88.2314C74.7229 89.0172 74.5383 89.9121 73.5981 89.9988C49.5651 89.9914 25.6231 89.9889 1.59 89.9988C0.529247 90.0385 0.292977 89.1139 0.209298 88.229C-0.137723 84.4959 0.007484 78.2865 0.209298 74.4568C0.694143 65.2728 6.76086 58.1959 16.0025 57.2713C16.3396 57.2366 17.6933 57.3332 17.7523 57.2713C17.8803 57.1325 17.4102 56.2797 18.6728 55.6873L27.1194 53.1317C27.6584 52.6979 28.761 47.6808 28.4189 47.0834C26.1473 45.435 24.4294 42.7009 23.472 40.0759C23.2111 39.3595 22.8075 37.3194 22.5368 36.9278C22.3301 36.6254 20.7057 36.0503 20.056 35.3364C17.9492 33.0237 18.0649 27.8826 20.8878 26.1301C19.3742 23.8249 18.3184 20.8577 17.9591 18.1137C17.1838 12.177 19.8345 6.24027 25.8347 4.52246C26.8512 4.23244 28.4977 4.19526 29.2409 3.8631C29.8636 3.58548 31.1828 2.13538 32.1476 1.58509C39.1421 -2.40578 50.5421 1.57021 54.064 8.70667C56.7885 14.227 55.5309 20.5553 53.3798 26.0335L53.3774 26.0359ZM51.8982 22.3202C54.1133 14.7673 53.1534 7.82918 45.5066 4.31424C41.5294 2.48737 36.4939 1.62227 32.721 4.39852C32.027 4.90915 30.9564 6.35429 30.442 6.56499C29.6347 6.89467 27.9587 6.67654 26.7946 6.98143C19.9009 8.77608 19.4899 16.9164 21.8181 22.5086L22.6894 18.835C23.5237 16.3116 26.0513 12.2439 28.5395 11.1582C29.9448 10.5459 31.0327 12.1696 32.1697 12.9206C34.6653 14.5665 38.2881 15.7836 41.2833 15.8283C42.4105 15.8456 43.3974 15.5134 44.5911 15.6523C46.8603 15.915 49.378 17.7692 50.5028 19.7373L51.9007 22.3227L51.8982 22.3202ZM47.4066 19.9678C44.9873 17.5659 42.7575 18.6318 39.814 18.4136C35.9943 18.1286 32.0836 16.3339 29.1031 13.9865C26.0784 16.3885 24.5722 20.248 24.39 24.0777C24.3507 24.9106 24.6657 26.8217 24.5032 27.3472C24.075 28.7354 22.4703 27.8975 21.7271 29.0204C21.0724 30.0095 21.1684 32.7014 22.0126 33.5541C22.8567 34.4068 24.1513 33.9854 24.7715 34.8654C25.4089 37.2922 25.8446 39.585 27.1367 41.7788C31.707 49.5374 43.0849 49.5151 47.734 41.8259C49.0359 39.6718 49.4912 37.307 50.077 34.8902C50.4855 34.1763 51.3765 34.3325 52.0336 34.0722C53.5644 33.4699 53.6973 31.8586 53.5693 30.3986C53.2912 27.2059 51.027 29.1394 50.2591 27.7835C49.9539 27.2456 49.9539 25.6815 49.7841 24.9155C49.4272 23.2994 48.5855 21.1403 47.4042 19.9678H47.4066ZM43.7765 48.9053C39.6836 50.7148 35.1428 50.6479 31.045 48.9053C30.8948 51.0396 29.9768 52.9656 29.364 54.9462L30.4912 63.032C35.0837 63.5451 39.7328 63.555 44.3253 63.027L45.455 54.9437C44.847 52.9358 44.0595 51.0049 43.7765 48.9053ZM30.6709 82.1832L26.7084 55.9773L20.8927 57.9207L24.2054 64.6308C24.6854 65.662 21.9732 67.6103 22.0199 68.1135L30.6684 82.1807L30.6709 82.1832ZM44.3302 82.1807L52.8261 68.1433C52.4126 67.0476 50.488 66.0016 50.611 64.8192C50.7833 63.1386 53.3183 59.6881 53.9287 57.9207L48.1154 55.9724L44.3327 82.1807H44.3302ZM2.98547 72.6101V87.3887H30.6733L19.0887 68.473C18.3356 67.0824 21.2373 65.4513 21.2545 64.6209C21.2718 63.8624 19.197 60.925 19.0124 59.9062C18.7245 59.7253 15.9606 59.9409 15.4856 60.1045C13.374 60.8358 11.7299 67.0724 12.0277 69.1695C15.1952 68.5324 18.8426 71.1922 19.9206 74.1395C20.4276 75.5202 21.3062 79.7589 18.9731 79.754C17.6982 79.7515 15.493 79.1789 16.4922 77.4784C17.0189 76.5811 17.9984 77.4264 17.6637 75.8548C16.3396 69.6702 7.34661 70.8328 8.1711 77.6073C8.20309 77.8626 8.62887 79.335 8.71009 79.3945C8.8356 79.4887 10.9842 78.3881 11.1023 80.4307C11.1663 81.5337 8.88975 82.4484 8.07757 82.3691C6.5492 82.2179 5.422 78.3559 5.38016 77.062C5.31863 75.1657 6.33754 72.5357 7.68133 71.2046C8.05542 70.8352 9.29584 70.1561 9.40905 69.7842C9.6084 69.1323 9.37213 67.821 9.44597 67.0328C9.62563 65.1315 10.2508 63.3096 10.9177 61.5472C6.87407 63.2105 3.41863 68.2623 2.98054 72.6076L2.98547 72.6101ZM44.1481 87.3887H72.0205V72.6101C72.0205 71.8714 71.2625 69.6355 70.9475 68.8572C69.4216 65.1167 66.2688 62.0182 62.4245 60.806C63.7363 63.493 64.3984 66.5271 64.4796 69.5165C69.1434 70.689 69.7464 77.3297 65.2893 79.2136C61.0758 80.9958 56.8968 76.9083 58.5138 72.5754C59.0823 71.0509 60.4728 70.1139 61.8535 69.4223C61.6837 67.0898 60.7633 61.6637 58.9076 60.164C58.4719 59.812 56.38 59.7104 55.9616 59.9657C55.5235 60.2334 54.1083 63.9789 53.594 64.6507C53.53 65.3497 56.8181 67.3426 55.6859 68.6118L44.1505 87.3911L44.1481 87.3887ZM43.7789 65.8231H31.04L34.1805 87.3887L40.6311 87.3812L43.7789 65.8256V65.8231ZM62.3679 72.1837C59.7813 72.7761 60.6328 77.5825 63.7634 76.9356C66.67 76.3332 66.2934 71.2864 62.3679 72.1837Z" fill="#008FD5"/>
</svg>
