<svg width="142" height="142" viewBox="0 0 142 142" fill="none" xmlns="http://www.w3.org/2000/svg">
<circle cx="71" cy="71" r="71" fill="#008FD5" fill-opacity="0.1"/>
<path d="M84.5487 53.2751C87.4595 53.9389 87.5225 58.9927 86.0482 60.9162C85.3888 61.7772 83.8199 62.3138 83.6834 62.5046C83.5322 62.7146 83.003 64.9923 82.7782 65.567C82.1041 67.2954 80.9889 69.0917 79.7498 70.4617C79.481 70.7607 78.7921 71.0619 78.6451 71.4118C78.3259 72.1668 79.2668 76.1474 80.0207 76.5376L87.428 78.8768C87.7578 79.1334 87.8061 79.9202 87.8733 79.9796C87.9762 80.0708 89.1754 79.9669 89.5072 80.0008C97.4228 80.8131 102.438 87.0544 102.827 94.863C102.988 98.1226 103.118 103.31 102.827 106.487C102.764 107.159 102.606 107.925 101.804 107.999C81.2955 107.993 60.865 107.99 40.3568 107.999C39.4516 108.033 39.25 107.242 39.1786 106.485C38.8825 103.291 39.0064 97.9784 39.1786 94.7018C39.5923 86.8445 44.7693 80.7897 52.6554 79.9987C52.9432 79.969 54.0982 80.0517 54.1487 79.9987C54.2579 79.8799 53.8567 79.1504 54.9341 78.6435L62.1419 76.457C62.6019 76.0859 63.5427 71.7935 63.2508 71.2824C61.3123 69.8721 59.8464 67.5329 59.0295 65.2871C58.8068 64.6742 58.4624 62.9288 58.2314 62.5937C58.055 62.335 56.6689 61.843 56.1144 61.2322C54.3167 59.2535 54.4154 54.8551 56.8243 53.3557C55.5327 51.3834 54.6317 48.8449 54.3251 46.4972C53.6635 41.418 55.9254 36.3388 61.0456 34.8692C61.913 34.621 63.318 34.5892 63.9523 34.305C64.4836 34.0675 65.6093 32.8269 66.4326 32.3561C72.4013 28.9417 82.1293 32.3434 85.1346 38.449C87.4595 43.1719 86.3863 48.5862 84.5508 53.273L84.5487 53.2751ZM83.2865 50.0961C85.1766 43.6342 84.3576 37.6982 77.8323 34.691C74.4384 33.128 70.1415 32.3879 66.9219 34.7631C66.3297 35.2 65.4161 36.4364 64.9772 36.6167C64.2883 36.8987 62.8581 36.7121 61.8647 36.9729C55.9821 38.5084 55.6314 45.4729 57.6181 50.2573L58.3616 47.1144C59.0736 44.9554 61.2304 41.4753 63.3537 40.5464C64.5529 40.0226 65.4812 41.4117 66.4515 42.0543C68.5811 43.4624 71.6725 44.5037 74.2284 44.5419C75.1903 44.5567 76.0325 44.2726 77.0511 44.3913C78.9874 44.6161 81.1359 46.2024 82.0957 47.8863L83.2886 50.0983L83.2865 50.0961ZM79.4537 48.0836C77.3892 46.0285 75.4864 46.9405 72.9746 46.7538C69.7152 46.51 66.378 44.9745 63.8347 42.9662C61.2535 45.0212 59.9682 48.3232 59.8128 51.5998C59.7792 52.3123 60.048 53.9474 59.9094 54.397C59.544 55.5846 58.1747 54.8678 57.5404 55.8285C56.9818 56.6747 57.0637 58.9778 57.7841 59.7074C58.5044 60.4369 59.6091 60.0764 60.1384 60.8292C60.6823 62.9055 61.054 64.8672 62.1566 66.744C66.0566 73.382 75.7658 73.3629 79.733 66.7843C80.844 64.9414 81.2325 62.9182 81.7324 60.8505C82.081 60.2397 82.8412 60.3733 83.402 60.1506C84.7083 59.6353 84.8217 58.2568 84.7125 57.0077C84.4752 54.2761 82.543 55.9303 81.8878 54.7703C81.6273 54.3101 81.6273 52.9719 81.4824 52.3166C81.1779 50.9338 80.4596 49.0867 79.4516 48.0836H79.4537ZM76.3559 72.8412C72.8633 74.3893 68.9885 74.3321 65.4917 72.8412C65.3636 74.6671 64.5802 76.315 64.0573 78.0094L65.0192 84.9273C68.9381 85.3663 72.9053 85.3748 76.8242 84.9231L77.7882 78.0073C77.2695 76.2895 76.5974 74.6374 76.3559 72.8412ZM65.1725 101.312L61.7912 78.8917L56.8285 80.5543L59.6553 86.2952C60.0648 87.1774 57.7505 88.8443 57.7904 89.2749L65.1704 101.31L65.1725 101.312ZM76.8284 101.31L84.0783 89.3003C83.7254 88.3629 82.0831 87.468 82.1881 86.4564C82.3351 85.0185 84.4983 82.0664 85.0191 80.5543L80.0585 78.8874L76.8305 101.31H76.8284ZM41.5476 93.1219V105.766H65.1746L55.289 89.5824C54.6464 88.3926 57.1225 86.9972 57.1372 86.2867C57.1519 85.6378 55.3815 83.1247 55.2239 82.2531C54.9782 82.0982 52.6197 82.2827 52.2144 82.4227C50.4124 83.0483 49.0095 88.3841 49.2636 90.1783C51.9666 89.6333 55.079 91.9088 55.9989 94.4304C56.4315 95.6116 57.1813 99.2381 55.1903 99.2339C54.1024 99.2318 52.2207 98.7419 53.0734 97.287C53.5228 96.5193 54.3587 97.2425 54.073 95.898C52.9432 90.6067 45.2691 91.6013 45.9727 97.3973C46 97.6158 46.3633 98.8755 46.4326 98.9264C46.5397 99.007 48.3732 98.0654 48.474 99.8129C48.5286 100.757 46.5859 101.539 45.8929 101.471C44.5887 101.342 43.6268 98.0378 43.5911 96.9308C43.5386 95.3084 44.408 93.0583 45.5547 91.9194C45.874 91.6034 46.9324 91.0224 47.0291 90.7042C47.1992 90.1465 46.9976 89.0246 47.0606 88.3502C47.2139 86.7236 47.7473 85.1648 48.3165 83.657C44.8659 85.08 41.9172 89.4021 41.5434 93.1198L41.5476 93.1219ZM76.673 105.766H100.458V93.1219C100.458 92.4899 99.8107 90.577 99.5418 89.9111C98.2397 86.7109 95.5494 84.0599 92.2689 83.0229C93.3883 85.3218 93.9533 87.9176 94.0226 90.4752C98.0024 91.4783 98.517 97.1598 94.7135 98.7716C91.118 100.296 87.5519 96.7993 88.9318 93.0922C89.4169 91.7879 90.6035 90.9863 91.7817 90.3946C91.6368 88.399 90.8513 83.7567 89.2678 82.4736C88.8961 82.1725 87.1109 82.0855 86.7539 82.304C86.38 82.533 85.1724 85.7374 84.7335 86.3122C84.6789 86.9102 87.4847 88.6153 86.5187 89.7011L76.6751 105.768L76.673 105.766ZM76.358 87.3153H65.4875L68.1673 105.766L73.6719 105.759L76.358 87.3174V87.3153ZM92.2206 92.7571C90.0133 93.264 90.74 97.3761 93.4114 96.8226C95.8917 96.3073 95.5704 91.9894 92.2206 92.7571Z" fill="#828282" stroke="#828282"/>
</svg>
