<svg width="25" height="45" viewBox="0 0 25 45" fill="none" xmlns="http://www.w3.org/2000/svg">
<path d="M24.3897 21.0531L3.55634 0.599096C2.74287 -0.199721 1.4237 -0.199721 0.610088 0.599232C-0.203386 1.39805 -0.203386 2.69309 0.610227 3.49191L19.9704 22.4996L0.610088 41.5083C-0.203386 42.3071 -0.203386 43.6021 0.610227 44.401C1.01689 44.8004 1.55009 45 2.08329 45C2.61648 45 3.14968 44.8004 3.55648 44.4008L24.3897 23.9458C24.7806 23.5622 25 23.0419 25 22.4995C25 21.957 24.7806 21.4367 24.3897 21.0531Z" fill="black"/>
<path d="M24.3897 21.0531L3.55634 0.599096C2.74287 -0.199721 1.4237 -0.199721 0.610088 0.599232C-0.203386 1.39805 -0.203386 2.69309 0.610227 3.49191L19.9704 22.4996L0.610088 41.5083C-0.203386 42.3071 -0.203386 43.6021 0.610227 44.401C1.01689 44.8004 1.55009 45 2.08329 45C2.61648 45 3.14968 44.8004 3.55648 44.4008L24.3897 23.9458C24.7806 23.5622 25 23.0419 25 22.4995C25 21.957 24.7806 21.4367 24.3897 21.0531Z" fill="black"/>
</svg>
