<svg width="100" height="80" viewBox="0 0 100 80" fill="none" xmlns="http://www.w3.org/2000/svg">
<path d="M55.1 20.92C49.68 17 48.5 7.99999 48.48 7.81999C48.4607 7.62453 48.4026 7.43486 48.3092 7.26206C48.2159 7.08926 48.089 6.93677 47.9361 6.81349C47.7832 6.69021 47.6073 6.5986 47.4186 6.54399C47.2299 6.48939 47.0323 6.47289 46.8372 6.49546C46.642 6.51802 46.4534 6.5792 46.2821 6.67542C46.1109 6.77165 45.9605 6.90099 45.8398 7.05592C45.7191 7.21085 45.6304 7.38826 45.5789 7.57782C45.5274 7.76737 45.5142 7.96527 45.54 8.15999C45.54 8.57999 46.8 18.16 52.9 22.98C52.5774 23.8158 52.1895 24.625 51.74 25.4L51.26 26.32L50.42 28.82C49.6068 31.6947 48.395 34.4414 46.82 36.98C44.9547 39.7764 42.652 42.2546 40 44.32C38.5806 45.2341 37.0811 46.0173 35.52 46.66C33.9835 47.2968 32.499 48.0524 31.08 48.92C30.3029 49.4145 29.5611 49.9625 28.86 50.56C27.6572 51.766 26.1276 52.5934 24.46 52.94H23.66C21.8076 52.9819 19.9914 53.4616 18.36 54.34C11.8 58.28 12 67.2 12 71.48C12.0052 71.869 12.1635 72.2404 12.4405 72.5136C12.7175 72.7868 13.0909 72.94 13.48 72.94C13.8708 72.9296 14.2422 72.7669 14.5149 72.4868C14.7876 72.2066 14.9401 71.831 14.94 71.44C14.82 65.44 15.34 59.58 19.78 56.96C21.0898 56.3075 22.5368 55.9783 24 56H24.82C27.0811 55.6284 29.1746 54.5747 30.82 52.98C31.457 52.454 32.1249 51.9665 32.82 51.52C34.0989 50.7496 35.4364 50.0809 36.82 49.52C38.5609 48.8099 40.2287 47.9325 41.8 46.9C44.7039 44.643 47.2348 41.9433 49.3 38.9C51.0516 36.1325 52.3986 33.1288 53.3 29.98C53.56 29.2 53.82 28.4 54.1 27.6L54.46 26.98C55.52 24.98 56.96 22.46 55.22 20.98L55.1 20.92Z" fill="#008FD5"/>
<path d="M80.36 25.74C79.0023 23.0517 77.0008 20.741 74.5337 19.0137C72.0666 17.2864 69.2106 16.1961 66.22 15.84C65.867 15.8208 65.5131 15.8208 65.16 15.84C64.5893 15.8811 64.0164 15.7992 63.48 15.6C62.3 14.94 57.62 9.59999 57.36 5.77999C57.3005 5.41649 57.1075 5.08827 56.8188 4.85946C56.5302 4.63066 56.1666 4.51772 55.7991 4.54272C55.4316 4.56772 55.0866 4.72886 54.8316 4.99465C54.5766 5.26044 54.4298 5.61177 54.42 5.97999C54.74 10.92 59.96 17 62.02 18.18C62.9874 18.681 64.0729 18.9091 65.16 18.84C65.4396 18.8191 65.7204 18.8191 66 18.84C68.5184 19.1306 70.923 20.0506 72.9922 21.5152C75.0614 22.9797 76.7286 24.9416 77.84 27.22C80.1401 31.8712 81.1944 37.0395 80.9 42.22C80.34 56.38 73.32 66.64 61.18 71.14C57.74 72.44 45.76 75.04 36.1 70.04C34.0345 68.9018 32.2613 67.2998 30.92 65.36C29.54 63.5 27.64 60.92 23.92 62.38C19.78 63.94 19.78 69.92 19.78 72.38C19.8224 72.7454 19.9977 73.0825 20.2724 73.3272C20.5471 73.5719 20.9021 73.7071 21.27 73.7071C21.6379 73.7071 21.993 73.5719 22.2677 73.3272C22.5424 73.0825 22.7176 72.7454 22.76 72.38C22.76 70.6 22.76 65.92 24.98 65.06C26.44 64.48 26.98 64.96 28.52 67.06C30.1326 69.3593 32.2544 71.2553 34.72 72.6C39.2294 74.833 44.2089 75.9509 49.24 75.86H51.54C55.1628 75.6946 58.7445 75.0214 62.18 73.86C68.5873 71.6056 74.0989 67.3491 77.9 61.72C81.6538 55.9229 83.6986 49.1856 83.8 42.28C84.1175 36.5739 82.9531 30.8828 80.42 25.76L80.36 25.74Z" fill="#008FD5"/>
<path d="M76 39.88C75.7814 39.2892 75.4207 38.7612 74.9499 38.3427C74.479 37.9241 73.9124 37.6278 73.3 37.48C72.5 37.48 70.96 37.62 69.64 39.92C66.8597 43.9271 62.8941 46.9625 58.3 48.6C52.8073 50.4522 47.0563 51.4243 41.26 51.48C39.5532 51.5344 37.8657 51.8584 36.26 52.44C34.9811 52.8477 33.8253 53.5706 32.899 54.5423C31.9728 55.5139 31.306 56.703 30.96 58C30.6876 59.3036 30.7384 60.654 31.1079 61.9334C31.4775 63.2129 32.1545 64.3824 33.08 65.34C34.6841 66.9222 36.6361 68.1071 38.78 68.8C41.8422 69.9189 45.0799 70.4811 48.34 70.46C50.7182 70.4593 53.088 70.1774 55.4 69.62C60.8468 68.2596 65.8446 65.5022 69.9 61.62C72.8258 58.9496 75.0451 55.5966 76.36 51.86C77.0874 49.9308 77.4231 47.8761 77.3476 45.8157C77.2721 43.7553 76.7867 41.7307 75.92 39.86L76 39.88ZM73.62 50.82C72.4665 54.1054 70.5066 57.0487 67.92 59.38C64.2601 62.9416 59.7289 65.4796 54.78 66.74C49.8174 67.9874 44.5958 67.7298 39.78 66C38.0812 65.4565 36.5286 64.5332 35.24 63.3C34.616 62.7153 34.1587 61.9751 33.9152 61.1553C33.6716 60.3356 33.6505 59.4658 33.8541 58.6352C34.0577 57.8046 34.4786 57.0431 35.0736 56.4289C35.6686 55.8147 36.4163 55.3698 37.24 55.14C38.5552 54.6614 39.9407 54.4046 41.34 54.38C47.4247 54.2976 53.4585 53.2583 59.22 51.3C64.4268 49.4996 68.9105 46.0614 72 41.5C72.1692 41.1383 72.4148 40.8175 72.72 40.56C72.8906 40.7401 73.0263 40.9503 73.12 41.18C73.8076 42.6895 74.1898 44.3202 74.2448 45.978C74.2997 47.6359 74.0262 49.2882 73.44 50.84L73.62 50.82Z" fill="#008FD5"/>
</svg>
