<svg width="100" height="80" viewBox="0 0 100 80" fill="none" xmlns="http://www.w3.org/2000/svg">
<path d="M22.8 30.18C21.1181 28.7452 19.0081 27.9083 16.8 27.8C16.1767 27.7666 15.554 27.8753 14.9789 28.1178C14.4037 28.3604 13.8912 28.7304 13.48 29.2C13.0357 29.8227 12.7615 30.5505 12.6843 31.3116C12.6071 32.0727 12.7297 32.8408 13.04 33.54C13.7489 35.3069 14.924 36.8484 16.44 38C18.1193 39.442 20.2295 40.2861 22.44 40.4C23.0659 40.4306 23.6907 40.3207 24.2687 40.0785C24.8466 39.8362 25.363 39.4677 25.78 39C27.54 36.86 26.24 32.96 22.8 30.18ZM25 38.48C24.6706 38.8282 24.2689 39.1 23.8232 39.2762C23.3774 39.4524 22.8985 39.5288 22.42 39.5C20.4375 39.3931 18.546 38.6337 17.04 37.34C15.665 36.2744 14.6126 34.8482 14 33.22C13.7481 32.6751 13.6398 32.0748 13.6853 31.4762C13.7308 30.8776 13.9286 30.3006 14.26 29.8C14.5868 29.4484 14.9881 29.1744 15.4345 28.9979C15.8809 28.8214 16.3611 28.747 16.84 28.78C18.8225 28.8869 20.714 29.6463 22.22 30.94C25.16 33.34 26.42 36.72 25 38.48Z" stroke="#008FD5" stroke-width="1.2" stroke-miterlimit="10"/>
<path d="M83.06 27.8C80.8495 27.9139 78.7393 28.758 77.06 30.2C73.62 32.96 72.32 36.86 74.1 39.08C74.5123 39.5535 75.028 39.926 75.607 40.1688C76.1861 40.4115 76.8132 40.518 77.44 40.48C79.6505 40.3661 81.7607 39.522 83.44 38.08C84.9603 36.9039 86.1292 35.3337 86.82 33.54C87.1303 32.8408 87.2529 32.0727 87.1757 31.3116C87.0985 30.5505 86.8243 29.8227 86.38 29.2C85.9688 28.7304 85.4563 28.3604 84.8812 28.1178C84.306 27.8753 83.6833 27.7666 83.06 27.8ZM86 33.22C85.3746 34.8466 84.3164 36.2712 82.94 37.34C81.434 38.6337 79.5425 39.3931 77.56 39.5C77.0815 39.5288 76.6026 39.4524 76.1568 39.2762C75.7111 39.1 75.3094 38.8282 74.98 38.48C73.56 36.72 74.82 33.34 77.78 30.94C79.286 29.6463 81.1775 28.8869 83.16 28.78C83.6354 28.7514 84.1114 28.828 84.5538 29.0043C84.9963 29.1806 85.3945 29.4523 85.72 29.8C86.0546 30.2988 86.2559 30.8749 86.305 31.4736C86.354 32.0722 86.249 32.6734 86 33.22Z" stroke="#008FD5" stroke-width="1.2" stroke-miterlimit="10"/>
<path d="M86.8 15.14C81.12 15.14 77.08 18.62 73.54 21.68C70.48 24.3 67.54 26.78 64.14 26.78C62.6666 26.7364 61.2339 26.2865 60 25.48C56.963 23.743 53.4952 22.9038 50 23.06C46.5048 22.9038 43.037 23.743 40 25.48C38.7661 26.2865 37.3334 26.7364 35.86 26.78C32.38 26.78 29.5 24.3 26.46 21.68C22.78 18.62 18.76 15.14 13.08 15.14C7.7 15.14 4 19.24 4 22.9C4 27.26 7.06 29.46 9.52 31.22C10.218 31.7057 10.8859 32.2334 11.52 32.8C11.5623 32.8476 11.615 32.8849 11.6739 32.9092C11.7328 32.9335 11.7964 32.944 11.86 32.94C11.9233 32.9413 11.9861 32.9296 12.0446 32.9055C12.1031 32.8814 12.156 32.8455 12.2 32.8C12.2447 32.7554 12.2803 32.7024 12.3045 32.6441C12.3287 32.5857 12.3412 32.5232 12.3412 32.46C12.3412 32.3968 12.3287 32.3343 12.3045 32.2759C12.2803 32.2176 12.2447 32.1646 12.2 32.12C11.5166 31.4975 10.7805 30.9354 10 30.44C7.6 28.72 4.88 26.78 4.88 22.9C4.88 19.7 8.24 16.12 13.06 16.12C18.38 16.12 22.1 19.32 25.68 22.42C28.88 25.16 31.88 27.76 35.68 27.76C37.3143 27.7162 38.9054 27.2251 40.28 26.34C43.2278 24.6422 46.6025 23.8298 50 24C53.3534 23.8408 56.6829 24.6384 59.6 26.3C60.9746 27.1851 62.5657 27.6762 64.2 27.72C68.04 27.72 71.04 25.12 74.2 22.38C77.8 19.28 81.52 16.08 86.84 16.08C91.66 16.08 95.02 19.66 95.02 22.86C95.02 26.74 92.3 28.68 89.9 30.4C89.1447 30.9043 88.4292 31.466 87.76 32.08C87.6743 32.1725 87.6266 32.2939 87.6266 32.42C87.6266 32.5461 87.6743 32.6676 87.76 32.76C87.8046 32.8048 87.8576 32.8403 87.9159 32.8645C87.9743 32.8887 88.0368 32.9012 88.1 32.9012C88.1632 32.9012 88.2257 32.8887 88.2841 32.8645C88.3424 32.8403 88.3954 32.8048 88.44 32.76C89.0691 32.1874 89.7373 31.6595 90.44 31.18C92.9 29.42 95.96 27.18 95.96 22.86C96 19.24 92.18 15.14 86.8 15.14Z" stroke="#008FD5" stroke-width="1.2" stroke-miterlimit="10"/>
<path d="M78 24.7C80.8 21.36 82.48 19.34 86 19.34C88.9 19.34 90.86 20.76 90.86 22.86C90.8979 23.3903 90.8298 23.9229 90.6595 24.4265C90.4892 24.9302 90.2203 25.3949 89.8683 25.7934C89.5164 26.1919 89.0885 26.5162 88.6097 26.7474C88.131 26.9787 87.6109 27.1121 87.08 27.14C86.9527 27.14 86.8306 27.1906 86.7406 27.2806C86.6506 27.3706 86.6 27.4927 86.6 27.62C86.6 27.7473 86.6506 27.8694 86.7406 27.9594C86.8306 28.0494 86.9527 28.1 87.08 28.1C87.7395 28.0772 88.3877 27.9225 88.9864 27.6451C89.5851 27.3676 90.1222 26.973 90.5659 26.4846C91.0095 25.9961 91.3509 25.4238 91.5697 24.8012C91.7886 24.1787 91.8805 23.5186 91.84 22.86C91.84 20.22 89.44 18.38 86 18.38C82.12 18.38 80.2 20.64 77.32 24.08C76.06 25.58 74.64 27.3 72.74 29.18C71.265 30.5556 69.5677 31.6713 67.72 32.48C64.94 33.88 62.34 35.2 62.34 38.84V44C61.9614 46.3947 60.9146 48.6338 59.32 50.46C58.4964 51.3535 57.9117 52.4404 57.62 53.62V67.62L57 68V61.38C57 59.98 56.32 59.7 55.76 59.7C55.2 59.7 54.8 60.08 54.08 60.64C52.9995 61.7237 51.5953 62.4258 50.08 62.64C48.5634 62.4301 47.1579 61.7273 46.08 60.64C45.36 60.08 44.88 59.7 44.4 59.7C43.92 59.7 43.16 59.98 43.16 61.38V68.12L42.54 67.74V53.74C42.2483 52.5604 41.6635 51.4735 40.84 50.58C39.1524 48.7446 38.0338 46.4588 37.62 44V38.84C37.62 35.2 35 33.88 32.24 32.48C30.3923 31.6713 28.695 30.5556 27.22 29.18C25.32 27.3 23.9 25.58 22.62 24.08C19.74 20.64 17.84 18.38 14 18.38C10.56 18.38 8.15999 20.22 8.15999 22.86C8.11674 23.5176 8.20604 24.1772 8.42261 24.7997C8.63918 25.4221 8.97859 25.9947 9.4207 26.4835C9.86281 26.9722 10.3986 27.3671 10.9963 27.6448C11.594 27.9225 12.2413 28.0773 12.9 28.1C12.9726 28.1148 13.0476 28.1132 13.1195 28.0954C13.1915 28.0776 13.2585 28.044 13.3159 27.9971C13.3733 27.9502 13.4195 27.8912 13.4513 27.8242C13.483 27.7573 13.4995 27.6841 13.4995 27.61C13.4995 27.5359 13.483 27.4627 13.4513 27.3958C13.4195 27.3288 13.3733 27.2698 13.3159 27.2229C13.2585 27.176 13.1915 27.1424 13.1195 27.1246C13.0476 27.1068 12.9726 27.1053 12.9 27.12C12.3726 27.0895 11.8565 26.9548 11.3814 26.7237C10.9063 26.4926 10.4817 26.1697 10.1322 25.7736C9.78256 25.3776 9.5149 24.9162 9.34461 24.4161C9.17431 23.916 9.10477 23.3871 9.13999 22.86C9.13999 20.86 11.14 19.34 14 19.34C17.44 19.34 19.12 21.34 22 24.7C23.28 26.22 24.72 27.94 26.66 29.88C28.215 31.3098 29.9913 32.4783 31.92 33.34C34.64 34.72 36.76 35.8 36.76 38.84V44C37.12 46.6056 38.24 49.0474 39.98 51.02C40.6353 51.7873 41.1438 52.6686 41.48 53.62V68C41.4799 68.0748 41.4981 68.1486 41.5329 68.2148C41.5678 68.281 41.6183 68.3377 41.68 68.38C42.2008 68.7646 42.7566 69.0994 43.34 69.38C45.4124 70.4696 47.7186 71.039 50.06 71.039C52.4014 71.039 54.7076 70.4696 56.78 69.38C57.3634 69.0994 57.9192 68.7646 58.44 68.38C58.4993 68.3367 58.5469 68.2793 58.5783 68.2129C58.6098 68.1465 58.6241 68.0733 58.62 68V53.64C58.9659 52.6888 59.4808 51.808 60.14 51.04C61.826 49.0406 62.8959 46.5952 63.22 44V38.84C63.22 35.8 65.36 34.72 68.06 33.34C69.995 32.4789 71.7781 31.3105 73.34 29.88C75.26 28 76.72 26.22 78 24.7ZM44.2 60.7C44.5898 60.9 44.9527 61.1487 45.28 61.44C46.5691 62.6558 48.2338 63.3965 50 63.54C51.729 63.3592 53.348 62.606 54.6 61.4C54.9272 61.1087 55.2901 60.86 55.68 60.66C55.78 60.66 55.96 60.66 55.96 61.38V68.64C54.0922 69.5549 52.0398 70.0305 49.96 70.0305C47.8801 70.0305 45.8278 69.5549 43.96 68.64V61.38C44 60.66 44.1 60.66 44.2 60.66V60.7Z" stroke="#008FD5" stroke-width="1.2" stroke-miterlimit="10"/>
<path d="M43.52 38.6C45.26 42.16 48.24 49.18 48.24 52.88C48.3025 53.2861 48.5082 53.6564 48.82 53.9239C49.1319 54.1914 49.5291 54.3385 49.94 54.3385C50.3508 54.3385 50.7481 54.1914 51.0599 53.9239C51.3718 53.6564 51.5775 53.2861 51.64 52.88C51.64 49 55.42 40.5 56.36 38.6C57.1844 37.2285 58.2015 35.9825 59.38 34.9C59.88 34.38 60.34 33.9 60.7 33.48C60.9455 33.2158 61.1069 32.8847 61.1639 32.5286C61.2209 32.1725 61.1708 31.8076 61.02 31.48C60.8463 31.1189 60.5493 30.8318 60.1826 30.6704C59.8159 30.5091 59.4035 30.4841 59.02 30.6C58.5 30.74 58.08 30.9 57.68 31.04C55.2607 31.8797 52.6915 32.2 50.14 31.98C47.4834 32.2017 44.8094 31.8819 42.28 31.04C41.8288 30.8669 41.3681 30.72 40.9 30.6C40.5166 30.4798 40.1026 30.5027 39.7348 30.6645C39.367 30.8264 39.0704 31.1161 38.9 31.48C38.7492 31.8076 38.6991 32.1725 38.7561 32.5286C38.813 32.8847 38.9745 33.2158 39.22 33.48C39.58 33.9 40.04 34.4 40.54 34.9C41.6953 35.9936 42.6976 37.2382 43.52 38.6ZM39.74 32C39.7894 31.8775 39.8755 31.7733 39.9866 31.7017C40.0976 31.63 40.228 31.5945 40.36 31.6H40.62C41.088 31.704 41.5489 31.8376 42 32C44.6316 32.8803 47.4138 33.2205 50.18 33C52.8278 33.2118 55.4907 32.8712 58 32C58.4099 31.8258 58.8308 31.6788 59.26 31.56C59.4251 31.4982 59.6074 31.5009 59.7705 31.5677C59.9336 31.6344 60.0656 31.7602 60.14 31.92C60.2082 32.0785 60.2293 32.2533 60.2009 32.4235C60.1726 32.5937 60.0959 32.7522 59.98 32.88C59.62 33.28 59.18 33.74 58.68 34.24C57.4339 35.4142 56.363 36.7613 55.5 38.24C54.48 40.24 50.66 48.86 50.66 52.96C50.66 53.48 49.98 53.48 49.94 53.48C49.9 53.48 49.22 53.48 49.22 52.96C49.22 48.18 44.88 39.24 44.38 38.24C43.5234 36.7569 42.4517 35.409 41.2 34.24L40 32.86C39.8834 32.7532 39.7977 32.617 39.752 32.4657C39.7062 32.3143 39.7021 32.1535 39.74 32Z" stroke="#008FD5" stroke-width="1.2" stroke-miterlimit="10"/>
</svg>
