<svg width="142" height="142" viewBox="0 0 142 142" fill="none" xmlns="http://www.w3.org/2000/svg">
<circle cx="71" cy="71" r="69.5" stroke="#008FD5" stroke-width="3"/>
<path d="M98.6354 60.8115V61.3641L99.1563 61.5482C102.107 62.5908 104.219 65.4025 104.219 68.7084V79.875V99.4166C104.219 102.068 102.068 104.219 99.4168 104.219H93.8334C91.1821 104.219 89.0312 102.068 89.0312 99.4166V96.625V95.8438H88.25H54.75H53.9688V96.625V99.4166C53.9688 102.068 51.8179 104.219 49.1668 104.219H43.5834C40.9321 104.219 38.7812 102.068 38.7812 99.4166V79.875V68.7084C38.7812 65.4025 40.8929 62.5908 43.8437 61.5482L44.3646 61.3641V60.8115V46.375C44.3646 42.1799 47.7633 38.7812 51.9584 38.7812H91.0416C95.2367 38.7812 98.6354 42.1799 98.6354 46.375V60.8115ZM93.8332 61.1146H94.6145V60.3334V46.375C94.6145 44.4006 93.0161 42.8021 91.0416 42.8021H51.9582C49.9838 42.8021 48.3854 44.4006 48.3854 46.375V60.3334V61.1146H49.1666H54.9816H55.6427L55.7521 60.4627C57.0194 52.9115 63.5895 47.1562 71.5 47.1562C79.4105 47.1562 85.9806 52.9115 87.2479 60.4627L87.3573 61.1146H88.0184H93.8332ZM82.3146 61.1146H83.3225L83.0712 60.1386C81.7446 54.9863 77.0672 51.1771 71.5 51.1771C65.9328 51.1771 61.2555 54.9863 59.9288 60.1386L59.6775 61.1146H60.6854H82.3146ZM99.4166 77.8646H100.198V77.0834V68.7084C100.198 66.7339 98.5994 65.1355 96.625 65.1355H85.4582H57.5416H46.375C44.4006 65.1355 42.8021 66.7339 42.8021 68.7084V77.0834V77.8646H43.5834H99.4166ZM93.0521 99.4166V100.198H93.8334H99.4168H100.198V99.4166V82.6666V81.8854H99.4168H43.5834H42.8021V82.6666V99.4166V100.198H43.5834H49.1668H49.948V99.4166V93.8332C49.948 92.7229 50.8481 91.8229 51.9584 91.8229H91.0418C92.1521 91.8229 93.0521 92.7229 93.0521 93.8332V99.4166Z" fill="#008FD5" stroke="#008FD5" stroke-width="1.5625"/>
</svg>
