<svg width="142" height="142" viewBox="0 0 142 142" fill="none" xmlns="http://www.w3.org/2000/svg">
<circle cx="71" cy="71" r="71" fill="#008FD5" fill-opacity="0.1"/>
<path d="M66.7305 76.4316H76.8061V69.7142H83.5235V59.6381H76.8061V52.9211H66.7305V59.6385H60.013V69.7142H66.7305V76.4316ZM63.3717 66.3555V62.9968H70.0892V56.2798H73.4479V62.9972H80.1648V66.3555H73.4474V73.0729H70.0887V66.3555H63.3717Z" fill="#666666"/>
<path d="M44.8991 79.7898H33.1438V83.1485H44.8991V79.7898Z" fill="#666666"/>
<path d="M44.8991 86.5073H33.1438V89.866H44.8991V86.5073Z" fill="#666666"/>
<path d="M44.8991 93.2244H33.1438V96.5831H44.8991V93.2244Z" fill="#666666"/>
<path d="M108.713 79.7898H96.9579V83.1485H108.713V79.7898Z" fill="#666666"/>
<path d="M108.713 86.5073H96.9579V89.866H108.713V86.5073Z" fill="#666666"/>
<path d="M108.713 93.2244H96.9579V96.5831H108.713V93.2244Z" fill="#666666"/>
<path d="M115.43 104.98V73.0729H93.5992V36.128H101.996V32.7693H93.5992H48.2578H39.8612V36.128H48.2578V73.0729H26.4269V104.98H23.2115V108.339H26.4269H48.2578H51.6165H61.6922H80.1644H90.2401H93.5988H115.43H118.788V104.98H115.43ZM48.2578 104.98H29.7856V76.4312H48.2578V104.98ZM76.8061 104.98H65.0509V91.5451H76.8061V104.98ZM90.2405 73.0729V104.98H80.1648V104.98V88.1864H61.6922V104.98H51.6165V73.0729V36.128H90.2405V73.0729ZM112.071 104.98H93.5992V76.4312H112.071V104.98Z" fill="#666666"/>
</svg>
