<svg width="75" height="75" viewBox="0 0 75 75" fill="none" xmlns="http://www.w3.org/2000/svg">
<g clip-path="url(#clip0_15_381)">
<path d="M37.458 1.89553C51.1098 1.89553 62.217 13.0019 62.217 26.6545C62.217 32.5012 60.1276 38.1832 56.3349 42.6534L37.458 64.8859L18.581 42.6534C14.7875 38.1832 12.699 32.5012 12.699 26.6545C12.699 13.0027 23.8061 1.89553 37.458 1.89553ZM37.458 38.0276C44.2267 38.0276 49.7342 32.521 49.7342 25.7514C49.7342 18.9827 44.2275 13.4753 37.458 13.4753C30.6885 13.4753 25.1818 18.9819 25.1818 25.7514C25.1818 32.5201 30.6893 38.0276 37.458 38.0276ZM37.458 0.412048C22.9648 0.412048 11.2155 12.1614 11.2155 26.6545C11.2155 33.1252 13.5683 39.0386 17.4499 43.6133L37.458 67.1778L57.466 43.6133C61.3485 39.0378 63.7005 33.1244 63.7005 26.6545C63.7005 12.1614 51.9511 0.412048 37.458 0.412048ZM37.458 36.5433C31.4977 36.5433 26.6653 31.7117 26.6653 25.7506C26.6653 19.7903 31.4969 14.9579 37.458 14.9579C43.4191 14.9579 48.2507 19.7895 48.2507 25.7506C48.2507 31.7117 43.4182 36.5433 37.458 36.5433Z" fill="#008FD5"/>
<path d="M48.8302 59.2994L47.5336 60.596C55.5784 61.8572 60.3622 64.471 60.3622 66.4361C60.3622 69.1207 51.4399 73.0195 37.458 73.0195C23.476 73.0195 14.5537 69.1207 14.5537 66.4361C14.5537 64.471 19.3376 61.8572 27.3823 60.596L26.0857 59.2994C18.3464 60.652 13.0703 63.339 13.0703 66.4361C13.0703 70.8915 23.9889 74.5038 37.4588 74.5038C50.9279 74.5038 61.8473 70.8915 61.8473 66.4361C61.8465 63.3398 56.5695 60.652 48.8302 59.2994Z" fill="#008FD5"/>
</g>
<defs>
<clipPath id="clip0_15_381">
<rect width="75" height="75" fill="white"/>
</clipPath>
</defs>
</svg>
