<svg width="142" height="142" viewBox="0 0 142 142" fill="none" xmlns="http://www.w3.org/2000/svg">
<circle cx="71" cy="71" r="71" fill="#008FD5" fill-opacity="0.1"/>
<path fill-rule="evenodd" clip-rule="evenodd" d="M50.7061 99.5124H81.8611C81.8611 100.354 81.892 100.131 81.8611 100.96C81.8241 102.413 81.4967 103.551 80.7864 104.281C79.8413 104.986 78.6915 105.362 77.5128 105.351L54.758 105.271C53.6753 105.344 52.6074 104.986 51.787 104.275C51.1996 103.639 50.8409 102.825 50.7679 101.962C50.7679 101.77 50.6876 99.4876 50.6876 99.4876L50.7061 99.5124ZM99.6376 55.2656C101.55 53.3628 104.137 52.2949 106.833 52.2949C109.53 52.2949 112.116 53.3628 114.029 55.2656C115.931 57.1802 116.998 59.7707 116.998 62.471C116.998 65.1714 115.931 67.7619 114.029 69.6764C105.851 77.8591 97.7104 85.9613 89.5264 94.1501C88.5507 95.1288 87.3836 95.8952 86.0983 96.4014V101.522C86.2157 103.996 85.7277 105.957 84.4183 107.293C83.1088 108.629 81.0644 109.235 78.0872 108.92H53.8377C51.577 108.988 49.934 108.425 48.8037 107.324C47.6734 106.223 47.136 104.683 47.0557 102.753C47.0493 102.708 47.0493 102.662 47.0557 102.617V64.1224C46.5801 56.682 49.6931 52.235 53.9118 46.6068C54.3318 46.0439 54.758 45.4749 55.178 44.8997H53.6956C52.5876 44.8965 51.5259 44.4543 50.7424 43.6697C49.9589 42.8852 49.5173 41.8221 49.514 40.7126V37.1872C49.5173 36.0777 49.9589 35.0145 50.7424 34.23C51.5259 33.4455 52.5876 33.0033 53.6956 33H79.8784C80.9865 33.0033 82.0482 33.4455 82.8317 34.23C83.6152 35.0145 84.0568 36.0777 84.06 37.1872V40.6816C84.0568 41.7911 83.6152 42.8543 82.8317 43.6388C82.0482 44.4234 80.9865 44.8656 79.8784 44.8688H77.8834C78.2725 45.4007 78.6616 45.9141 79.0446 46.4274C82.7074 51.3011 86.1786 55.9336 86.0922 62.6875V68.8724C90.5929 64.3368 95.108 59.8012 99.6376 55.2656ZM86.0983 93.4326C86.9925 93.0494 87.8057 92.4995 88.4949 91.8122L98.7419 81.5452L87.834 70.6227L86.0922 72.3669V93.4326H86.0983ZM64.7765 72.0452H68.3405C68.6681 72.0452 68.9823 72.1756 69.214 72.4076C69.4456 72.6395 69.5758 72.9542 69.5758 73.2822V78.6074H74.8939C75.2215 78.6074 75.5357 78.7377 75.7674 78.9697C75.9991 79.2017 76.1292 79.5163 76.1292 79.8444V83.4131C76.1292 83.7412 75.9991 84.0558 75.7674 84.2878C75.5357 84.5197 75.2215 84.6501 74.8939 84.6501H69.5573V89.901C69.5573 90.2291 69.4271 90.5437 69.1954 90.7757C68.9638 91.0077 68.6496 91.138 68.3219 91.138H64.7765C64.4489 91.138 64.1347 91.0077 63.903 90.7757C63.6713 90.5437 63.5412 90.2291 63.5412 89.901V84.5944H58.2416C57.914 84.5944 57.5998 84.4641 57.3681 84.2321C57.1364 84.0001 57.0063 83.6855 57.0063 83.3574V79.8011C57.0063 79.473 57.1364 79.1584 57.3681 78.9264C57.5998 78.6945 57.914 78.5641 58.2416 78.5641H63.5597V73.2637C63.5597 72.9356 63.6899 72.621 63.9215 72.389C64.1532 72.157 64.4674 72.0267 64.7951 72.0267L64.7765 72.0452ZM82.1576 63.6709H50.9841C50.9146 62.6812 50.9395 61.6871 51.0582 60.7022C51.6388 55.6367 54.3503 51.9938 57.4263 47.8438C58.0996 46.9408 58.7914 45.9883 59.5078 44.9987H73.5597C74.1774 45.877 74.8754 46.7861 75.5486 47.6891C78.6369 51.765 81.5214 55.6553 82.0712 60.7269C82.1206 61.2279 82.1576 63.6523 82.1576 63.6523V63.6709Z" fill="#666666"/>
</svg>
