<svg width="142" height="142" viewBox="0 0 142 142" fill="none" xmlns="http://www.w3.org/2000/svg">
<circle cx="71" cy="71" r="71" fill="white"/>
<path fill-rule="evenodd" clip-rule="evenodd" d="M50.7062 99.5124H81.8613C81.8613 100.354 81.8922 100.131 81.8613 100.96C81.8242 102.413 81.4968 103.551 80.7865 104.281C79.8414 104.986 78.6916 105.362 77.5129 105.351L54.7581 105.271C53.6754 105.344 52.6075 104.986 51.7872 104.275C51.1997 103.639 50.8411 102.825 50.768 101.962C50.768 101.77 50.6877 99.4876 50.6877 99.4876L50.7062 99.5124ZM99.6377 55.2656C101.55 53.3628 104.137 52.2949 106.833 52.2949C109.53 52.2949 112.116 53.3628 114.029 55.2656C115.931 57.1802 116.999 59.7707 116.999 62.471C116.999 65.1714 115.931 67.7619 114.029 69.6764C105.851 77.8591 97.7106 85.9613 89.5265 94.1501C88.5508 95.1288 87.3837 95.8952 86.0985 96.4014V101.522C86.2158 103.996 85.7279 105.957 84.4184 107.293C83.109 108.629 81.0645 109.235 78.0873 108.92H53.8378C51.5771 108.988 49.9342 108.425 48.8038 107.324C47.6735 106.223 47.1361 104.683 47.0558 102.753C47.0494 102.708 47.0494 102.662 47.0558 102.617V64.1224C46.5802 56.682 49.6933 52.235 53.9119 46.6068C54.3319 46.0439 54.7581 45.4749 55.1781 44.8997H53.6957C52.5877 44.8965 51.526 44.4543 50.7425 43.6697C49.959 42.8852 49.5174 41.8221 49.5141 40.7126V37.1872C49.5174 36.0777 49.959 35.0145 50.7425 34.23C51.526 33.4455 52.5877 33.0033 53.6957 33H79.8786C80.9866 33.0033 82.0483 33.4455 82.8318 34.23C83.6153 35.0145 84.0569 36.0777 84.0602 37.1872V40.6816C84.0569 41.7911 83.6153 42.8543 82.8318 43.6388C82.0483 44.4234 80.9866 44.8656 79.8786 44.8688H77.8835C78.2726 45.4007 78.6618 45.9141 79.0447 46.4274C82.7075 51.3011 86.1787 55.9336 86.0923 62.6875V68.8724C90.593 64.3368 95.1081 59.8012 99.6377 55.2656ZM86.0985 93.4326C86.9926 93.0494 87.8059 92.4995 88.495 91.8122L98.7421 81.5452L87.8341 70.6227L86.0923 72.3669V93.4326H86.0985ZM64.7766 72.0452H68.3406C68.6682 72.0452 68.9824 72.1756 69.2141 72.4076C69.4458 72.6395 69.5759 72.9542 69.5759 73.2822V78.6074H74.894C75.2216 78.6074 75.5358 78.7377 75.7675 78.9697C75.9992 79.2017 76.1293 79.5163 76.1293 79.8444V83.4131C76.1293 83.7412 75.9992 84.0558 75.7675 84.2878C75.5358 84.5197 75.2216 84.6501 74.894 84.6501H69.5574V89.901C69.5574 90.2291 69.4272 90.5437 69.1956 90.7757C68.9639 91.0077 68.6497 91.138 68.322 91.138H64.7766C64.449 91.138 64.1348 91.0077 63.9031 90.7757C63.6715 90.5437 63.5413 90.2291 63.5413 89.901V84.5944H58.2418C57.9141 84.5944 57.5999 84.4641 57.3682 84.2321C57.1366 84.0001 57.0064 83.6855 57.0064 83.3574V79.8011C57.0064 79.473 57.1366 79.1584 57.3682 78.9264C57.5999 78.6945 57.9141 78.5641 58.2418 78.5641H63.5598V73.2637C63.5598 72.9356 63.69 72.621 63.9217 72.389C64.1533 72.157 64.4676 72.0267 64.7952 72.0267L64.7766 72.0452ZM82.1577 63.6709H50.9842C50.9148 62.6812 50.9396 61.6871 51.0583 60.7022C51.6389 55.6367 54.3505 51.9938 57.4264 47.8438C58.0997 46.9408 58.7915 45.9883 59.508 44.9987H73.5598C74.1775 45.877 74.8755 46.7861 75.5487 47.6891C78.6371 51.765 81.5216 55.6553 82.0713 60.7269C82.1207 61.2279 82.1577 63.6523 82.1577 63.6523V63.6709Z" fill="#666666"/>
</svg>
