<svg width="100" height="80" viewBox="0 0 100 80" fill="none" xmlns="http://www.w3.org/2000/svg">
<path d="M12 72.16C12.7576 72.8851 13.6623 73.4389 14.6526 73.784C15.6429 74.129 16.6958 74.2573 17.74 74.16H18C18.62 74.16 32.66 74.16 37.12 71.48C37.38 71.48 42.24 70.7 42.88 63.18L43.26 58.98C43.5 56.8 43.64 54.5 43.76 52.34V44.72C43.7707 44.5108 43.7398 44.3016 43.669 44.1045C43.5981 43.9074 43.4888 43.7264 43.3474 43.5719C43.2059 43.4175 43.0352 43.2927 42.8451 43.2048C42.655 43.1169 42.4493 43.0677 42.24 43.06C42.0272 43.0403 41.8127 43.0656 41.6104 43.1344C41.4081 43.2032 41.2226 43.3139 41.066 43.4592C40.9094 43.6045 40.7851 43.7812 40.7014 43.9778C40.6176 44.1743 40.5763 44.3864 40.58 44.6V52.24C40.5169 54.3765 40.3232 56.5071 40 58.62C39.88 60.04 39.74 61.56 39.62 62.96C39.24 67.82 36.82 68.32 36.68 68.32L36.04 68.46L35.42 68.84C32.74 70.36 23.54 71.14 17.8 71.14C16.5309 71.2234 15.2723 70.8628 14.24 70.12C13.3565 68.9405 12.9754 67.4594 13.18 66C13.2503 64.9412 13.2503 63.8788 13.18 62.82C13.1149 62.1549 13.1149 61.4851 13.18 60.82C13.18 59.16 13.32 57.38 13.44 55.46C13.7 52.4 14.08 49.08 14.6 45.46C15.4625 38.7146 17.7682 32.2343 21.36 26.46C24.54 21.36 31.36 13.7 36.54 13.7C36.9702 13.6804 37.401 13.7208 37.82 13.82C38.58 14.34 39.82 16.38 39.34 23.64C39.34 24.04 39.22 24.42 39.22 24.8C38.9374 26.4588 39.0262 28.1596 39.48 29.78C39.643 30.1487 39.9377 30.4434 40.3064 30.6065C40.6752 30.7695 41.0914 30.7892 41.4739 30.6617C41.8564 30.5343 42.1776 30.2687 42.3747 29.917C42.5719 29.5654 42.6308 29.1528 42.54 28.76C42.2447 27.5487 42.1971 26.2902 42.4 25.06C42.4 24.66 42.54 24.28 42.54 23.78C42.92 19.44 42.92 13.44 39.72 11.14C39.4291 10.8877 39.0776 10.7154 38.7 10.64C38.0029 10.4174 37.27 10.3292 36.54 10.38C29.64 10.38 22.12 19.32 18.68 24.66C14.9009 30.8066 12.4674 37.6844 11.54 44.84C11.02 48.54 10.52 51.86 10.26 55.06C10.12 57.06 9.99999 58.88 9.99999 60.66C9.97954 61.3887 10.0197 62.1179 10.12 62.84C10.19 63.772 10.19 64.708 10.12 65.64C9.94323 66.7981 10.0198 67.9807 10.3443 69.1063C10.6689 70.232 11.2338 71.2738 12 72.16Z" fill="#008FD5"/>
<path d="M90 60.54C90 58.88 89.88 56.96 89.74 54.92C89.48 51.74 89.1 48.42 88.46 44.72C87.5334 37.5705 85.0998 30.699 81.32 24.56C78 19.34 70.48 10.28 63.46 10.28C62.7347 10.3006 62.0122 10.3809 61.3 10.52C60.9594 10.611 60.649 10.7904 60.4 11.04C57.2 13.34 57.2 19.34 57.6 23.66C57.6 24.06 57.72 24.56 57.72 24.94C57.9268 26.169 57.8859 27.427 57.6 28.64C57.4839 29.0406 57.5247 29.4703 57.7141 29.8419C57.9036 30.2134 58.2276 30.4988 58.62 30.64C59.0206 30.7513 59.4483 30.7082 59.8186 30.5194C60.1889 30.3305 60.4749 30.0096 60.62 29.62C61.0787 28 61.1608 26.2966 60.86 24.64C60.86 24.26 60.74 23.88 60.74 23.5C60.24 16.36 61.5 14.32 62.28 13.8C62.6923 13.7008 63.1165 13.6604 63.54 13.68C68.78 13.68 75.42 21.34 78.6 26.44C82.1411 32.2386 84.4428 38.7078 85.36 45.44C85.88 49.02 86.26 52.34 86.52 55.44C86.64 57.44 86.78 59.14 86.78 60.8C86.7966 61.4696 86.7498 62.1393 86.64 62.8C86.5798 63.8591 86.5798 64.9209 86.64 65.98C86.7617 66.7159 86.7342 67.4687 86.5589 68.1937C86.3837 68.9187 86.0644 69.601 85.62 70.2C85.1539 70.6077 84.6052 70.9099 84.0115 71.0859C83.4178 71.262 82.793 71.3077 82.18 71.22C76.44 71.22 67.12 70.58 64.44 68.92L63.8 68.54L63.16 68.42C63.04 68.42 60.48 67.9 60.24 63.06C60.1 61.66 59.98 60.12 59.84 58.72C59.6 56.54 59.46 54.38 59.34 52.34V44.72C59.354 44.5036 59.3196 44.2868 59.2394 44.0854C59.1591 43.884 59.035 43.7029 58.876 43.5555C58.7171 43.408 58.5273 43.2978 58.3204 43.2328C58.1135 43.1679 57.8947 43.1498 57.68 43.18C57.4699 43.1877 57.2633 43.2368 57.0721 43.3245C56.8809 43.4121 56.7089 43.5366 56.5659 43.6907C56.4229 43.8449 56.3116 44.0258 56.2385 44.223C56.1655 44.4202 56.132 44.6298 56.14 44.84V52.5C56.28 54.68 56.4 56.96 56.66 59.14L57.04 63.34C57.56 70.62 62.28 71.52 62.78 71.64C67.24 74.32 81.28 74.32 81.92 74.32H82.18C83.2049 74.4024 84.2356 74.2668 85.2043 73.9221C86.1729 73.5773 87.0576 73.0313 87.8 72.32C88.5403 71.394 89.0894 70.3302 89.4155 69.1904C89.7416 68.0506 89.8384 66.8574 89.7 65.68C89.64 64.7476 89.64 63.8124 89.7 62.88C89.8636 62.1095 89.9639 61.3269 90 60.54Z" fill="#008FD5"/>
<path d="M49.42 5.67999C48.9829 5.69016 48.5666 5.86832 48.2574 6.17745C47.9483 6.48659 47.7701 6.90293 47.76 7.34V31.7C44.8925 32.7087 42.1537 34.0513 39.6 35.7C37.8597 37.0127 36.3521 38.6082 35.14 40.42C34.1497 41.8319 32.9949 43.121 31.7 44.26C28.8982 46.0749 25.5609 46.8792 22.24 46.54C22.0299 46.5321 21.8203 46.5657 21.6231 46.6388C21.426 46.712 21.2452 46.8232 21.091 46.9662C20.9369 47.1092 20.8124 47.2812 20.7247 47.4723C20.637 47.6634 20.5879 47.8699 20.58 48.08C20.5721 48.2901 20.6057 48.4997 20.6788 48.6969C20.7519 48.894 20.8632 49.0748 21.0062 49.2289C21.1492 49.3831 21.3212 49.5076 21.5123 49.5952C21.7034 49.6829 21.9099 49.7321 22.12 49.74H23.4C27.0254 49.8641 30.5968 48.8347 33.6 46.8C35.1268 45.499 36.4722 43.9989 37.6 42.34C38.6375 40.8381 39.8833 39.4912 41.3 38.34C43.7883 36.7528 46.4792 35.5082 49.3 34.64C52.131 35.4813 54.8256 36.7275 57.3 38.34C58.7529 39.452 60.0044 40.8049 61 42.34C62.1283 44.0294 63.5113 45.5339 65.1 46.8C68.1032 48.8347 71.6745 49.8641 75.3 49.74H76.58C77.0043 49.7214 77.4039 49.5351 77.6908 49.2219C77.9778 48.9087 78.1285 48.4943 78.11 48.07C78.0914 47.6456 77.905 47.2461 77.5919 46.9591C77.2787 46.6722 76.8643 46.5214 76.44 46.54C73.1265 46.8618 69.8013 46.0587 67 44.26C65.6652 43.1619 64.5053 41.8671 63.56 40.42C62.3421 38.6128 60.8353 37.0182 59.1 35.7C56.5413 34.0475 53.7954 32.7047 50.92 31.7V7.34C50.9755 7.12532 50.9768 6.90022 50.9239 6.68488C50.871 6.46955 50.7655 6.27071 50.6169 6.10619C50.4682 5.94166 50.281 5.81661 50.0721 5.74222C49.8633 5.66784 49.6392 5.64646 49.42 5.67999Z" fill="#008FD5"/>
</svg>
