<svg width="66" height="65" viewBox="0 0 66 65" fill="none" xmlns="http://www.w3.org/2000/svg">
<g clip-path="url(#clip0_18_10)">
<path d="M65.5457 20.4453C64.0046 15.6437 55.5018 17.5352 55.5018 21.5696V33.6948C53.0744 32.7557 50.7004 33.0511 48.6025 34.5811C46.2196 36.3183 35.9041 46.7812 35.9041 49.3474V64.9999H54.1656C53.1234 55.9567 64.98 54.0652 65.764 45.3968C66.4766 37.5396 65.3631 28.4215 65.5457 20.4453ZM63.3142 44.7398C62.1651 52.0149 52.2281 54.6296 51.4887 62.3544H38.572V49.3474C38.572 49.1181 39.8102 47.3059 40.1176 46.9091C41.1286 45.6216 51.0968 35.8862 51.9252 35.6305C53.2793 35.2116 55.3148 36.5652 55.5107 37.9056C55.9294 40.8112 48.362 46.0229 46.6027 48.4611C47.253 48.9946 47.8409 50.3042 48.8119 49.8103C49.3152 49.5546 56.2412 42.6366 56.8291 41.8474C57.5552 40.873 58.0273 40.0088 58.1787 38.7742C58.8246 33.4788 57.5997 27.0855 58.2633 21.6622C60.6685 18.3994 63.2162 20.0088 63.5325 23.7566C63.9467 28.7213 64.067 39.9867 63.3142 44.7398Z" fill="#828282"/>
<path d="M16.7294 33.9329C15.117 32.8879 12.7207 33.0026 10.9614 33.6948V21.5696C10.9614 19.7486 7.56294 17.4735 5.79914 17.4073C1.68806 17.253 0.516643 20.8818 0.253855 24.2019C-0.155917 29.3694 -0.320717 45.0044 1.80386 49.1534C4.72126 54.8412 13.1928 57.6763 12.2931 65.0043H30.5547V49.3518C30.5547 45.1895 19.4374 37.2001 16.7249 33.9373L16.7294 33.9329ZM27.8823 62.3544H15.1883C14.2262 60.9876 14.244 59.5238 13.3755 57.9761C11.0059 53.7742 5.06867 51.0846 3.60775 46.4814C2.37843 42.5925 2.53878 28.3289 2.92183 23.7566C3.23361 20.0088 5.54526 18.5449 8.19541 21.6534C9.15303 26.8606 6.64986 37.6631 9.61625 41.8518C10.3244 42.8571 17.6513 50.0749 18.2437 49.9735C18.6758 49.8985 19.2325 48.977 19.6601 48.6816C20.0432 47.7733 11.7542 41.2962 11.1529 39.4444C10.2844 36.7768 12.6049 35.2336 15.0992 35.9876C15.8519 36.2125 25.388 45.701 26.3367 46.9091C26.6441 47.3015 27.8823 49.1181 27.8823 49.3474V62.3544Z" fill="#828282"/>
<path d="M29.5481 0.290956C9.82116 3.32888 12.9256 36.1111 35.1825 33.6463C57.1988 31.2081 54.2235 -3.50975 29.5481 0.290956ZM34.7816 31.0405C15.1616 32.9365 13.3488 3.60224 32.2562 2.50436C50.932 1.4197 52.9497 29.2857 34.7816 31.0405Z" fill="#828282"/>
<path d="M34.5634 15.6172L40.3626 15.8686V18.2627L34.5634 18.2583V23.9947H31.891V18.2583L26.1007 18.2627V15.6128H31.8954C30.8309 7.12958 35.6324 7.16485 34.5634 15.6172Z" fill="#828282"/>
</g>
<defs>
<clipPath id="clip0_18_10">
<rect width="66" height="65" fill="white"/>
</clipPath>
</defs>
</svg>
