<svg width="20" height="20" viewBox="0 0 20 20" fill="none" xmlns="http://www.w3.org/2000/svg">
<g clip-path="url(#clip0_73_864)">
<path d="M9.9998 13.2599L18.4481 4.81174C18.8031 4.45671 19.3787 4.45671 19.7337 4.81174C20.0888 5.16677 20.0888 5.74235 19.7337 6.09738L10.6425 15.1883C10.4721 15.3588 10.2409 15.4546 9.99979 15.4546C9.75864 15.4546 9.52743 15.3588 9.35695 15.1883L0.26628 6.09738C0.0887646 5.91992 3.66666e-05 5.68725 3.66767e-05 5.45459C3.66869e-05 5.22192 0.0887646 4.98926 0.266341 4.81174C0.621371 4.45671 1.19695 4.45671 1.55198 4.81174L9.9998 13.2599Z" fill="#666666"/>
</g>
<defs>
<clipPath id="clip0_73_864">
<rect width="20" height="20" fill="white" transform="matrix(4.37114e-08 -1 -1 -4.37114e-08 20 20)"/>
</clipPath>
</defs>
</svg>
