<svg width="142" height="142" viewBox="0 0 142 142" fill="none" xmlns="http://www.w3.org/2000/svg">
<circle cx="71" cy="71" r="69.5" stroke="#008FD5" stroke-width="3"/>
<path d="M86.954 52.4573C90.2742 53.2159 90.346 58.9916 88.6644 61.1899C87.9122 62.174 86.1227 62.7872 85.967 63.0053C85.7945 63.2453 85.1909 65.8483 84.9346 66.5051C84.1656 68.4805 82.8936 70.5334 81.4802 72.0991C81.1736 72.4408 80.3879 72.785 80.2202 73.1849C79.8561 74.0477 80.9293 78.597 81.7893 79.043L90.2382 81.7164C90.6143 82.0096 90.6694 82.9088 90.7461 82.9767C90.8634 83.0809 92.2313 82.9622 92.6098 83.0009C101.638 83.9292 107.359 91.0622 107.802 99.9863C107.987 103.712 108.135 109.64 107.802 113.271C107.73 114.039 107.551 114.914 106.636 114.999C83.2433 114.992 59.9398 114.989 36.5476 114.999C35.5151 115.038 35.2852 114.134 35.2037 113.268C34.8659 109.618 35.0073 103.547 35.2037 99.8021C35.6756 90.8223 41.5806 83.9026 50.5757 82.9985C50.9039 82.9646 52.2214 83.0591 52.2789 82.9985C52.4035 82.8628 51.946 82.029 53.1749 81.4498L61.3962 78.9509C61.9209 78.5268 62.9941 73.6212 62.6611 73.0371C60.45 71.4253 58.778 68.7519 57.8461 66.1852C57.5922 65.4848 57.1993 63.49 56.9358 63.1071C56.7346 62.8114 55.1535 62.2491 54.5211 61.5511C52.4706 59.2897 52.5832 54.263 55.3308 52.5494C53.8576 50.2954 52.8299 47.3942 52.4802 44.7111C51.7256 38.9063 54.3055 33.1015 60.1458 31.4219C61.1351 31.1383 62.7377 31.102 63.4612 30.7772C64.0672 30.5057 65.3512 29.0879 66.2903 28.5498C73.0983 24.6476 84.1943 28.5353 87.6223 35.5131C90.2742 40.9107 89.0501 47.0985 86.9564 52.4549L86.954 52.4573ZM85.5143 48.8242C87.6702 41.4391 86.736 34.6551 79.2931 31.2183C75.422 29.432 70.5208 28.5862 66.8484 31.3007C66.1729 31.8 65.1309 33.213 64.6302 33.419C63.8445 33.7414 62.2131 33.5281 61.08 33.8262C54.3702 35.581 53.9702 43.5405 56.2363 49.0084L57.0843 45.4164C57.8964 42.9491 60.3566 38.9718 62.7785 37.9102C64.1463 37.3115 65.2051 38.8991 66.3118 39.6334C68.7409 41.2428 72.2671 42.4328 75.1824 42.4765C76.2796 42.4934 77.2402 42.1686 78.402 42.3044C80.6107 42.5613 83.0613 44.3742 84.156 46.2987L85.5167 48.8266L85.5143 48.8242ZM81.1425 46.5241C78.7877 44.1755 76.6173 45.2177 73.7523 45.0044C70.0345 44.7257 66.228 42.9709 63.327 40.6756C60.3829 43.0242 58.9169 46.7979 58.7396 50.5426C58.7013 51.3569 59.0079 53.2256 58.8498 53.7395C58.433 55.0967 56.8711 54.2775 56.1477 55.3755C55.5105 56.3425 55.6039 58.9747 56.4256 59.8084C57.2472 60.6422 58.5073 60.2302 59.1109 61.0906C59.7314 63.4634 60.1554 65.7053 61.413 67.8503C65.8615 75.4365 76.9359 75.4147 81.4611 67.8964C82.7283 65.7902 83.1715 63.4779 83.7416 61.1148C84.1392 60.4168 85.0064 60.5695 85.646 60.315C87.136 59.726 87.2654 58.1506 87.1408 56.723C86.8701 53.6013 84.6663 55.4918 83.9189 54.166C83.6218 53.6401 83.6218 52.1107 83.4565 51.3618C83.1092 49.7815 82.2899 47.6705 81.1401 46.5241H81.1425ZM77.6091 74.8185C73.6253 76.5878 69.2056 76.5224 65.2171 74.8185C65.071 76.9053 64.1774 78.7885 63.581 80.7251L64.6781 88.6312C69.1481 89.1329 73.6733 89.1426 78.1433 88.6264L79.2428 80.7226C78.6511 78.7594 77.8846 76.8714 77.6091 74.8185ZM64.853 107.357L60.9962 81.7333L55.3356 83.6335L58.56 90.1945C59.0271 91.2028 56.3872 93.1078 56.4327 93.5998L64.8506 107.354L64.853 107.357ZM78.1481 107.354L86.4174 93.6289C86.0149 92.5576 84.1416 91.5348 84.2614 90.3787C84.4291 88.7354 86.8965 85.3616 87.4906 83.6335L81.8324 81.7285L78.1505 107.354H78.1481ZM37.9059 97.9965V112.447H64.8554L53.5797 93.9513C52.8467 92.5916 55.671 90.9968 55.6877 90.1848C55.7045 89.4432 53.6851 86.5711 53.5054 85.5749C53.2252 85.398 50.535 85.6088 50.0727 85.7688C48.0173 86.4838 46.4171 92.5819 46.707 94.6323C49.79 94.0094 53.3401 96.6101 54.3894 99.4919C54.8829 100.842 55.7381 104.986 53.4671 104.982C52.2262 104.979 50.0799 104.419 51.0524 102.757C51.5651 101.879 52.5185 102.706 52.1927 101.169C50.9039 95.1219 42.1507 96.2587 42.9532 102.883C42.9843 103.132 43.3988 104.572 43.4778 104.63C43.6 104.722 45.6913 103.646 45.8063 105.643C45.8685 106.722 43.6527 107.616 42.8622 107.539C41.3746 107.391 40.2774 103.615 40.2367 102.349C40.1768 100.495 41.1685 97.9237 42.4765 96.6222C42.8406 96.2611 44.0479 95.597 44.1581 95.2334C44.3522 94.596 44.1222 93.3138 44.1941 92.5431C44.3689 90.6841 44.9774 88.9027 45.6266 87.1794C41.6908 88.8057 38.3275 93.7453 37.9011 97.994L37.9059 97.9965ZM77.9708 112.447H105.1V97.9965C105.1 97.2742 104.362 95.088 104.056 94.327C102.57 90.6696 99.5017 87.6399 95.7599 86.4547C97.0367 89.082 97.6811 92.0487 97.7601 94.9717C102.3 96.1181 102.887 102.611 98.5483 104.453C94.4471 106.196 90.3796 102.199 91.9534 97.9625C92.5068 96.4719 93.8602 95.5558 95.2041 94.8796C95.0388 92.5988 94.1429 87.2933 92.3367 85.827C91.9127 85.4828 89.8765 85.3834 89.4693 85.6331C89.0429 85.8949 87.6654 89.5571 87.1648 90.2139C87.1025 90.8974 90.3029 92.8461 89.201 94.087L77.9732 112.449L77.9708 112.447ZM77.6115 91.3603H65.2123L68.269 112.447L74.5476 112.439L77.6115 91.3628V91.3603ZM95.7048 97.5796C93.1871 98.1588 94.0159 102.858 97.063 102.226C99.8921 101.637 99.5256 96.7022 95.7048 97.5796Z" fill="#008FD5"/>
</svg>
