<svg width="142" height="142" viewBox="0 0 142 142" fill="none" xmlns="http://www.w3.org/2000/svg">
<circle cx="71" cy="71" r="69.5" stroke="#008FD5" stroke-width="3"/>
<path d="M66.7303 76.4316H76.806V69.7142H83.5234V59.6381H76.806V52.9211H66.7303V59.6385H60.0129V69.7142H66.7303V76.4316ZM63.3716 66.3555V62.9968H70.089V56.2798H73.4477V62.9972H80.1647V66.3555H73.4473V73.0729H70.0886V66.3555H63.3716Z" fill="#008FD5"/>
<path d="M44.899 79.7898H33.1438V83.1485H44.899V79.7898Z" fill="#008FD5"/>
<path d="M44.899 86.5074H33.1438V89.8661H44.899V86.5074Z" fill="#008FD5"/>
<path d="M44.899 93.2243H33.1438V96.583H44.899V93.2243Z" fill="#008FD5"/>
<path d="M108.713 79.7898H96.9578V83.1485H108.713V79.7898Z" fill="#008FD5"/>
<path d="M108.713 86.5074H96.9578V89.8661H108.713V86.5074Z" fill="#008FD5"/>
<path d="M108.713 93.2243H96.9578V96.583H108.713V93.2243Z" fill="#008FD5"/>
<path d="M115.43 104.98V73.0728H93.5991V36.1279H101.996V32.7692H93.5991H48.2577H39.8611V36.1279H48.2577V73.0728H26.4267V104.98H23.2114V108.339H26.4267H48.2577H51.6164H61.6921H80.1643H90.24H93.5987H115.43H118.788V104.98H115.43ZM48.2577 104.979H29.7854V76.4311H48.2577V104.979ZM76.806 104.979H65.0508V91.5451H76.806V104.979ZM90.2404 73.0728V104.98H80.1647V104.979V88.1864H61.6921V104.979H51.6164V73.0728V36.1279H90.2404V73.0728ZM112.071 104.979H93.5991V76.4311H112.071V104.979Z" fill="#008FD5"/>
</svg>
