<svg width="21" height="21" viewBox="0 0 21 21" fill="none" xmlns="http://www.w3.org/2000/svg">
<path d="M20.0929 10.0465C20.0929 15.5951 15.5951 20.0929 10.0465 20.0929C4.49785 20.0929 0 15.5951 0 10.0465C0 4.49785 4.49785 0 10.0465 0C15.5951 0 20.0929 4.49785 20.0929 10.0465Z" fill="#E10000"/>
<path d="M14.3759 5.78906H5.71698C4.8614 5.78906 4.16763 6.48283 4.16763 7.3379V12.7535C4.16763 13.6091 4.8614 14.3024 5.71698 14.3024H14.3759C15.231 14.3024 15.9247 13.6091 15.9247 12.7535V7.3379C15.9247 6.48283 15.231 5.78906 14.3759 5.78906ZM11.4375 10.4199L9.02955 11.6234C8.75144 11.7624 8.42478 11.5607 8.42478 11.2502V8.84325C8.42478 8.53277 8.75194 8.33102 9.02955 8.46957L11.4375 9.67304C11.745 9.82676 11.745 10.2662 11.4375 10.4199Z" fill="white"/>
</svg>
