<svg width="115" height="115" viewBox="0 0 115 115" fill="none" xmlns="http://www.w3.org/2000/svg">
<circle cx="57.5" cy="57.5" r="56.5" stroke="#008FD5" stroke-width="2"/>
<path d="M86.2153 31.6808H80.648V29.4539C80.648 26.9992 78.6615 25 76.1941 25C73.7268 25 71.7403 26.9865 71.7403 29.4539V31.6808H62.8452V29.4539C62.8452 26.9992 60.8587 25 58.3913 25C55.924 25 53.9375 26.9865 53.9375 29.4539V31.6808H45.0424V29.4539C45.0424 26.9992 43.0559 25 40.5885 25C38.1212 25 36.1347 26.9865 36.1347 29.4539V31.6808H30.5673C27.4926 31.6808 25 34.1734 25 37.2481V81.7488C25 84.8235 27.4926 87.3161 30.5673 87.3161H61.7191C62.3391 87.3161 62.8325 86.8227 62.8325 86.2027C62.8325 85.5827 62.3391 85.0892 61.7191 85.0892H30.5926C28.7453 85.0892 27.2649 83.5961 27.2522 81.7488V47.2567H89.5557V66.1729C89.5557 66.7929 90.0492 67.2864 90.6692 67.2864C91.2892 67.2864 91.7827 66.7929 91.7827 66.1729V37.2481C91.7827 34.1734 89.29 31.6808 86.2153 31.6808ZM73.9799 29.4665C73.9799 28.2392 74.9794 27.2396 76.2068 27.2396C77.4341 27.2396 78.4337 28.2392 78.4337 29.4665V36.1473C78.4337 37.3747 77.4341 38.3742 76.2068 38.3742C74.9794 38.3742 73.9799 37.3747 73.9799 36.1473V29.4665ZM56.177 29.4665C56.177 28.2392 57.1766 27.2396 58.404 27.2396C59.6313 27.2396 60.6309 28.2392 60.6309 29.4665V36.1473C60.6309 37.3747 59.6313 38.3742 58.404 38.3742C57.1766 38.3742 56.177 37.3747 56.177 36.1473V29.4665ZM38.3742 29.4665C38.3742 28.2392 39.3738 27.2396 40.6012 27.2396C41.8285 27.2396 42.8281 28.2392 42.8281 29.4665V36.1473C42.8281 37.3747 41.8285 38.3742 40.6012 38.3742C39.3738 38.3742 38.3742 37.3747 38.3742 36.1473V29.4665ZM89.5557 45.0424H27.2522V37.2481C27.2522 35.4008 28.7453 33.9204 30.5926 33.9077H36.16V36.1347C36.16 38.5893 38.1465 40.5885 40.6138 40.5885C43.0812 40.5885 45.0677 38.602 45.0677 36.1347V33.9077H53.9628V36.1347C53.9628 38.5893 55.9493 40.5885 58.4166 40.5885C60.884 40.5885 62.8705 38.602 62.8705 36.1347V33.9077H71.7656V36.1347C71.7656 38.5893 73.7521 40.5885 76.2194 40.5885C78.6868 40.5885 80.6733 38.602 80.6733 36.1347V33.9077H86.2406C88.088 33.9077 89.5684 35.4008 89.581 37.2481V45.0424H89.5557Z" fill="#008FD5"/>
<path d="M56.1773 55.0509C56.1773 53.8236 55.1777 52.824 53.9503 52.824H49.4965C48.2691 52.824 47.2695 53.8236 47.2695 55.0509V58.3913C47.2695 59.6186 48.2691 60.6182 49.4965 60.6182H53.9503C55.1777 60.6182 56.1773 59.6186 56.1773 58.3913V55.0509ZM49.5091 58.3913V55.0509H53.963V58.3913H49.5091Z" fill="#008FD5"/>
<path d="M42.8279 55.0509C42.8279 53.8236 41.8283 52.824 40.601 52.824H36.1471C34.9198 52.824 33.9202 53.8236 33.9202 55.0509V58.3913C33.9202 59.6186 34.9198 60.6182 36.1471 60.6182H40.601C41.8283 60.6182 42.8279 59.6186 42.8279 58.3913V55.0509ZM36.1471 58.3913V55.0509H40.601V58.3913H36.1471Z" fill="#008FD5"/>
<path d="M80.6605 60.6182C81.8879 60.6182 82.8875 59.6186 82.8875 58.3913V55.0509C82.8875 53.8236 81.8879 52.824 80.6605 52.824H76.2067C74.9793 52.824 73.9797 53.8236 73.9797 55.0509V58.3913C73.9797 59.6186 74.9793 60.6182 76.2067 60.6182H80.6605ZM76.2067 55.0509H80.6605V58.3913H76.2067V55.0509Z" fill="#008FD5"/>
<path d="M56.1773 65.0595C56.1773 63.8321 55.1777 62.8325 53.9503 62.8325H49.4965C48.2691 62.8325 47.2695 63.8321 47.2695 65.0595V68.3999C47.2695 69.6272 48.2691 70.6268 49.4965 70.6268H53.9503C55.1777 70.6268 56.1773 69.6272 56.1773 68.3999V65.0595ZM49.5091 68.3999V65.0595H53.963V68.3999H49.5091Z" fill="#008FD5"/>
<path d="M42.8279 65.0595C42.8279 63.8321 41.8283 62.8325 40.601 62.8325H36.1471C34.9198 62.8325 33.9202 63.8321 33.9202 65.0595V68.3999C33.9202 69.6272 34.9198 70.6268 36.1471 70.6268H40.601C41.8283 70.6268 42.8279 69.6272 42.8279 68.3999V65.0595ZM36.1471 68.3999V65.0595H40.601V68.3999H36.1471Z" fill="#008FD5"/>
<path d="M53.9503 72.8536H49.4965C48.2691 72.8536 47.2695 73.8532 47.2695 75.0806V78.421C47.2695 79.6483 48.2691 80.6479 49.4965 80.6479H53.9503C55.1777 80.6479 56.1773 79.6483 56.1773 78.421V75.0806C56.1773 73.8532 55.1777 72.8536 53.9503 72.8536ZM49.5091 78.421V75.0806H53.963V78.421H49.5091Z" fill="#008FD5"/>
<path d="M62.858 60.6182H67.3119C68.5392 60.6182 69.5388 59.6186 69.5388 58.3913V55.0509C69.5388 53.8236 68.5392 52.824 67.3119 52.824H62.858C61.6307 52.824 60.6311 53.8236 60.6311 55.0509V58.3913C60.6311 59.6186 61.6307 60.6182 62.858 60.6182ZM62.858 55.0509H67.3119V58.3913H62.858V55.0509Z" fill="#008FD5"/>
<path d="M60.6311 68.3999C60.6311 69.6272 61.6307 70.6268 62.858 70.6268C63.478 70.6268 63.9715 70.1333 63.9715 69.5133C63.9715 68.8933 63.478 68.3999 62.858 68.3999V65.0595H67.3119C67.9319 65.0595 68.4254 64.566 68.4254 63.946C68.4254 63.326 67.9319 62.8325 67.3119 62.8325H62.858C61.6307 62.8325 60.6311 63.8321 60.6311 65.0595V68.3999Z" fill="#008FD5"/>
<path d="M40.601 72.8536H36.1471C34.9198 72.8536 33.9202 73.8532 33.9202 75.0806V78.421C33.9202 79.6483 34.9198 80.6479 36.1471 80.6479H40.601C41.8283 80.6479 42.8279 79.6483 42.8279 78.421V75.0806C42.8279 73.8532 41.8283 72.8536 40.601 72.8536ZM36.1471 78.421V75.0806H40.601V78.421H36.1471Z" fill="#008FD5"/>
<path d="M77.3201 62.8452C69.336 62.8452 62.8577 69.3236 62.8577 77.3076C62.8577 85.2917 69.336 91.77 77.3201 91.77C85.3041 91.77 91.7825 85.2917 91.7825 77.3076C91.7825 69.3236 85.3041 62.8579 77.3201 62.8452ZM77.3201 89.5431C70.5634 89.5431 65.0846 84.0643 65.0846 77.3076C65.0846 70.5509 70.5634 65.0721 77.3201 65.0721C84.0768 65.0721 89.5555 70.5509 89.5555 77.3076C89.5555 84.0643 84.0768 89.5431 77.3201 89.5431Z" fill="#008FD5"/>
<path d="M83.7483 72.6386L75.0936 81.2933L71.1585 77.3582C70.7157 76.928 70.0071 76.9406 69.5895 77.3835C69.172 77.8137 69.172 78.497 69.5895 78.9272L74.3091 83.6467C74.7393 84.0769 75.4479 84.0769 75.8781 83.6467L85.3172 74.2076C85.7474 73.7647 85.7348 73.0562 85.2919 72.6386C84.8617 72.2211 84.1785 72.2211 83.7483 72.6386Z" fill="#008FD5"/>
</svg>
