<svg width="22" height="22" viewBox="0 0 22 22" fill="none" xmlns="http://www.w3.org/2000/svg">
<path fill-rule="evenodd" clip-rule="evenodd" d="M11 1C16.5192 1 21 5.48083 21 11C21 16.5192 16.5192 21 11 21C5.48083 21 1 16.5192 1 11C1 5.48083 5.48083 1 11 1ZM11 1.83333C16.0592 1.83333 20.1667 5.94083 20.1667 11C20.1667 16.0592 16.0592 20.1667 11 20.1667C5.94083 20.1667 1.83333 16.0592 1.83333 11C1.83333 5.94083 5.94083 1.83333 11 1.83333ZM11 11H16V11.8333H10.1667V4.33333H11V11Z" fill="#666666" stroke="#666666" stroke-width="0.6"/>
</svg>
