<svg width="22" height="19" viewBox="0 0 22 19" fill="none" xmlns="http://www.w3.org/2000/svg">
<path d="M20.7296 4.89659C20.8154 4.97932 20.8788 5.15018 20.9522 5.25378C20.9955 9.38694 21.0434 13.5564 20.9283 17.6834C20.8076 18.0313 20.527 18.1612 20.2007 18.2702C14.1981 18.3955 8.1708 18.2841 2.15893 18.3267C1.66799 18.3313 1.16081 18.1241 1 17.6301L1.00619 5.1842C1.17164 4.93061 1.351 4.75511 1.65407 4.67238C7.8801 4.62986 14.1316 4.59198 20.3554 4.69171C20.4775 4.7497 20.6329 4.80459 20.7296 4.89736V4.89659ZM20.0593 5.56612H1.89065V8.85193C1.94863 8.92616 2.02208 8.97796 2.0963 9.03285C2.36226 9.2269 4.10954 10.232 4.36854 10.317C4.46904 10.3503 4.52857 10.3549 4.62986 10.365C5.98516 10.4941 7.54843 10.2583 8.92615 10.3603C8.93079 9.84541 8.78621 9.41246 9.42327 9.34983C10.4593 9.24855 11.68 9.42096 12.7361 9.37071C13.2031 9.50523 12.9565 10.2938 13.023 10.3595C13.1776 10.5134 16.86 10.2451 17.3865 10.3541C18.3104 9.93045 19.2049 9.40472 20.0585 8.85116V5.56535L20.0593 5.56612ZM8.92615 11.2873H4.17139L1.89065 9.97298V17.395H20.0593V9.97298L17.7785 11.2873H13.0238C12.9835 11.6932 13.1892 12.2182 12.7369 12.4308C11.6808 12.3813 10.46 12.5529 9.42405 12.4516C8.72127 12.3828 8.96094 11.8239 8.92615 11.2873ZM12.096 10.2049H9.85391V11.5192H12.096V10.2049Z" fill="#666666" stroke="#666666" stroke-width="0.6"/>
<path d="M8.23038 3.44C8.16621 3.79719 7.43328 3.86677 7.31886 3.34646C7.25624 3.0604 7.25856 1.74143 7.30726 1.43527C7.33742 1.24508 7.42246 1.10515 7.60724 1.03943L14.0722 1C14.3118 1.00232 14.5809 1.11829 14.6288 1.36724C14.6907 1.68886 14.6961 2.95448 14.6427 3.28151C14.5337 3.94795 13.7196 3.73302 13.7196 3.44078V1.93317H8.23038C8.17394 2.38777 8.30692 3.01014 8.23038 3.44078V3.44Z" fill="#666666" stroke="#666666" stroke-width="0.6"/>
</svg>
