<svg width="22" height="30" viewBox="0 0 22 30" fill="none" xmlns="http://www.w3.org/2000/svg">
<path d="M11 1.5653C16.2022 1.5653 20.4347 5.7975 20.4347 11C20.4347 13.2279 19.6385 15.3931 18.1933 17.0966L11 25.5685L3.80673 17.0966C2.36117 15.3931 1.5653 13.2279 1.5653 11C1.5653 5.79782 5.79782 1.5653 11 1.5653ZM11 15.3338C13.5793 15.3338 15.678 13.2355 15.678 10.6559C15.678 8.07658 13.5796 5.97788 11 5.97788C8.4204 5.97788 6.32202 8.07626 6.32202 10.6559C6.32202 13.2352 8.42071 15.3338 11 15.3338ZM11 1C5.47721 1 1 5.47721 1 11C1 13.4657 1.89657 15.7191 3.37569 17.4623L11 26.4419L18.6243 17.4623C20.1037 15.7188 21 13.4654 21 11C21 5.47721 16.5228 1 11 1ZM11 14.7682C8.72877 14.7682 6.88732 12.9271 6.88732 10.6556C6.88732 8.38432 8.72846 6.54287 11 6.54287C13.2715 6.54287 15.1127 8.38401 15.1127 10.6556C15.1127 12.9271 13.2712 14.7682 11 14.7682Z" fill="#666666" stroke="#666666"/>
<path d="M15.3335 23.4397L14.8395 23.9338C17.905 24.4144 19.7279 25.4104 19.7279 26.1592C19.7279 27.1822 16.328 28.6679 11 28.6679C5.67203 28.6679 2.27208 27.1822 2.27208 26.1592C2.27208 25.4104 4.09503 24.4144 7.16056 23.9338L6.66648 23.4397C3.71733 23.9551 1.70679 24.9791 1.70679 26.1592C1.70679 27.857 5.86747 29.2336 11.0003 29.2336C16.1329 29.2336 20.2939 27.857 20.2939 26.1592C20.2935 24.9794 18.2827 23.9551 15.3335 23.4397Z" fill="#666666" stroke="#666666"/>
</svg>
