<svg width="22" height="22" viewBox="0 0 22 22" fill="none" xmlns="http://www.w3.org/2000/svg">
<path d="M21.6863 20.1652L15.3119 13.793C16.4355 12.3449 17.1059 10.5273 17.1059 8.55293C17.1059 3.82852 13.2773 0 8.55293 0C3.82852 0 0 3.82852 0 8.55293C0 13.2773 3.82852 17.1059 8.55293 17.1059C10.5273 17.1059 12.3449 16.4355 13.793 15.3119L20.1652 21.6842C20.5842 22.1031 21.2652 22.1031 21.6842 21.6842C22.1053 21.2652 22.1053 20.5863 21.6863 20.1652ZM11.0451 14.4547C10.2566 14.7877 9.41875 14.9574 8.55293 14.9574C7.68711 14.9574 6.84922 14.7877 6.06074 14.4547C5.29805 14.1324 4.6127 13.6705 4.02402 13.0818C3.43535 12.4932 2.97344 11.8078 2.65117 11.0451C2.31816 10.2566 2.14844 9.41875 2.14844 8.55293C2.14844 7.68711 2.31816 6.84922 2.65117 6.06074C2.97344 5.29805 3.43535 4.6127 4.02402 4.02402C4.6127 3.43535 5.29805 2.97344 6.06074 2.65117C6.84922 2.31816 7.68711 2.14844 8.55293 2.14844C9.41875 2.14844 10.2566 2.31816 11.0451 2.65117C11.8078 2.97344 12.4932 3.43535 13.0818 4.02402C13.6705 4.6127 14.1324 5.29805 14.4547 6.06074C14.7877 6.84922 14.9574 7.68711 14.9574 8.55293C14.9574 9.41875 14.7877 10.2566 14.4547 11.0451C14.1324 11.8078 13.6705 12.4932 13.0818 13.0818C12.4932 13.6705 11.8078 14.1324 11.0451 14.4547Z" fill="#828282"/>
</svg>
