<svg width="25" height="45" viewBox="0 0 25 45" fill="none" xmlns="http://www.w3.org/2000/svg">
<path d="M0.610277 21.0531L21.4437 0.599096C22.2571 -0.199721 23.5763 -0.199721 24.3899 0.599232C25.2034 1.39805 25.2034 2.69309 24.3898 3.49191L5.02959 22.4996L24.3899 41.5083C25.2034 42.3071 25.2034 43.6021 24.3898 44.401C23.9831 44.8004 23.4499 45 22.9167 45C22.3835 45 21.8503 44.8004 21.4435 44.4008L0.610277 23.9458C0.219442 23.5622 -1.90735e-06 23.0419 -1.90735e-06 22.4995C-1.90735e-06 21.957 0.219442 21.4367 0.610277 21.0531Z" fill="black"/>
<path d="M0.610277 21.0531L21.4437 0.599096C22.2571 -0.199721 23.5763 -0.199721 24.3899 0.599232C25.2034 1.39805 25.2034 2.69309 24.3898 3.49191L5.02959 22.4996L24.3899 41.5083C25.2034 42.3071 25.2034 43.6021 24.3898 44.401C23.9831 44.8004 23.4499 45 22.9167 45C22.3835 45 21.8503 44.8004 21.4435 44.4008L0.610277 23.9458C0.219442 23.5622 -1.90735e-06 23.0419 -1.90735e-06 22.4995C-1.90735e-06 21.957 0.219442 21.4367 0.610277 21.0531Z" fill="black"/>
</svg>
