<svg width="142" height="142" viewBox="0 0 142 142" fill="none" xmlns="http://www.w3.org/2000/svg">
<circle cx="71" cy="71" r="71" fill="#008FD5" fill-opacity="0.1"/>
<path d="M99.4166 60.8115V46.375C99.4166 41.7485 95.6682 38 91.0416 38H51.9584C47.3318 38 43.5834 41.7485 43.5834 46.375V60.8115C40.3303 61.961 38 65.0609 38 68.7084V79.875V99.4166C38 102.499 40.5006 105 43.5834 105H49.1668C52.2494 105 54.75 102.499 54.75 99.4166V96.625H88.25V99.4166C88.25 102.499 90.7506 105 93.8334 105H99.4168C102.499 105 105 102.499 105 99.4166V79.875V68.7084C105 65.0609 102.67 61.961 99.4166 60.8115ZM49.1666 46.375C49.1666 44.832 50.4153 43.5834 51.9582 43.5834H91.0416C92.5846 43.5834 93.8332 44.832 93.8332 46.375V60.3334H88.0184C86.689 52.4122 79.7984 46.375 71.5 46.375C63.2016 46.375 56.311 52.4122 54.9816 60.3334H49.1666V46.375ZM82.3146 60.3334H60.6854C61.9254 55.5178 66.2979 51.9584 71.5 51.9584C76.7021 51.9584 81.0747 55.5178 82.3146 60.3334ZM43.5834 68.7084C43.5834 67.1654 44.832 65.9168 46.375 65.9168H57.5416H85.4582H96.625C98.168 65.9168 99.4166 67.1654 99.4166 68.7084V77.0834H43.5834V68.7084ZM93.8334 99.4166V93.8332C93.8334 92.2915 92.5835 91.0416 91.0418 91.0416H51.9584C50.4166 91.0416 49.1668 92.2915 49.1668 93.8332V99.4166H43.5834V82.6666H99.4168V99.4166H93.8334Z" fill="#666666"/>
</svg>
