<svg width="142" height="142" viewBox="0 0 142 142" fill="none" xmlns="http://www.w3.org/2000/svg">
<circle cx="71" cy="71" r="71" fill="white"/>
<path d="M66.7301 76.4316H76.8058V69.7142H83.5232V59.6381H76.8058V52.9211H66.7301V59.6385H60.0127V69.7142H66.7301V76.4316ZM63.3714 66.3555V62.9968H70.0888V56.2798H73.4475V62.9972H80.1645V66.3555H73.4471V73.0729H70.0884V66.3555H63.3714Z" fill="#666666"/>
<path d="M44.8988 79.7898H33.1436V83.1485H44.8988V79.7898Z" fill="#666666"/>
<path d="M44.8988 86.5073H33.1436V89.866H44.8988V86.5073Z" fill="#666666"/>
<path d="M44.8988 93.2242H33.1436V96.5829H44.8988V93.2242Z" fill="#666666"/>
<path d="M108.713 79.7898H96.958V83.1485H108.713V79.7898Z" fill="#666666"/>
<path d="M108.713 86.5073H96.958V89.866H108.713V86.5073Z" fill="#666666"/>
<path d="M108.713 93.2242H96.958V96.5829H108.713V93.2242Z" fill="#666666"/>
<path d="M115.43 104.98V73.0728H93.5991V36.1279H101.996V32.7692H93.5991H48.2577H39.8611V36.1279H48.2577V73.0728H26.4267V104.98H23.2114V108.339H26.4267H48.2577H51.6164H61.6921H80.1643H90.24H93.5987H115.43H118.788V104.98H115.43ZM48.2577 104.979H29.7854V76.4311H48.2577V104.979ZM76.806 104.979H65.0508V91.5451H76.806V104.979ZM90.2404 73.0728V104.98H80.1647V104.979V88.1864H61.6921V104.979H51.6164V73.0728V36.1279H90.2404V73.0728ZM112.071 104.979H93.5991V76.4311H112.071V104.979Z" fill="#666666"/>
</svg>
