<svg width="19" height="19" viewBox="0 0 19 19" fill="none" xmlns="http://www.w3.org/2000/svg">
<g clip-path="url(#clip0_356_5)">
<path d="M9.4735 6.38529L1.47016 14.3885C1.13383 14.7248 0.588572 14.7248 0.252241 14.3885C-0.0840904 14.0521 -0.0840904 13.5069 0.252298 13.1705L8.86463 4.55843C9.02608 4.39687 9.24511 4.30615 9.4735 4.30615C9.70195 4.30615 9.92099 4.39692 10.0825 4.55843L18.6944 13.1705C18.8625 13.3386 18.9466 13.5591 18.9466 13.7795C18.9466 13.9999 18.8625 14.2203 18.6943 14.3885C18.358 14.7248 17.8127 14.7248 17.4764 14.3885L9.4735 6.38529Z" fill="#666666"/>
</g>
<defs>
<clipPath id="clip0_356_5">
<rect width="18.9466" height="18.9466" fill="white" transform="matrix(-4.37114e-08 1 1 4.37114e-08 0 0)"/>
</clipPath>
</defs>
</svg>
