<svg width="70" height="70" viewBox="0 0 70 70" fill="none" xmlns="http://www.w3.org/2000/svg">
<path d="M66.72 17.66C66.9678 17.9083 67.2833 18.0779 67.6271 18.1474C67.9709 18.217 68.3276 18.1834 68.6524 18.051C68.9771 17.9185 69.2556 17.693 69.4526 17.4028C69.6497 17.1127 69.7566 16.7708 69.76 16.42C69.7544 15.9489 69.5683 15.498 69.24 15.16L54.84 0.760013C54.5069 0.431458 54.0579 0.247253 53.59 0.247253C53.1221 0.247253 52.6731 0.431458 52.34 0.760013C52.1739 0.924908 52.0424 1.12128 51.9531 1.33763C51.8638 1.55398 51.8186 1.78597 51.82 2.02001C51.8166 2.25137 51.8611 2.48093 51.9505 2.6943C52.04 2.90768 52.1726 3.10028 52.34 3.26001L54.68 5.62001L54.5 5.80001L42.2 18.1L42.02 17.92L35 11C34.7538 10.7475 34.4374 10.5747 34.0919 10.5041C33.7463 10.4336 33.3875 10.4684 33.062 10.6042C32.7365 10.74 32.4594 10.9705 32.2664 11.2657C32.0735 11.561 31.9737 11.9074 31.98 12.26C31.9792 12.7226 32.1585 13.1674 32.48 13.5L36.1 17L35.92 17.18L16.18 37C15.1127 38.0602 14.5026 39.4958 14.48 41C14.4773 41.647 14.5855 42.2896 14.8 42.9V43.04L10.42 47.42C9.58586 48.2561 9.1174 49.389 9.1174 50.57C9.1174 51.7511 9.58586 52.8839 10.42 53.72L12.06 55.36L11.9 55.54L0.760013 66.74C0.431458 67.0731 0.247253 67.5221 0.247253 67.99C0.247253 68.4579 0.431458 68.9069 0.760013 69.24C1.0979 69.5593 1.54514 69.7372 2.01001 69.7372C2.47488 69.7372 2.92213 69.5593 3.26001 69.24L14.62 57.9L16.26 59.54C17.0961 60.3742 18.229 60.8426 19.41 60.8426C20.5911 60.8426 21.7239 60.3742 22.56 59.54L27 55.16H27.14C27.7528 55.365 28.3939 55.473 29.04 55.48C30.5246 55.4578 31.9433 54.8631 33 53.82L53 33.82L56.56 37.36C56.8919 37.5564 57.2791 37.6384 57.6621 37.5933C58.0451 37.5482 58.4027 37.3785 58.6799 37.1104C58.9571 36.8423 59.1386 36.4906 59.1964 36.1093C59.2542 35.728 59.1852 35.3383 59 35L51.9 27.8L64.38 15.32L66.72 17.66ZM20.06 57C19.8813 57.1678 19.6451 57.2608 19.4 57.26C19.2801 57.2584 19.1616 57.2327 19.0517 57.1846C18.9418 57.1366 18.8426 57.067 18.76 56.98L13 51.24C12.8335 51.0686 12.7403 50.839 12.74 50.6C12.7412 50.3553 12.834 50.1198 13 49.94L17 45.94L17.18 46.12L24.08 53L20.06 57ZM50.32 31.58L30.58 51.32C30.3698 51.5298 30.1202 51.696 29.8457 51.8092C29.5712 51.9225 29.277 51.9805 28.98 51.98C28.375 51.9777 27.7944 51.7412 27.36 51.32L18.68 42.64C18.2586 42.2101 18.0225 41.632 18.0225 41.03C18.0225 40.428 18.2586 39.8499 18.68 39.42L24.2 33.9L27.76 37.44C28.0954 37.7081 28.5172 37.8444 28.946 37.8232C29.3748 37.802 29.7811 37.6248 30.0884 37.3249C30.3956 37.025 30.5827 36.6231 30.6143 36.1949C30.6459 35.7668 30.5199 35.3418 30.26 35L26.7 31.4L26.88 31.22L31.4 26.7L35 30.26C35.3379 30.5793 35.7851 30.7572 36.25 30.7572C36.7149 30.7572 37.1621 30.5793 37.5 30.26C37.8286 29.9269 38.0128 29.4779 38.0128 29.01C38.0128 28.5421 37.8286 28.0931 37.5 27.76L33.9 24.2L38.6 19.52L38.78 19.68L50.48 31.4L50.32 31.58ZM61.7 13L49.4 25.3L49.22 25.12L44.7 20.6L44.88 20.44L57.18 8.12001L57.36 8.30001L61.88 12.82L61.7 13Z" fill="#008FD5"/>
</svg>
