<svg width="21" height="21" viewBox="0 0 21 21" fill="none" xmlns="http://www.w3.org/2000/svg">
<path d="M19.8429 10.0465C19.8429 15.457 15.457 19.8429 10.0465 19.8429C4.63592 19.8429 0.25 15.457 0.25 10.0465C0.25 4.63592 4.63592 0.25 10.0465 0.25C15.457 0.25 19.8429 4.63592 19.8429 10.0465Z" stroke="#666666" stroke-width="0.5"/>
<path d="M13.0233 9.26675L12.8559 10.6108C12.8276 10.8353 12.6375 11.0042 12.4119 11.0042H10.2351V16.6236C10.0055 16.6443 9.77289 16.6549 9.53776 16.6549C9.01187 16.6549 8.49863 16.6024 8.00257 16.5022V11.0042H6.32833C6.17461 11.0042 6.04921 10.8783 6.04921 10.7241V9.04224C6.04921 8.88801 6.17461 8.7621 6.32833 8.7621H8.00257V6.23987C8.00257 4.69204 9.25206 3.4375 10.7938 3.4375H12.7472C12.9009 3.4375 13.0263 3.56341 13.0263 3.71763V5.39946C13.0263 5.55369 12.9009 5.6796 12.7472 5.6796H11.3516C10.7352 5.6796 10.2356 6.18121 10.2356 6.80064V8.76261H12.5798C12.8488 8.76261 13.0566 8.99926 13.0238 9.26726L13.0233 9.26675Z" fill="#666666"/>
</svg>
