<svg width="68" height="72" viewBox="0 0 68 72" fill="none" xmlns="http://www.w3.org/2000/svg">
<path d="M67.86 44.14C67.8596 42.2341 67.3145 40.368 66.2891 38.7615C65.2636 37.155 63.8003 35.875 62.0717 35.0723C60.3431 34.2696 58.4211 33.9776 56.5321 34.2307C54.6431 34.4838 52.8657 35.2714 51.4094 36.5008C49.953 37.7303 48.8783 39.3503 48.3119 41.17C47.7454 42.9898 47.7108 44.9336 48.2121 46.7723C48.7134 48.6111 49.7297 50.2684 51.1413 51.5489C52.553 52.8294 54.3012 53.6798 56.18 54C55.8937 56.5606 55.0763 59.0333 53.78 61.26C50.44 67 43.36 67.82 39.46 67.82C38.2 67.82 37.2 67.82 36.72 67.7C30.14 67.04 26.34 65.12 23.98 61.32C22.2968 58.1736 21.4498 54.6477 21.52 51.08C23.566 49.3148 24.943 46.8998 25.42 44.24C25.4328 43.6933 25.5647 43.156 25.8065 42.6655C26.0483 42.1749 26.3941 41.7431 26.82 41.4C36.72 32.2 39.46 10.3 39.6 9.40001C39.7143 8.62231 39.597 7.82817 39.2626 7.11677C38.9283 6.40537 38.3917 5.80826 37.72 5.40001C37.003 4.9286 36.2389 4.53313 35.44 4.22001C35.1873 4.09631 34.9267 3.98941 34.66 3.90001C34.4589 3.07492 33.9871 2.341 33.3201 1.81536C32.6531 1.28972 31.8292 1.00266 30.98 1.00001C30.0758 1.18362 29.2628 1.67419 28.6789 2.3886C28.095 3.10301 27.776 3.99732 27.776 4.92001C27.776 5.84269 28.095 6.737 28.6789 7.45141C29.2628 8.16582 30.0758 8.65639 30.98 8.84001C31.5051 8.85019 32.0264 8.74844 32.5092 8.54154C32.992 8.33463 33.4252 8.02731 33.78 7.64001C33.96 7.48001 34 7.26001 34.14 7.08001C34.7991 7.35648 35.4289 7.69818 36.02 8.10001C36.1569 8.18541 36.267 8.30759 36.3377 8.45259C36.4084 8.59759 36.4369 8.75957 36.42 8.92001C35.52 16.8 32 31.76 25.2 38.5H24.86H14.62C7.73999 31.58 4.29999 16.74 3.31999 8.92001C3.27541 8.74401 3.2905 8.5582 3.36289 8.3917C3.43528 8.2252 3.56088 8.08744 3.71999 8.00001C4.31245 7.606 4.94213 7.27106 5.59999 7.00001C5.93907 7.53583 6.40883 7.97664 6.9651 8.28102C7.52137 8.58539 8.1459 8.74334 8.77999 8.74001C9.31055 8.75962 9.83945 8.66958 10.3336 8.4755C10.8278 8.28143 11.2766 7.98749 11.6521 7.61207C12.0275 7.23666 12.3214 6.78783 12.5155 6.29365C12.7096 5.79947 12.7996 5.27057 12.78 4.74001C12.7286 3.71418 12.2846 2.74742 11.54 2.04C10.7953 1.33258 9.8071 0.938721 8.77999 0.940006C7.94719 0.971038 7.14487 1.26142 6.48511 1.77058C5.82535 2.27974 5.3411 2.98226 5.09999 3.78001C4.83324 3.86941 4.57268 3.97631 4.31999 4.10001C3.51049 4.44179 2.73393 4.85685 1.99999 5.34001C1.33562 5.75363 0.807173 6.35307 0.480115 7.06406C0.153057 7.77506 0.0417543 8.56638 0.159991 9.34001V9.52001C1.11999 16.48 4.39999 33.52 12.98 41.52C13.3975 41.8981 13.7334 42.3574 13.9673 42.8698C14.2011 43.3822 14.3279 43.9369 14.34 44.5C14.8081 47.1922 16.2276 49.6266 18.34 51.36C18.2651 55.4898 19.2791 59.5665 21.28 63.18C24.16 67.82 28.8 70.26 36.32 71C37.3817 71.1286 38.4506 71.1887 39.52 71.18C47.22 71.18 53.38 68.24 56.44 63.18C58.094 60.3783 59.0986 57.2413 59.38 54C61.7369 53.6375 63.8868 52.4447 65.4417 50.6368C66.9967 48.8288 67.8543 46.5247 67.86 44.14ZM64.72 44.14C64.72 45.5087 64.3141 46.8466 63.5538 47.9846C62.7934 49.1225 61.7126 50.0095 60.4482 50.5332C59.1837 51.057 57.7923 51.194 56.45 50.927C55.1076 50.66 53.8746 50.001 52.9068 49.0332C51.939 48.0654 51.28 46.8324 51.013 45.49C50.7459 44.1477 50.883 42.7563 51.4067 41.4918C51.9305 40.2274 52.8175 39.1466 53.9554 38.3862C55.0934 37.6259 56.4313 37.22 57.8 37.22C58.7114 37.2226 59.6133 37.4047 60.4543 37.7559C61.2953 38.1071 62.0589 38.6205 62.7015 39.2668C63.344 39.9131 63.853 40.6796 64.1994 41.5227C64.5457 42.3657 64.7226 43.2686 64.72 44.18V44.14ZM20 48.34C18.7026 47.0656 17.8416 45.4134 17.54 43.62V43.44C17.54 43.04 17.32 42.52 17.2 42H22.8C22.62 42.64 22.5 43.26 22.36 43.88C22.0024 45.5568 21.1852 47.1011 20 48.34ZM57.8 40C57.0089 40 56.2355 40.2346 55.5777 40.6741C54.9199 41.1137 54.4072 41.7384 54.1045 42.4693C53.8017 43.2002 53.7225 44.0044 53.8769 44.7804C54.0312 45.5563 54.4122 46.269 54.9716 46.8284C55.531 47.3878 56.2437 47.7688 57.0196 47.9231C57.7956 48.0775 58.5998 47.9983 59.3307 47.6955C60.0616 47.3928 60.6863 46.8801 61.1259 46.2223C61.5654 45.5645 61.8 44.7911 61.8 44C61.8 42.9391 61.3786 41.9217 60.6284 41.1716C59.8783 40.4214 58.8609 40 57.8 40ZM57.8 45.56C57.4346 45.5176 57.0975 45.3424 56.8528 45.0677C56.6081 44.7929 56.4729 44.4379 56.4729 44.07C56.4729 43.7021 56.6081 43.3471 56.8528 43.0723C57.0975 42.7976 57.4346 42.6224 57.8 42.58C58.1654 42.6224 58.5025 42.7976 58.7472 43.0723C58.9919 43.3471 59.1271 43.7021 59.1271 44.07C59.1271 44.4379 58.9919 44.7929 58.7472 45.0677C58.5025 45.3424 58.1654 45.5176 57.8 45.56Z" fill="#008FD5"/>
</svg>
