<svg width="66" height="66" viewBox="0 0 66 66" fill="none" xmlns="http://www.w3.org/2000/svg">
<path d="M32.5875 2.09003C41.6212 3.91878 50.545 6.64128 59.5375 8.85503C60.17 8.96503 60.4587 9.51503 60.4725 10.1063C60.06 19.5525 61.0087 29.4525 60.4725 38.8575C59.8125 50.2975 50.4212 58.1075 40.3975 61.8338C38.775 62.4388 34.65 63.91 33.0825 63.9375C31.5975 63.965 27.1975 62.4113 25.6437 61.8338C15.565 58.0938 6.18747 50.2288 5.55497 38.7338C5.04622 29.3563 5.95372 19.525 5.55497 10.1063C5.52747 8.69003 7.50747 8.58003 8.62122 8.27753C16.5825 6.09128 24.64 4.26253 32.5875 2.09003ZM58.2587 10.7113L33.0687 4.24878L7.74122 10.7113V39.875C9.11622 51.4663 19.69 58.135 30.03 61.0363C32.285 61.6688 32.615 61.9025 34.9525 61.325C45.65 58.6713 57.1725 51.535 58.2587 39.5175V10.7113Z" fill="#008FD5"/>
<path d="M27.1975 17.985C27.3212 17.435 28.1875 17.3112 28.6687 17.27C30.9787 17.105 35.31 17.05 37.565 17.27C37.9087 17.3112 38.7887 17.5862 38.7887 17.985V26.0425H46.8462C47.0937 26.0425 47.63 26.8262 47.5612 27.1287C47.3412 30.1675 47.8362 33.5637 47.5612 36.5475C47.52 36.96 47.1487 37.7712 46.7225 37.7712H38.7887V45.8287C38.7887 46.09 38.0875 46.3925 37.8262 46.42C34.7462 46.7225 31.1575 46.1725 28.0087 46.42C27.8025 46.53 27.1837 45.8837 27.1837 45.8287V37.7712H19.25C18.81 37.7712 18.4387 36.96 18.4112 36.5475C18.1362 33.5637 18.6312 30.1675 18.4112 27.1287C18.3425 26.8262 18.8787 26.0425 19.1262 26.0425H27.1837V17.985H27.1975ZM36.74 19.47H29.26V27.4037C29.26 27.72 28.4762 28.2425 28.16 28.2425H20.625V35.585H28.4212C28.5862 35.585 29.26 36.135 29.26 36.3V44.3575H36.74V36.3C36.74 36.135 37.4137 35.585 37.5787 35.585H45.375V28.2425H37.84C37.5375 28.2425 36.74 27.72 36.74 27.4037V19.47Z" fill="#008FD5"/>
</svg>
