<svg width="66" height="66" viewBox="0 0 66 66" fill="none" xmlns="http://www.w3.org/2000/svg">
<path d="M32.5875 2.08997C41.6213 3.91872 50.545 6.64122 59.5375 8.85497C60.17 8.96497 60.4588 9.51497 60.4725 10.1062C60.06 19.5525 61.0088 29.4525 60.4725 38.8575C59.8125 50.2975 50.4213 58.1075 40.3975 61.8337C38.775 62.4387 34.65 63.91 33.0825 63.9375C31.5975 63.965 27.1975 62.4112 25.6438 61.8337C15.565 58.0937 6.18753 50.2287 5.55503 38.7337C5.04628 29.3562 5.95378 19.525 5.55503 10.1062C5.52753 8.68997 7.50753 8.57997 8.62128 8.27747C16.5825 6.09122 24.64 4.26247 32.5875 2.08997ZM58.2588 10.7112L33.0688 4.24872L7.74128 10.7112V39.875C9.11628 51.4662 19.69 58.135 30.03 61.0362C32.285 61.6687 32.615 61.9025 34.9525 61.325C45.65 58.6712 57.1725 51.535 58.2588 39.5175V10.7112Z" fill="#828282"/>
<path d="M27.1976 17.9849C27.3213 17.4349 28.1876 17.3112 28.6688 17.2699C30.9788 17.1049 35.3101 17.0499 37.5651 17.2699C37.9088 17.3112 38.7888 17.5862 38.7888 17.9849V26.0424H46.8463C47.0938 26.0424 47.6301 26.8262 47.5613 27.1287C47.3413 30.1674 47.8363 33.5637 47.5613 36.5474C47.5201 36.9599 47.1488 37.7712 46.7226 37.7712H38.7888V45.8287C38.7888 46.0899 38.0876 46.3924 37.8263 46.4199C34.7463 46.7224 31.1576 46.1724 28.0088 46.4199C27.8026 46.5299 27.1838 45.8837 27.1838 45.8287V37.7712H19.2501C18.8101 37.7712 18.4388 36.9599 18.4113 36.5474C18.1363 33.5637 18.6313 30.1674 18.4113 27.1287C18.3426 26.8262 18.8788 26.0424 19.1263 26.0424H27.1838V17.9849H27.1976ZM36.7401 19.4699H29.2601V27.4037C29.2601 27.7199 28.4763 28.2424 28.1601 28.2424H20.6251V35.5849H28.4213C28.5863 35.5849 29.2601 36.1349 29.2601 36.2999V44.3574H36.7401V36.2999C36.7401 36.1349 37.4138 35.5849 37.5788 35.5849H45.3751V28.2424H37.8401C37.5376 28.2424 36.7401 27.7199 36.7401 27.4037V19.4699Z" fill="#828282"/>
</svg>
