<svg width="21" height="21" viewBox="0 0 21 21" fill="none" xmlns="http://www.w3.org/2000/svg">
<path d="M19.8429 10.0465C19.8429 15.457 15.457 19.8429 10.0465 19.8429C4.63592 19.8429 0.25 15.457 0.25 10.0465C0.25 4.63592 4.63592 0.25 10.0465 0.25C15.457 0.25 19.8429 4.63592 19.8429 10.0465Z" stroke="#666666" stroke-width="0.5"/>
<path d="M12.7725 4.77637H7.32096C5.91623 4.77637 4.77698 5.91562 4.77698 7.32034V12.7719C4.77698 14.1766 5.91623 15.3158 7.32096 15.3158H12.7725C14.1772 15.3158 15.3165 14.1766 15.3165 12.7719V7.32034C15.3165 5.91562 14.1772 4.77637 12.7725 4.77637ZM14.4078 12.5898C14.4078 13.5931 13.5937 14.4072 12.5904 14.4072H7.50249C6.49926 14.4072 5.68515 13.5931 5.68515 12.5898V7.50187C5.68515 6.49865 6.49926 5.68453 7.50249 5.68453H12.5904C13.5937 5.68453 14.4078 6.49865 14.4078 7.50187V12.5898Z" fill="#666666"/>
<path d="M10.052 7.32031C8.54768 7.32031 7.32651 8.54148 7.32651 10.0458C7.32651 11.5502 8.54768 12.7713 10.052 12.7713C11.5564 12.7713 12.7775 11.5502 12.7775 10.0458C12.7775 8.54148 11.5564 7.32031 10.052 7.32031ZM10.052 11.8632C9.05081 11.8632 8.23467 11.047 8.23467 10.0458C8.23467 9.04461 9.05081 8.22848 10.052 8.22848C11.0532 8.22848 11.8694 9.04461 11.8694 10.0458C11.8694 11.047 11.0532 11.8632 10.052 11.8632Z" fill="#666666"/>
<path d="M12.9596 7.68395C12.6592 7.68395 12.4145 7.43921 12.4145 7.13885C12.4145 6.83849 12.6592 6.59375 12.9596 6.59375C13.2599 6.59375 13.5047 6.83849 13.5047 7.13885C13.5047 7.43921 13.2599 7.68395 12.9596 7.68395Z" fill="#666666"/>
</svg>
