<svg width="21" height="21" viewBox="0 0 21 21" fill="none" xmlns="http://www.w3.org/2000/svg">
<path d="M19.8429 10.0465C19.8429 15.457 15.457 19.8429 10.0465 19.8429C4.63592 19.8429 0.25 15.457 0.25 10.0465C0.25 4.63592 4.63592 0.25 10.0465 0.25C15.457 0.25 19.8429 4.63592 19.8429 10.0465Z" stroke="#666666" stroke-width="0.5"/>
<path d="M6.48862 7.36092C7.20327 7.36092 7.78261 6.78158 7.78261 6.06693C7.78261 5.35228 7.20327 4.77295 6.48862 4.77295C5.77398 4.77295 5.19464 5.35228 5.19464 6.06693C5.19464 6.78158 5.77398 7.36092 6.48862 7.36092Z" fill="#666666"/>
<path d="M7.47012 8.22314H5.50665C5.45331 8.22314 5.41006 8.26639 5.41006 8.31973V14.596C5.41006 14.6493 5.45331 14.6926 5.50665 14.6926H7.47012C7.52346 14.6926 7.56671 14.6493 7.56671 14.596V8.31973C7.56671 8.26639 7.52346 8.22314 7.47012 8.22314Z" fill="#666666"/>
<path d="M14.8993 10.5953V14.2613C14.8993 14.4985 14.7051 14.6927 14.4679 14.6927H13.174C12.9368 14.6927 12.7426 14.4985 12.7426 14.2613V11.242C12.7426 10.6469 12.2597 10.164 11.6646 10.164C11.0694 10.164 10.5865 10.6469 10.5865 11.242V14.2613C10.5865 14.4985 10.3923 14.6927 10.1552 14.6927H8.86118C8.62403 14.6927 8.42986 14.4985 8.42986 14.2613V8.65406C8.42986 8.4169 8.62403 8.22273 8.86118 8.22273H10.1552C10.3923 8.22273 10.5865 8.4169 10.5865 8.65406V8.93015C11.0178 8.3714 11.7318 8.00732 12.5272 8.00732C13.7175 8.00732 14.8993 8.86998 14.8993 10.5953Z" fill="#666666"/>
</svg>
