<svg width="100" height="80" viewBox="0 0 100 80" fill="none" xmlns="http://www.w3.org/2000/svg">
<path d="M80.74 40.56L90.88 27.04C91.6157 26.0447 92.0087 24.8377 92 23.6C92.026 22.0762 91.4513 20.6034 90.4 19.5C89.428 18.5346 88.1306 17.9668 86.7619 17.9076C85.3933 17.8484 84.0518 18.3022 83 19.18L74 26.82C73.3134 27.4148 72.5774 27.9501 71.8 28.42L70.94 28.86H70.68H64.32C64.1695 28.8285 64.0267 28.7673 63.9 28.68C62.9177 28.1417 62.0156 27.4685 61.22 26.68L53.56 18.82C53.0867 18.3338 52.5207 17.9473 51.8955 17.6834C51.2703 17.4195 50.5986 17.2836 49.92 17.2836C49.2414 17.2836 48.5697 17.4195 47.9445 17.6834C47.3193 17.9473 46.7534 18.3338 46.28 18.82L38.56 26.68C37.9485 27.3145 37.2789 27.8903 36.56 28.4C36.3093 28.5686 36.0489 28.7222 35.78 28.86H35.56H28.98L28.58 28.7C27.5688 28.1496 26.6286 27.478 25.78 26.7L17 19.12C15.959 18.2238 14.6146 17.7598 13.2424 17.823C11.8702 17.8862 10.5742 18.4719 9.62 19.46C8.56981 20.5817 7.98997 22.0635 8 23.6C7.98112 24.8391 8.35961 26.0517 9.08 27.06L18.16 39.54C18.7029 40.2795 19.1845 41.0621 19.6 41.88C19.78 42.24 19.92 42.58 20.02 42.82V43.1C20.02 43.92 20.02 46.18 20.14 48.24L20.86 70.82C20.8823 72.1198 21.356 73.3713 22.2 74.36C22.5999 74.8514 23.1026 75.2493 23.6727 75.5257C24.2428 75.8021 24.8665 75.9504 25.5 75.96H39.1C39.7267 75.9446 40.3426 75.7936 40.9054 75.5174C41.4682 75.2412 41.9644 74.8463 42.36 74.36C43.1896 73.3644 43.6552 72.1158 43.68 70.82L44.38 48.18C44.38 46.18 44.5 43.78 44.5 42.96C44.5266 42.7838 44.5667 42.61 44.62 42.44C44.9956 41.2111 45.4983 40.0247 46.12 38.9L47.28 36.72C47.76 35.84 48.3 34.92 48.78 34.16L49.46 33.16C49.57 32.9927 49.6902 32.8324 49.82 32.68L50.04 32.98C50.6 33.76 51.48 35.14 52.22 36.46L54.22 39.88C54.5939 40.5109 54.8958 41.1818 55.12 41.88C55.2955 42.3628 55.4031 42.8676 55.44 43.38V43.48C55.28 43.94 55.02 44.7 54.72 45.62C54.42 46.54 54.08 47.62 53.78 48.62L51.38 56.42C51.1609 57.0755 50.9806 57.7433 50.84 58.42C50.7061 58.9432 50.6322 59.48 50.62 60.02C50.6115 60.2574 50.6454 60.4945 50.72 60.72C50.7961 60.9537 50.9263 61.1662 51.1 61.34C51.2254 61.4821 51.3832 61.5918 51.56 61.66C51.75 61.7397 51.954 61.7805 52.16 61.78H57.32C57.5024 62.5532 57.5897 63.3457 57.58 64.14V70.72C57.5599 71.9237 57.8787 73.1088 58.5 74.14C58.7957 74.6244 59.1912 75.0402 59.66 75.36C60.162 75.7016 60.7529 75.8893 61.36 75.9H72.84C73.4618 75.9004 74.0713 75.7272 74.6 75.4C75.3743 74.9253 75.9876 74.2284 76.36 73.4C76.7733 72.5532 76.9855 71.6223 76.98 70.68V64.24C76.9751 63.4855 77.0624 62.7333 77.24 62H82.2C82.4059 61.999 82.6096 61.9582 82.8 61.88C83.0795 61.7573 83.3113 61.5466 83.46 61.28C83.582 61.0849 83.6636 60.8673 83.7 60.64C83.7095 60.5068 83.7095 60.3732 83.7 60.24C83.6842 59.7015 83.6172 59.1658 83.5 58.64C83.36 58.02 83.18 57.32 82.96 56.64L79.8 46C79.6621 45.5326 79.5947 45.0473 79.6 44.56C79.6251 43.785 79.7598 43.0173 80 42.28C80.1426 41.6673 80.3932 41.0849 80.74 40.56ZM78.48 38.86C77.9039 39.6594 77.4708 40.5526 77.2 41.5C76.9222 42.4622 76.7808 43.4586 76.78 44.46C76.7773 45.2234 76.8783 45.9837 77.08 46.72L80.28 57.28C80.48 57.94 80.64 58.56 80.74 59.06H76.48C76.0747 59.0627 75.684 59.2119 75.38 59.48C75.21 59.6396 75.062 59.8212 74.94 60.02C74.7877 60.2991 74.6669 60.5942 74.58 60.9C74.2946 61.9898 74.16 63.1136 74.18 64.24V70.82C74.1957 71.4717 74.0145 72.113 73.66 72.66C73.5356 72.8216 73.3872 72.9633 73.22 73.08C73.1121 73.1473 72.9871 73.182 72.86 73.18H68.6V60.94C68.6 60.7545 68.5632 60.5708 68.4916 60.3996C68.42 60.2284 68.315 60.0732 68.1829 59.9429C68.0508 59.8127 67.8941 59.71 67.7219 59.6408C67.5497 59.5716 67.3655 59.5374 67.18 59.54C66.8087 59.54 66.4526 59.6875 66.1901 59.9501C65.9275 60.2126 65.78 60.5687 65.78 60.94V73.18H61.4H61.26C61.0184 72.9766 60.8326 72.7151 60.72 72.42C60.5319 71.9285 60.437 71.4063 60.44 70.88V64.24C60.4489 63.231 60.3415 62.2244 60.12 61.24C60.0175 60.8287 59.8629 60.4322 59.66 60.06C59.5451 59.8278 59.3813 59.6231 59.18 59.46C58.8689 59.2065 58.4813 59.0655 58.08 59.06H53.64C53.76 58.56 53.9 57.94 54.12 57.28L56.52 49.48C56.82 48.5 57.14 47.48 57.44 46.52C57.74 45.56 58 44.84 58.14 44.52C58.2627 44.1872 58.3237 43.8347 58.32 43.48C58.2854 42.6683 58.1304 41.8662 57.86 41.1C57.5642 40.218 57.1824 39.3672 56.72 38.56L54.72 35.14C54.2 34.22 53.62 33.28 53.1 32.5C52.86 32.1 52.62 31.74 52.4 31.44C52.2188 31.1787 52.0182 30.9313 51.8 30.7C51.5647 30.4407 51.2775 30.2337 50.9571 30.0924C50.6367 29.9512 50.2902 29.8788 49.94 29.88C49.5622 29.8925 49.1907 29.9804 48.8472 30.1383C48.5038 30.2963 48.1954 30.5213 47.94 30.8C47.72 31.04 47.52 31.3 47.28 31.62C46.432 32.8642 45.6508 34.1527 44.94 35.48L43.76 37.66C43.257 38.6036 42.816 39.579 42.44 40.58C42.26 41.04 42.12 41.48 42 41.88C41.8883 42.2637 41.8278 42.6605 41.82 43.06C41.82 43.8 41.82 46.14 41.7 48.18L41 70.84C40.9858 71.4966 40.7536 72.1298 40.34 72.64C40.2107 72.8134 40.0455 72.9568 39.8557 73.0604C39.6658 73.1639 39.4558 73.2252 39.24 73.24H33.78V60.94C33.78 60.5634 33.6304 60.2022 33.3641 59.9359C33.0978 59.6696 32.7366 59.52 32.36 59.52C32.1745 59.52 31.9908 59.5569 31.8196 59.6285C31.6484 59.7001 31.4932 59.805 31.3629 59.9371C31.2326 60.0692 31.1299 60.2259 31.0608 60.3981C30.9916 60.5703 30.9573 60.7545 30.96 60.94V73.18H25.6C25.3726 73.1701 25.1502 73.1093 24.9495 73.002C24.7487 72.8947 24.5746 72.7436 24.44 72.56C24.0194 72.0616 23.786 71.4321 23.78 70.78L23.06 48.2C23.06 46.2 22.94 43.82 22.94 43.12C22.9729 42.9012 22.9729 42.6788 22.94 42.46C22.7203 41.6965 22.4044 40.9639 22 40.28C21.5509 39.445 21.0429 38.643 20.48 37.88L11.38 25.4C11.0119 24.8733 10.8226 24.2424 10.84 23.6C10.8274 22.8053 11.1128 22.0347 11.64 21.44C11.879 21.195 12.1654 21.0013 12.4818 20.8706C12.7981 20.7399 13.1378 20.6751 13.48 20.68C14.0853 20.6725 14.6711 20.8939 15.12 21.3L24 28.94C24.8016 29.6342 25.6577 30.2629 26.56 30.82C26.9408 31.0558 27.3347 31.2694 27.74 31.46L28.32 31.66C28.5401 31.7284 28.7695 31.7622 29 31.76H35.6C35.8435 31.7606 36.0859 31.7269 36.32 31.66C36.6788 31.5357 37.0267 31.3819 37.36 31.2C38.5418 30.5007 39.6247 29.6465 40.58 28.66L48.3 20.78C48.5092 20.561 48.7606 20.3866 49.039 20.2675C49.3174 20.1484 49.6171 20.087 49.92 20.087C50.2229 20.087 50.5226 20.1484 50.801 20.2675C51.0794 20.3866 51.3308 20.561 51.54 20.78L59.2 28.62C59.9677 29.3648 60.8048 30.0345 61.7 30.62C62.087 30.8802 62.4951 31.1077 62.92 31.3C63.1127 31.3971 63.3135 31.4774 63.52 31.54C63.761 31.6067 64.0099 31.6404 64.26 31.64H70.8C71.0304 31.6406 71.2596 31.6069 71.48 31.54C72.2381 31.3122 72.9589 30.9754 73.62 30.54C74.451 30.0725 75.2465 29.5444 76 28.96L84.86 21.3C85.329 20.9035 85.9259 20.6903 86.54 20.7C86.8836 20.6943 87.2248 20.7568 87.5441 20.8838C87.8633 21.0108 88.1542 21.1999 88.4 21.44C88.8987 21.9887 89.1827 22.6988 89.2 23.44C89.2076 24.0686 89.0188 24.6838 88.66 25.2L78.48 38.86Z" fill="#008FD5"/>
<path d="M32.36 25.64C34.5 25.64 36.5919 25.0054 38.3713 23.8165C40.1506 22.6276 41.5374 20.9377 42.3564 18.9606C43.1753 16.9835 43.3896 14.808 42.9721 12.7091C42.5546 10.6103 41.5241 8.68231 40.0109 7.16911C38.4977 5.65591 36.5698 4.6254 34.4709 4.20791C32.372 3.79042 30.1965 4.00469 28.2194 4.82363C26.2423 5.64257 24.5524 7.0294 23.3635 8.80873C22.1746 10.5881 21.54 12.68 21.54 14.82C21.54 17.6896 22.68 20.4418 24.7091 22.4709C26.7383 24.5 29.4904 25.64 32.36 25.64ZM32.36 6.82C33.9423 6.82 35.489 7.2892 36.8046 8.16825C38.1202 9.0473 39.1455 10.2967 39.751 11.7585C40.3565 13.2203 40.515 14.8289 40.2063 16.3807C39.8976 17.9326 39.1357 19.358 38.0169 20.4769C36.898 21.5957 35.4726 22.3576 33.9207 22.6663C32.3689 22.975 30.7603 22.8165 29.2985 22.211C27.8367 21.6055 26.5873 20.5802 25.7083 19.2646C24.8292 17.949 24.36 16.4023 24.36 14.82C24.36 12.6983 25.2029 10.6634 26.7032 9.16315C28.2034 7.66286 30.2383 6.82 32.36 6.82Z" fill="#008FD5"/>
<path d="M32.3 42.26C33.0842 42.26 33.72 41.6242 33.72 40.84C33.72 40.0557 33.0842 39.42 32.3 39.42C31.5158 39.42 30.88 40.0557 30.88 40.84C30.88 41.6242 31.5158 42.26 32.3 42.26Z" fill="#008FD5"/>
<path d="M32.3 48.84C33.0842 48.84 33.72 48.2042 33.72 47.42C33.72 46.6358 33.0842 46 32.3 46C31.5158 46 30.88 46.6358 30.88 47.42C30.88 48.2042 31.5158 48.84 32.3 48.84Z" fill="#008FD5"/>
<path d="M67.12 42.26C67.9043 42.26 68.54 41.6242 68.54 40.84C68.54 40.0557 67.9043 39.42 67.12 39.42C66.3358 39.42 65.7 40.0557 65.7 40.84C65.7 41.6242 66.3358 42.26 67.12 42.26Z" fill="#008FD5"/>
<path d="M67.12 48.84C67.9043 48.84 68.54 48.2042 68.54 47.42C68.54 46.6358 67.9043 46 67.12 46C66.3358 46 65.7 46.6358 65.7 47.42C65.7 48.2042 66.3358 48.84 67.12 48.84Z" fill="#008FD5"/>
<path d="M47.82 13.28C49.4187 14.145 51.2025 14.6115 53.02 14.64C54.0336 14.6532 55.0418 14.4908 56 14.16L56.44 13.96C56.44 14.24 56.44 14.54 56.44 14.82C56.7213 17.4829 57.9784 19.9475 59.9688 21.7387C61.9592 23.5299 64.5422 24.5211 67.22 24.5211C69.8977 24.5211 72.4807 23.5299 74.4712 21.7387C76.4616 19.9475 77.7186 17.4829 78 14.82C78.0158 14.5469 78.0158 14.2731 78 14L78.58 14.26C79.5065 14.5796 80.4799 14.7419 81.46 14.74C83.2775 14.7115 85.0613 14.245 86.66 13.38C86.8686 13.2256 87.0193 13.0058 87.0882 12.7556C87.1571 12.5054 87.1401 12.2394 87.04 12C86.5121 10.7102 85.7326 9.53837 84.7471 8.55288C83.7616 7.56739 82.5898 6.78795 81.3 6.26001C80.3834 5.9266 79.4153 5.75735 78.44 5.76001C76.9599 5.77952 75.4984 6.09222 74.14 6.68001C72.1884 5.0136 69.7063 4.09808 67.14 4.09808C64.5737 4.09808 62.0916 5.0136 60.14 6.68001C58.8352 6.08911 57.4306 5.74983 56 5.68001C55.0181 5.67708 54.0434 5.84631 53.12 6.18001C51.8153 6.7126 50.6312 7.50237 49.6382 8.50226C48.6452 9.50214 47.8636 10.6917 47.34 12C47.2741 12.2367 47.2851 12.4882 47.3714 12.7182C47.4577 12.9483 47.6147 13.145 47.82 13.28ZM78.44 8.52001C79.1207 8.50241 79.7988 8.6109 80.44 8.84001C81.7708 9.34825 82.9007 10.2746 83.66 11.48C82.9397 11.6972 82.1923 11.8116 81.44 11.82C80.7602 11.8244 80.0844 11.7163 79.44 11.5C78.1124 10.9773 76.9801 10.0547 76.2 8.86001C76.9249 8.63299 77.6803 8.51832 78.44 8.52001ZM67.12 6.82001C68.7022 6.82001 70.249 7.2892 71.5646 8.16825C72.8801 9.04731 73.9055 10.2967 74.511 11.7585C75.1165 13.2204 75.275 14.8289 74.9663 16.3807C74.6576 17.9326 73.8957 19.358 72.7768 20.4769C71.658 21.5957 70.2326 22.3576 68.6807 22.6663C67.1289 22.975 65.5203 22.8165 64.0585 22.211C62.5967 21.6055 61.3473 20.5802 60.4682 19.2646C59.5892 17.949 59.12 16.4023 59.12 14.82C59.12 12.6983 59.9628 10.6634 61.4631 9.16316C62.9634 7.66287 64.9983 6.82001 67.12 6.82001ZM54 8.84001C54.6412 8.6109 55.3193 8.50241 56 8.52001C56.7379 8.52562 57.4716 8.63331 58.18 8.84001C58.06 9.00001 57.98 9.16001 57.88 9.32001C57.1476 10.2981 56.1573 11.053 55.02 11.5C54.3755 11.7163 53.6997 11.8244 53.02 11.82C52.2677 11.8116 51.5203 11.6972 50.8 11.48C51.5541 10.278 52.6766 9.35195 54 8.84001Z" fill="#008FD5"/>
</svg>
