<svg width="66" height="65" viewBox="0 0 66 65" fill="none" xmlns="http://www.w3.org/2000/svg">
<g clip-path="url(#clip0_381_51)">
<path d="M65.5457 20.4453C64.0046 15.6437 55.5018 17.5353 55.5018 21.5697V33.6949C53.0744 32.7557 50.7004 33.0511 48.6025 34.5811C46.2196 36.3183 35.9041 46.7813 35.9041 49.3474V65H54.1656C53.1234 55.9568 64.98 54.0653 65.764 45.3968C66.4766 37.5397 65.3631 28.4215 65.5457 20.4453ZM63.3142 44.7399C62.1651 52.015 52.2281 54.6296 51.4887 62.3545H38.572V49.3474C38.572 49.1182 39.8102 47.306 40.1176 46.9092C41.1286 45.6217 51.0968 35.8862 51.9252 35.6305C53.2793 35.2116 55.3148 36.5653 55.5107 37.9056C55.9294 40.8113 48.362 46.0229 46.6027 48.4612C47.253 48.9947 47.8409 50.3042 48.8119 49.8104C49.3152 49.5547 56.2412 42.6367 56.8291 41.8474C57.5552 40.873 58.0273 40.0088 58.1787 38.7743C58.8246 33.4788 57.5997 27.0855 58.2633 21.6623C60.6685 18.3995 63.2162 20.0088 63.5325 23.7566C63.9467 28.7213 64.067 39.9868 63.3142 44.7399Z" fill="#008FD5"/>
<path d="M16.7294 33.933C15.117 32.888 12.7207 33.0026 10.9614 33.6949V21.5697C10.9614 19.7487 7.56294 17.4735 5.79914 17.4074C1.68806 17.2531 0.516643 20.8818 0.253855 24.2019C-0.155917 29.3695 -0.320717 45.0044 1.80386 49.1534C4.72126 54.8413 13.1928 57.6764 12.2931 65.0044H30.5547V49.3519C30.5547 45.1896 19.4374 37.2002 16.7249 33.9374L16.7294 33.933ZM27.8823 62.3545H15.1883C14.2262 60.9877 14.244 59.5238 13.3755 57.9762C11.0059 53.7743 5.06867 51.0847 3.60775 46.4815C2.37843 42.5926 2.53878 28.3289 2.92183 23.7566C3.23361 20.0088 5.54526 18.545 8.19541 21.6534C9.15303 26.8607 6.64986 37.6631 9.61625 41.8519C10.3244 42.8571 17.6513 50.075 18.2437 49.9735C18.6758 49.8986 19.2325 48.9771 19.6601 48.6817C20.0432 47.7734 11.7542 41.2963 11.1529 39.4444C10.2844 36.7769 12.6049 35.2337 15.0992 35.9877C15.8519 36.2125 25.388 45.7011 26.3367 46.9092C26.6441 47.3016 27.8823 49.1182 27.8823 49.3474V62.3545Z" fill="#008FD5"/>
<path d="M29.5481 0.291017C9.82116 3.32894 12.9256 36.1111 35.1825 33.6464C57.1988 31.2081 54.2235 -3.50969 29.5481 0.291017ZM34.7816 31.0406C15.1616 32.9365 13.3488 3.6023 32.2562 2.50442C50.932 1.41976 52.9497 29.2857 34.7816 31.0406Z" fill="#008FD5"/>
<path d="M34.5634 15.6173L40.3626 15.8686V18.2628L34.5634 18.2584V23.9947H31.891V18.2584L26.1007 18.2628V15.6129H31.8954C30.8309 7.12964 35.6324 7.16491 34.5634 15.6173Z" fill="#008FD5"/>
</g>
<defs>
<clipPath id="clip0_381_51">
<rect width="66" height="65" fill="white"/>
</clipPath>
</defs>
</svg>
