<svg width="100" height="80" viewBox="0 0 100 80" fill="none" xmlns="http://www.w3.org/2000/svg">
<path d="M57.3001 25.54C57.3001 24.34 55.4001 23.34 53.1801 23.34C50.9601 23.34 49.0601 24.34 49.0601 25.54C49.0601 26.74 50.9401 27.76 53.1801 27.76C55.4201 27.76 57.3001 26.74 57.3001 25.54Z" fill="#008FD5"/>
<path d="M44.24 43.5C43.2382 43.5288 42.2577 43.7962 41.38 44.28C40.1864 44.8384 39.2447 45.8228 38.74 47.04C38.664 47.2169 38.6249 47.4075 38.6249 47.6C38.6249 47.7926 38.664 47.9831 38.74 48.16C39.32 49.22 41.46 49.24 43.42 48.16C45.38 47.08 46.58 45.32 46.02 44.28C45.814 44.0094 45.5425 43.7958 45.2311 43.6593C44.9196 43.5228 44.5785 43.468 44.24 43.5Z" fill="#008FD5"/>
<path d="M38.56 31.16C33.92 41.16 29.54 50.64 18.56 59.4C18.202 59.6872 17.972 60.1041 17.92 60.56C17.8819 61.0192 18.0175 61.476 18.3 61.84C18.4437 62.0196 18.6216 62.169 18.8234 62.2794C19.0253 62.3898 19.247 62.4591 19.4757 62.4833C19.7045 62.5075 19.9358 62.4861 20.1563 62.4203C20.3767 62.3545 20.5819 62.2456 20.76 62.1C32.3 52.86 36.86 43.02 41.68 32.62C45.34 24.62 49.12 16.62 56.38 8.12001C56.5943 7.76997 56.678 7.35543 56.6163 6.94965C56.5546 6.54387 56.3513 6.17297 56.0426 5.90252C55.7339 5.63207 55.3394 5.47947 54.9291 5.47169C54.5187 5.46391 54.1188 5.60145 53.8 5.86001C46.22 14.62 42.34 23.02 38.56 31.16Z" fill="#008FD5"/>
<path d="M68.6 52C66.36 52 64.48 53 64.48 54.2C64.48 55.4 66.36 56.42 68.6 56.42C70.84 56.42 72.72 55.4 72.72 54.2C72.72 53 70.82 52 68.6 52Z" fill="#008FD5"/>
<path d="M58 50.42C58.0714 50.6011 58.1793 50.7655 58.3169 50.9031C58.4545 51.0407 58.619 51.1486 58.8 51.22C60.0514 51.5936 61.3894 51.5585 62.6194 51.1197C63.8495 50.6809 64.9076 49.8613 65.64 48.78C65.8186 48.427 65.8544 48.0187 65.74 47.64C65.34 46.52 63.22 46.2 61.12 46.96C59.02 47.72 57.6 49.28 58 50.42Z" fill="#008FD5"/>
<path d="M53.82 32.94C53.6806 32.9211 53.5393 32.9211 53.4 32.94C52.32 32.94 51 34.26 50.3 36.1C49.6 37.94 49.8 40.3 50.92 40.72C52.04 41.14 53.66 39.74 54.44 37.64C55.22 35.54 54.94 33.36 53.82 32.94Z" fill="#008FD5"/>
<path d="M46.34 51.16C46.34 52.36 48.22 53.38 50.46 53.38C52.7 53.38 54.58 52.36 54.58 51.16C54.58 49.96 52.68 48.96 50.46 48.96C48.24 48.96 46.34 50 46.34 51.16Z" fill="#008FD5"/>
<path d="M80.38 42.68C77.16 42.56 63.4 40.52 61.84 37.22C60.88 35.1 71.84 18.62 73.5 16.82C73.6587 16.6538 73.7813 16.4564 73.8598 16.2403C73.9383 16.0242 73.971 15.7942 73.956 15.5648C73.9409 15.3355 73.8784 15.1117 73.7724 14.9077C73.6663 14.7038 73.5191 14.5241 73.34 14.38C73.0164 14.0719 72.5868 13.9 72.14 13.9C71.9037 13.9016 71.6706 13.9543 71.4566 14.0544C71.2425 14.1545 71.0527 14.2997 70.9 14.48C67.6 18.16 56.38 34.94 58.16 38.86C60.42 43.8 74.28 45.94 80.16 46.16C80.6215 46.16 81.064 45.9767 81.3903 45.6504C81.7167 45.324 81.9 44.8815 81.9 44.42C81.9 43.9585 81.7167 43.5159 81.3903 43.1896C81.064 42.8633 80.6215 42.68 80.16 42.68H80.38Z" fill="#008FD5"/>
<path d="M37.3 74.3C41.6358 70.6244 45.5287 66.4563 48.9 61.88C50.62 59.64 51.4 58.6 52.6 58.86C55.68 59.52 58.74 60.3 61.7 61.06C67.0572 62.5269 72.5013 63.6557 78 64.44C78.2919 64.489 78.5916 64.4571 78.8666 64.3478C79.1416 64.2385 79.3814 64.056 79.56 63.82C79.7491 63.5492 79.8681 63.2357 79.9065 62.9077C79.9449 62.5796 79.9014 62.2472 79.78 61.94C79.6643 61.6682 79.4764 61.4332 79.2366 61.2604C78.9969 61.0877 78.7145 60.9838 78.42 60.96C73.0205 60.1736 67.6763 59.0446 62.42 57.58C59.48 56.82 56.42 56.04 53.38 55.38C52.8881 55.2656 52.3851 55.2052 51.88 55.2C49.6 55.2 48.44 56.74 46.18 59.72C42.9371 64.1385 39.192 68.1655 35.02 71.72C34.6699 72.0224 34.4543 72.4514 34.4205 72.9127C34.3868 73.3741 34.5377 73.8299 34.84 74.18C35.1424 74.5301 35.5714 74.7457 36.0328 74.7795C36.4941 74.8132 36.9499 74.6624 37.3 74.36V74.3Z" fill="#008FD5"/>
<path d="M61.5 13.44C59.28 13.44 57.4 14.46 57.4 15.66C57.4 16.86 59.28 17.86 61.5 17.86C63.72 17.86 65.62 16.86 65.62 15.66C65.62 14.46 63.74 13.44 61.5 13.44Z" fill="#008FD5"/>
<path d="M36.72 60.76C39.48 60.76 41.72 59.54 41.72 58.06C41.72 56.58 39.42 55.36 36.72 55.36C34.02 55.36 31.74 56.58 31.74 58.06C31.74 59.54 34 60.76 36.72 60.76Z" fill="#008FD5"/>
</svg>
