<svg width="60" height="72" viewBox="0 0 60 72" fill="none" xmlns="http://www.w3.org/2000/svg">
<path d="M57.14 12.78C53.14 5.04 44.24 0.68 31.94 0.5H31.1C7.58 0.5 6.54 18.5 6.14 25.24C6.17452 26.0028 6.12759 26.7671 6 27.52C5.36 29.52 2.6 36.64 0.920004 40.22C0.773288 40.5789 0.773288 40.9811 0.920004 41.34C1.10192 41.7618 1.43821 42.0981 1.86 42.28H2.12C4.12666 42.6812 6.03149 43.4839 7.72 44.64C8.92 45.68 8.92 49.66 8.76 55.2C8.76 56.38 8.76 57.5 8.76 58.46C8.74899 58.7843 8.80441 59.1075 8.92288 59.4096C9.04134 59.7117 9.22034 59.9864 9.44886 60.2168C9.67739 60.4472 9.95062 60.6285 10.2518 60.7494C10.5529 60.8703 10.8756 60.9284 11.2 60.92C12.36 60.92 13.68 60.92 14.98 60.8C16.28 60.68 17.62 60.8 18.78 60.8C19.6141 60.7516 20.4507 60.8326 21.26 61.04C21.7186 61.1335 22.1298 61.3848 22.4221 61.7503C22.7145 62.1157 22.8694 62.5721 22.86 63.04C23.0522 65.2619 22.9107 67.5 22.44 69.68C22.4002 69.92 22.4117 70.1656 22.4738 70.4008C22.5359 70.636 22.6471 70.8553 22.8002 71.0443C22.9533 71.2333 23.1448 71.3877 23.3619 71.4973C23.5791 71.6069 23.817 71.6691 24.06 71.68H50.48C50.7115 71.6728 50.9387 71.6154 51.1459 71.5119C51.3531 71.4083 51.5353 71.2609 51.68 71.08C51.8413 70.8999 51.9608 70.6864 52.03 70.4548C52.0991 70.2231 52.1162 69.979 52.08 69.74C51.4 65.56 49.28 52.88 50.84 45.34C51.0374 43.1849 51.873 41.1377 53.24 39.46C59.56 30.28 61.02 20.38 57.14 12.78ZM32.66 67.42V67.86H26V67.32C26.2008 65.6125 26.2008 63.8874 26 62.18C25.81 61.0794 25.3074 60.0566 24.552 59.2339C23.7966 58.4111 22.8204 57.8231 21.74 57.54C20.8119 57.357 19.8647 57.2898 18.92 57.34C17.5836 57.3078 16.2466 57.3747 14.92 57.54C14.1616 57.5226 13.4036 57.5897 12.66 57.74L12 58V54.74C12 48.74 12 45.22 10.42 43.04L10.2 42.74L10.42 42.44C11.9013 40.3334 13.8444 38.5932 16.1009 37.3523C18.3574 36.1114 20.8677 35.4026 23.44 35.28C24.4555 35.2416 25.465 35.4509 26.3814 35.89C27.2979 36.329 28.0936 36.9846 28.7 37.8C34.84 44.6 33.08 63.68 32.66 67.42ZM50.46 37.56C49.0054 39.5593 48.0272 41.8647 47.6 44.3C46.34 51 47.6 60.82 48.44 67.3V67.86H35.84V67.32C36.16 63.32 37.18 51.1 34.58 42.24L34.44 41.74L34.96 41.62C38.78 40.74 41.76 37.62 43.86 32.04C43.9827 31.6439 43.9546 31.2164 43.781 30.8398C43.6075 30.4632 43.3008 30.1641 42.92 30C42.5548 29.85 42.1452 29.85 41.78 30C41.5676 30.0845 41.3747 30.2114 41.2131 30.3731C41.0514 30.5347 40.9245 30.7276 40.84 30.94C38 38.24 34.14 38.6 33.42 38.6H33.14L33 38.36C32.38 37.34 31.74 36.36 31.12 35.46C30.2155 34.3157 29.0592 33.3956 27.741 32.7712C26.4228 32.1468 24.9784 31.835 23.52 31.86C19.52 31.86 13.52 33.34 7.92 40.32L7.7 40.58L7.38 40.48L6.28 40C5.94781 39.8476 5.60727 39.714 5.26 39.6L4.76 39.42L4.96 38.92C7.4 32.92 8.76 29.4 9.16 28.04C9.32555 27.1097 9.38593 26.1638 9.34 25.22C10.12 5.94 21.34 3.46 31.1 3.46H32C43.2 3.68 51.14 7.46 54.34 14.06C57.54 20.66 56.18 29.72 50.46 37.56Z" fill="#008FD5"/>
</svg>
