<svg width="64" height="69" viewBox="0 0 64 69" fill="none" xmlns="http://www.w3.org/2000/svg">
<path d="M37.7344 11.1855C36.9905 11.1855 36.3867 11.7893 36.3867 12.5332C36.3867 13.2771 36.9905 13.8809 37.7344 13.8809C38.4783 13.8809 39.082 13.2771 39.082 12.5332C39.082 11.7893 38.4783 11.1855 37.7344 11.1855Z" fill="#666666"/>
<path d="M24.2578 11.1855C23.5139 11.1855 22.9102 11.7893 22.9102 12.5332C22.9102 13.2771 23.5139 13.8809 24.2578 13.8809C25.0017 13.8809 25.6055 13.2771 25.6055 12.5332C25.6055 11.7893 25.0017 11.1855 24.2578 11.1855Z" fill="#666666"/>
<path d="M60.2568 40.279C61.4135 38.543 61.9922 36.3769 61.9922 34.5C61.9922 31.6705 60.7352 29.0416 58.5783 27.2589C59.0556 26.1183 59.2969 24.9319 59.2969 23.7188C59.2969 19.9649 57.1061 16.468 53.849 14.835C54.3432 10.7362 51.6724 6.97924 47.7144 6.02092C46.1653 2.4398 42.7173 0 39.082 0C35.6981 0 32.663 1.97378 30.9961 4.85372C29.329 1.97378 26.294 0 22.9102 0C19.2746 0 15.8266 2.4398 14.2777 6.02106C10.2961 6.98544 7.65037 10.7612 8.14321 14.835C4.8862 16.4678 2.69531 19.9649 2.69531 23.7188C2.69531 24.9319 2.93654 26.1183 3.41388 27.2589C1.25696 29.0417 0 31.6705 0 34.5C0 36.3867 0.583535 38.55 1.73538 40.2789C0.609814 41.8678 0 43.7509 0 45.6855C0 48.1943 1.01721 50.5843 2.81647 52.3589C1.89144 57.9506 6.35083 63.6094 12.1289 63.6094C12.1707 63.6094 12.2118 63.6087 12.2521 63.6075C14.1678 66.9122 17.7237 69 21.5625 69C25.5634 69 29.1385 66.5985 30.9961 63.1385C32.8537 66.5985 36.4288 69 40.4297 69C44.2685 69 47.8244 66.9122 49.7401 63.6075C49.7805 63.6087 49.8215 63.6094 49.8633 63.6094C54.9768 63.6094 59.2969 59.1042 59.2969 53.7715C59.2969 53.3175 59.257 52.8505 59.1757 52.3589C60.975 50.5843 61.9922 48.1945 61.9922 45.6855C61.9922 43.7509 61.3824 41.8678 60.2568 40.279ZM29.6484 20.401C28.8549 19.9407 27.9346 19.6758 26.9531 19.6758C26.2088 19.6758 25.6055 20.2791 25.6055 21.0234C25.6055 21.7677 26.2088 22.3711 26.9531 22.3711C28.4393 22.3711 29.6484 23.5802 29.6484 25.0664V50.6946C27.6713 48.452 24.7803 47.0332 21.5625 47.0332C20.8182 47.0332 20.2148 47.6365 20.2148 48.3809C20.2148 49.1252 20.8182 49.7285 21.5625 49.7285C26.0211 49.7285 29.6484 53.3559 29.6484 57.8145C29.6484 62.4166 25.9455 66.3047 21.5625 66.3047C18.4424 66.3047 15.5701 64.4596 14.2449 61.6041C14.0005 61.0778 13.4472 60.7674 12.8703 60.8324C12.775 60.8433 12.6802 60.856 12.5855 60.8689C8.75006 61.3934 4.43082 57.0503 5.60005 52.1918C5.72013 51.6927 5.54628 51.169 5.15182 50.8407C3.5907 49.5417 2.69531 47.6627 2.69531 45.6855C2.69531 44.4631 3.04099 43.2668 3.68422 42.2178C5.3006 43.5425 7.31117 44.3379 9.43359 44.3379C10.1779 44.3379 10.7812 43.7345 10.7812 42.9902C10.7812 42.2459 10.1779 41.6426 9.43359 41.6426C5.77619 41.6426 2.69531 38.3044 2.69531 34.5C2.69531 32.1921 3.87168 30.069 5.84236 28.8207C6.44948 28.4361 6.64799 27.6427 6.29342 27.0175C5.69439 25.9611 5.39062 24.8512 5.39062 23.7188C5.39062 20.0814 8.35574 16.5762 12.1289 16.5762C15.7185 16.5762 18.8672 19.9139 18.8672 23.7188C18.8672 24.4631 19.4705 25.0664 20.2148 25.0664C20.9592 25.0664 21.5625 24.4631 21.5625 23.7188C21.5625 18.3861 17.2425 13.8809 12.1289 13.8809C11.6777 13.8809 11.2289 13.9174 10.7846 13.9865C10.7839 13.9511 10.7812 13.9166 10.7812 13.8809C10.7812 10.8733 13.2228 8.49023 16.1719 8.49023C17.6114 8.49023 18.9656 9.05099 19.9847 10.069C20.5112 10.595 21.3644 10.5945 21.8905 10.0681C22.4165 9.54141 22.4161 8.6882 21.8896 8.16222C20.6601 6.9341 19.105 6.15084 17.4198 5.89128C18.6083 4.12706 20.5846 2.69531 22.9102 2.69531C26.4998 2.69531 29.6484 6.03292 29.6484 9.83789V20.401ZM52.5586 44.3379C54.6812 44.3379 56.6917 43.5424 58.3081 42.2182C58.9512 43.267 59.2969 44.4632 59.2969 45.6855C59.2969 47.6627 58.4015 49.5417 56.8405 50.8407C56.4459 51.169 56.2722 51.6929 56.3923 52.1918C56.5351 52.7851 56.6016 53.2871 56.6016 53.7713C56.6016 57.9545 52.818 61.3352 49.4068 60.8689C49.3121 60.856 49.2172 60.8432 49.1219 60.8324C48.5442 60.767 47.9915 61.0778 47.7475 61.6041C46.4222 64.4596 43.5496 66.3047 40.4297 66.3047C36.0467 66.3047 32.3438 62.4166 32.3438 57.8145C32.3438 53.3559 35.9711 49.7285 40.4297 49.7285C41.1739 49.7285 41.7773 49.1252 41.7773 48.3809C41.7773 47.6365 41.1739 47.0332 40.4297 47.0332C37.2119 47.0332 34.3209 48.452 32.3438 50.6946V25.0664C32.3438 23.5802 33.5529 22.3711 35.0391 22.3711C35.7832 22.3711 36.3867 21.7677 36.3867 21.0234C36.3867 20.2791 35.7832 19.6758 35.0391 19.6758C34.0576 19.6758 33.1372 19.9407 32.3438 20.401V9.83789C32.3438 6.03292 35.4924 2.69531 39.082 2.69531C41.4075 2.69531 43.3838 4.12706 44.5722 5.89114C42.8871 6.1507 41.3322 6.93396 40.1026 8.16208C39.5759 8.68807 39.5754 9.54127 40.1014 10.0679C40.6274 10.5946 41.4809 10.595 42.0073 10.069C43.0268 9.05099 44.3807 8.49023 45.8203 8.49023C48.7842 8.49023 51.2109 10.8873 51.2109 13.8809C51.2109 13.9164 51.2082 13.9511 51.2076 13.9865C50.7632 13.9174 50.3145 13.8809 49.8633 13.8809C44.7497 13.8809 40.4297 18.3861 40.4297 23.7188C40.4297 24.4631 41.0332 25.0664 41.7773 25.0664C42.5215 25.0664 43.125 24.4631 43.125 23.7188C43.125 19.9139 46.2737 16.5762 49.8633 16.5762C53.6343 16.5762 56.6016 20.0797 56.6016 23.7188C56.6016 24.8512 56.2978 25.9611 55.6988 27.0175C55.3443 27.6427 55.5428 28.4361 56.15 28.8207C58.1205 30.069 59.2969 32.1921 59.2969 34.5C59.2969 38.318 56.2052 41.6426 52.5586 41.6426C51.8144 41.6426 51.2109 42.2459 51.2109 42.9902C51.2109 43.7345 51.8144 44.3379 52.5586 44.3379Z" fill="#666666"/>
<path d="M26.6099 28.847C26.1137 28.2923 25.2618 28.2449 24.707 28.7411C20.3853 32.6068 13.4766 29.5173 13.4766 23.7188C13.4766 22.9744 12.8732 22.3711 12.1289 22.3711C11.3846 22.3711 10.7812 22.9744 10.7812 23.7188C10.7812 28.3971 14.2052 32.2892 18.6785 33.0253C18.1597 34.6597 16.6282 35.8477 14.8242 35.8477C14.0799 35.8477 13.4766 36.451 13.4766 37.1953C13.4766 37.9396 14.0799 38.543 14.8242 38.543C18.1067 38.543 20.8469 36.1832 21.4415 33.0712C23.3157 32.8261 25.0796 32.0241 26.504 30.7499C27.0586 30.2537 27.1061 29.4017 26.6099 28.847Z" fill="#666666"/>
<path d="M12.1289 52.4238C11.3846 52.4238 10.7812 53.0272 10.7812 53.7715C10.7812 54.5158 11.3846 55.1191 12.1289 55.1191C15.7185 55.1191 18.8672 58.4569 18.8672 62.2617C18.8672 63.006 19.4705 63.6094 20.2148 63.6094C20.9592 63.6094 21.5625 63.006 21.5625 62.2617C21.5625 56.929 17.2425 52.4238 12.1289 52.4238Z" fill="#666666"/>
<path d="M22.9101 41.6426C18.3434 41.6426 14.4226 44.1472 12.3579 47.789C11.991 48.4365 12.2183 49.259 12.8657 49.626C13.5133 49.9929 14.3356 49.7657 14.7027 49.1182C16.3112 46.2805 19.3631 44.3379 22.9101 44.3379C23.6544 44.3379 24.2578 43.7345 24.2578 42.9902C24.2578 42.2459 23.6544 41.6426 22.9101 41.6426Z" fill="#666666"/>
<path d="M47.168 35.8477C45.364 35.8477 43.8325 34.6597 43.3137 33.0253C47.787 32.2892 51.211 28.3971 51.211 23.7188C51.211 22.9744 50.6075 22.3711 49.8633 22.3711C49.1191 22.3711 48.5157 22.9744 48.5157 23.7188C48.5157 27.4342 45.4929 30.457 41.7774 30.457C40.1176 30.457 38.5224 29.8476 37.2852 28.7411C36.7307 28.2449 35.8785 28.2922 35.3823 28.847C34.886 29.4017 34.9336 30.2537 35.4883 30.7499C36.9126 32.0241 38.6767 32.8261 40.5507 33.0712C41.1453 36.1832 43.8855 38.543 47.168 38.543C47.9122 38.543 48.5157 37.9396 48.5157 37.1953C48.5157 36.451 47.9122 35.8477 47.168 35.8477Z" fill="#666666"/>
<path d="M49.8633 52.4238C44.7497 52.4238 40.4297 56.929 40.4297 62.2617C40.4297 63.006 41.0332 63.6094 41.7773 63.6094C42.5215 63.6094 43.125 63.006 43.125 62.2617C43.125 58.4569 46.2737 55.1191 49.8633 55.1191C50.6075 55.1191 51.2109 54.5158 51.2109 53.7715C51.2109 53.0272 50.6075 52.4238 49.8633 52.4238Z" fill="#666666"/>
<path d="M49.6342 47.7891C47.5747 44.156 43.6592 41.6426 39.082 41.6426C38.3379 41.6426 37.7344 42.2459 37.7344 42.9902C37.7344 43.7345 38.3379 44.3379 39.082 44.3379C42.6265 44.3379 45.6807 46.28 47.2891 49.1182C47.6566 49.7665 48.4796 49.9927 49.1261 49.6261C49.7737 49.2591 50.001 48.4367 49.6342 47.7891Z" fill="#666666"/>
</svg>
