<svg width="100" height="80" viewBox="0 0 100 80" fill="none" xmlns="http://www.w3.org/2000/svg">
<path d="M12 37.46C11.6022 37.46 11.2206 37.618 10.9393 37.8994C10.658 38.1807 10.5 38.5622 10.5 38.96C10.5 39.3578 10.658 39.7394 10.9393 40.0207C11.2206 40.302 11.6022 40.46 12 40.46H28C28.3001 40.459 28.5932 40.3692 28.8423 40.202C29.0914 40.0347 29.2855 39.7974 29.4 39.52L35.58 24L42.54 55.26C42.6119 55.5848 42.7911 55.8759 43.0487 56.0864C43.3064 56.2969 43.6274 56.4144 43.96 56.42C44.2906 56.4254 44.6139 56.323 44.881 56.1281C45.1481 55.9332 45.3443 55.6565 45.44 55.34L52.12 32L54.58 39.4C54.6777 39.6988 54.868 39.9587 55.1233 40.1421C55.3786 40.3255 55.6857 40.4228 56 40.42H72C72.3978 40.42 72.7794 40.262 73.0607 39.9807C73.342 39.6994 73.5 39.3178 73.5 38.92C73.5 38.5222 73.342 38.1407 73.0607 37.8594C72.7794 37.578 72.3978 37.42 72 37.42H57.08L53.42 26.46C53.3387 26.1538 53.156 25.8843 52.9017 25.6954C52.6474 25.5065 52.3366 25.4094 52.02 25.42C51.6903 25.4202 51.3695 25.5276 51.1062 25.726C50.8428 25.9244 50.6511 26.2031 50.56 26.52L44.18 48.86L37.46 18.64C37.3948 18.3265 37.2283 18.043 36.9862 17.8334C36.744 17.6238 36.4397 17.4996 36.12 17.48C35.8017 17.4514 35.4825 17.5253 35.2091 17.6908C34.9357 17.8562 34.7223 18.1047 34.6 18.4L26.98 37.46H12Z" fill="#008FD5"/>
<path d="M28 41.46C28.4874 41.4717 28.9674 41.3394 29.38 41.0797C29.7927 40.82 30.1196 40.4445 30.32 40L35.32 27.52L41.56 55.52C41.6802 56.0616 41.9772 56.5477 42.4041 56.902C42.831 57.2562 43.3635 57.4584 43.918 57.4767C44.4724 57.4951 45.0172 57.3285 45.4665 57.0032C45.9159 56.6779 46.2443 56.2124 46.4 55.68L52.18 35.44L53.62 39.78C53.7906 40.2757 54.1115 40.7059 54.5381 41.0106C54.9647 41.3153 55.4757 41.4794 56 41.48H72C72.663 41.48 73.2989 41.2166 73.7678 40.7478C74.2366 40.279 74.5 39.6431 74.5 38.98C74.5 38.317 74.2366 37.6811 73.7678 37.2123C73.2989 36.7434 72.663 36.48 72 36.48H57.8L54.38 26.2C54.2304 25.6883 53.9159 25.2404 53.4856 24.9258C53.0552 24.6111 52.533 24.4474 52 24.46C51.4668 24.4741 50.9521 24.6583 50.5311 24.9858C50.1101 25.3132 49.8049 25.7667 49.66 26.28L44.3 44.8L38.44 18.42C38.3398 17.8861 38.0658 17.4004 37.6606 17.0386C37.2554 16.6768 36.7418 16.4593 36.2 16.42C35.6667 16.382 35.135 16.5146 34.682 16.7986C34.229 17.0826 33.8781 17.5034 33.68 18L26.3 36.42H12C11.337 36.42 10.7011 36.6834 10.2322 37.1523C9.76339 37.6211 9.5 38.257 9.5 38.92C9.5 39.5831 9.76339 40.219 10.2322 40.6878C10.7011 41.1566 11.337 41.42 12 41.42L28 41.46ZM36.12 17.46C36.4397 17.4796 36.744 17.6038 36.9862 17.8134C37.2283 18.023 37.3948 18.3065 37.46 18.62L44.18 48.84L50.56 26.54C50.6511 26.2231 50.8428 25.9444 51.1062 25.746C51.3695 25.5476 51.6903 25.4402 52.02 25.44C52.3366 25.4294 52.6474 25.5265 52.9017 25.7154C53.156 25.9043 53.3387 26.1739 53.42 26.48L57.08 37.44H72C72.3978 37.44 72.7794 37.5981 73.0607 37.8794C73.342 38.1607 73.5 38.5422 73.5 38.94C73.5 39.3378 73.342 39.7194 73.0607 40.0007C72.7794 40.282 72.3978 40.44 72 40.44H56C55.6857 40.4428 55.3786 40.3455 55.1233 40.1621C54.868 39.9787 54.6777 39.7188 54.58 39.42L52.12 32L45.44 55.38C45.3443 55.6965 45.1481 55.9732 44.881 56.1681C44.6139 56.363 44.2906 56.4655 43.96 56.46C43.6274 56.4544 43.3064 56.3369 43.0487 56.1264C42.7911 55.916 42.6119 55.6248 42.54 55.3L35.58 24L29.4 39.52C29.2855 39.7974 29.0914 40.0347 28.8423 40.202C28.5932 40.3692 28.3001 40.459 28 40.46H12C11.6022 40.46 11.2206 40.302 10.9393 40.0207C10.658 39.7394 10.5 39.3578 10.5 38.96C10.5 38.5622 10.658 38.1807 10.9393 37.8994C11.2206 37.6181 11.6022 37.46 12 37.46H26.98L34.6 18.4C34.7223 18.1047 34.9357 17.8563 35.2091 17.6908C35.4825 17.5253 35.8017 17.4514 36.12 17.48V17.46Z" fill="white"/>
<path d="M82.62 10.42C78.3845 6.1411 72.6561 3.66951 66.6372 3.52407C60.6183 3.37864 54.7772 5.57066 50.34 9.63997L50 9.99997L49.66 9.69997C45.9614 6.33672 41.2815 4.24867 36.3081 3.74275C31.3347 3.23682 26.3302 4.3397 22.0301 6.88929C17.7301 9.43887 14.3614 13.3007 12.4191 17.907C10.4769 22.5134 10.0636 27.6213 11.24 32.48H14.34C13.4791 29.4442 13.3349 26.2499 13.9188 23.1489C14.5027 20.0478 15.7987 17.1248 17.7047 14.6099C19.6107 12.0951 22.0747 10.0572 24.9024 8.65677C27.7302 7.25638 30.8445 6.53175 34 6.53997C38.9414 6.5368 43.7112 8.35216 47.4 11.64L50 14L52.58 11.58C55.5322 8.96247 59.1789 7.25535 63.08 6.66464C66.981 6.07393 70.9696 6.62489 74.5645 8.25102C78.1593 9.87714 81.2066 12.5089 83.3387 15.8287C85.4708 19.1486 86.5965 23.0145 86.58 26.96C86.5888 29.6536 86.063 32.3223 85.0331 34.8113C84.0032 37.3003 82.4896 39.5601 80.58 41.46L50 72L23.46 45.48H19.2L50 76.26L82.62 43.64C87.0179 39.2309 89.4877 33.2575 89.4877 27.03C89.4877 20.8024 87.0179 14.8291 82.62 10.42Z" fill="#008FD5"/>
</svg>
