<svg width="100" height="80" viewBox="0 0 100 80" fill="none" xmlns="http://www.w3.org/2000/svg">
<path d="M77.14 16.78C73.14 9.04 64.24 4.68 51.94 4.5H51.1C27.58 4.5 26.54 22.5 26.14 29.24C26.1745 30.0028 26.1276 30.7671 26 31.52C25.36 33.52 22.6 40.64 20.92 44.22C20.7733 44.5789 20.7733 44.9811 20.92 45.34C21.1019 45.7618 21.4382 46.0981 21.86 46.28H22.12C24.1267 46.6812 26.0315 47.4839 27.72 48.64C28.92 49.68 28.92 53.66 28.76 59.2C28.76 60.38 28.76 61.5 28.76 62.46C28.749 62.7843 28.8044 63.1075 28.9229 63.4096C29.0413 63.7117 29.2203 63.9864 29.4489 64.2168C29.6774 64.4472 29.9506 64.6285 30.2518 64.7494C30.5529 64.8703 30.8756 64.9284 31.2 64.92C32.36 64.92 33.68 64.92 34.98 64.8C36.28 64.68 37.62 64.8 38.78 64.8C39.6141 64.7516 40.4507 64.8326 41.26 65.04C41.7186 65.1335 42.1298 65.3848 42.4221 65.7503C42.7145 66.1157 42.8694 66.5721 42.86 67.04C43.0522 69.2619 42.9107 71.5 42.44 73.68C42.4002 73.92 42.4117 74.1656 42.4738 74.4008C42.5359 74.636 42.6471 74.8553 42.8002 75.0443C42.9533 75.2333 43.1448 75.3877 43.3619 75.4973C43.5791 75.6069 43.817 75.6691 44.06 75.68H70.48C70.7115 75.6728 70.9387 75.6154 71.1459 75.5119C71.3531 75.4083 71.5353 75.2609 71.68 75.08C71.8413 74.8999 71.9608 74.6864 72.03 74.4548C72.0991 74.2231 72.1162 73.979 72.08 73.74C71.4 69.56 69.28 56.88 70.84 49.34C71.0374 47.1849 71.873 45.1377 73.24 43.46C79.56 34.28 81.02 24.38 77.14 16.78ZM52.66 71.42V71.86H46V71.32C46.2008 69.6125 46.2008 67.8874 46 66.18C45.81 65.0794 45.3074 64.0566 44.552 63.2339C43.7966 62.4111 42.8204 61.8231 41.74 61.54C40.8119 61.357 39.8647 61.2898 38.92 61.34C37.5836 61.3078 36.2466 61.3747 34.92 61.54C34.1616 61.5226 33.4036 61.5897 32.66 61.74L32 62V58.74C32 52.74 32 49.22 30.42 47.04L30.2 46.74L30.42 46.44C31.9013 44.3334 33.8444 42.5932 36.1009 41.3523C38.3574 40.1114 40.8677 39.4026 43.44 39.28C44.4555 39.2416 45.465 39.4509 46.3814 39.89C47.2979 40.329 48.0936 40.9846 48.7 41.8C54.84 48.6 53.08 67.68 52.66 71.42ZM70.46 41.56C69.0054 43.5593 68.0272 45.8647 67.6 48.3C66.34 55 67.6 64.82 68.44 71.3V71.86H55.84V71.32C56.16 67.32 57.18 55.1 54.58 46.24L54.44 45.74L54.96 45.62C58.78 44.74 61.76 41.62 63.86 36.04C63.9827 35.6439 63.9546 35.2164 63.781 34.8398C63.6075 34.4632 63.3008 34.1641 62.92 34C62.5548 33.85 62.1452 33.85 61.78 34C61.5676 34.0845 61.3747 34.2114 61.2131 34.3731C61.0514 34.5347 60.9245 34.7276 60.84 34.94C58 42.24 54.14 42.6 53.42 42.6H53.14L53 42.36C52.38 41.34 51.74 40.36 51.12 39.46C50.2155 38.3157 49.0592 37.3956 47.741 36.7712C46.4228 36.1468 44.9784 35.835 43.52 35.86C39.52 35.86 33.52 37.34 27.92 44.32L27.7 44.58L27.38 44.48L26.28 44C25.9478 43.8476 25.6073 43.714 25.26 43.6L24.76 43.42L24.96 42.92C27.4 36.92 28.76 33.4 29.16 32.04C29.3256 31.1097 29.3859 30.1638 29.34 29.22C30.12 9.94 41.34 7.46 51.1 7.46H52C63.2 7.68 71.14 11.46 74.34 18.06C77.54 24.66 76.18 33.72 70.46 41.56Z" fill="#008FD5"/>
</svg>
