<svg width="100" height="80" viewBox="0 0 100 80" fill="none" xmlns="http://www.w3.org/2000/svg">
<path d="M81.72 22.66C81.9678 22.9083 82.2833 23.0778 82.6271 23.1474C82.9709 23.2169 83.3276 23.1834 83.6524 23.0509C83.9771 22.9184 84.2556 22.6929 84.4526 22.4028C84.6497 22.1126 84.7566 21.7707 84.76 21.42C84.7544 20.9489 84.5683 20.4979 84.24 20.16L69.84 5.75995C69.5069 5.4314 69.0579 5.24719 68.59 5.24719C68.1221 5.24719 67.6731 5.4314 67.34 5.75995C67.1739 5.92485 67.0424 6.12122 66.9531 6.33757C66.8638 6.55392 66.8186 6.7859 66.82 7.01995C66.8166 7.25131 66.8611 7.48087 66.9505 7.69424C67.04 7.90762 67.1726 8.10021 67.34 8.25995L69.68 10.62L69.5 10.8L57.2 23.1L57.02 22.92L50 16C49.7538 15.7474 49.4374 15.5746 49.0919 15.5041C48.7463 15.4335 48.3875 15.4684 48.062 15.6042C47.7365 15.74 47.4594 15.9705 47.2664 16.2657C47.0735 16.5609 46.9737 16.9073 46.98 17.26C46.9792 17.7226 47.1585 18.1673 47.48 18.5L51.1 22L50.92 22.18L31.18 42C30.1127 43.0601 29.5026 44.4958 29.48 46C29.4773 46.6469 29.5855 47.2896 29.8 47.9V48.04L25.42 52.4199C24.5859 53.2561 24.1174 54.3889 24.1174 55.57C24.1174 56.751 24.5859 57.8838 25.42 58.72L27.06 60.36L26.9 60.54L15.76 71.74C15.4315 72.073 15.2473 72.5221 15.2473 72.99C15.2473 73.4578 15.4315 73.9069 15.76 74.24C16.0979 74.5592 16.5451 74.7371 17.01 74.7371C17.4749 74.7371 17.9221 74.5592 18.26 74.24L29.62 62.9L31.26 64.54C32.0961 65.3741 33.229 65.8426 34.41 65.8426C35.5911 65.8426 36.7239 65.3741 37.56 64.54L42 60.16H42.14C42.7528 60.365 43.3939 60.4729 44.04 60.4799C45.5246 60.4577 46.9433 59.863 48 58.82L68 38.82L71.56 42.36C71.8919 42.5563 72.2791 42.6383 72.6621 42.5932C73.0451 42.5481 73.4027 42.3785 73.6799 42.1103C73.9571 41.8422 74.1386 41.4905 74.1964 41.1092C74.2542 40.7279 74.1852 40.3382 74 40L66.9 32.7999L79.38 20.32L81.72 22.66ZM35.06 62C34.8813 62.1677 34.6451 62.2607 34.4 62.2599C34.2801 62.2583 34.1616 62.2327 34.0517 62.1846C33.9418 62.1365 33.8426 62.0669 33.76 61.9799L28 56.24C27.8335 56.0685 27.7403 55.839 27.74 55.5999C27.7412 55.3552 27.834 55.1198 28 54.9399L32 50.9399L32.18 51.1199L39.08 58L35.06 62ZM65.32 36.58L45.58 56.32C45.3698 56.5297 45.1202 56.6959 44.8457 56.8092C44.5712 56.9224 44.277 56.9805 43.98 56.9799C43.375 56.9777 42.7944 56.7411 42.36 56.32L33.68 47.6399C33.2586 47.21 33.0225 46.632 33.0225 46.0299C33.0225 45.4279 33.2586 44.8499 33.68 44.4199L39.2 38.9L42.76 42.4399C43.0954 42.7081 43.5172 42.8444 43.946 42.8232C44.3748 42.8019 44.7811 42.6247 45.0884 42.3248C45.3956 42.0249 45.5827 41.6231 45.6143 41.1949C45.6459 40.7667 45.5199 40.3417 45.26 40L41.7 36.4L41.88 36.22L46.4 31.7L50 35.2599C50.3379 35.5792 50.7851 35.7571 51.25 35.7571C51.7149 35.7571 52.1621 35.5792 52.5 35.2599C52.8286 34.9269 53.0128 34.4778 53.0128 34.0099C53.0128 33.5421 52.8286 33.093 52.5 32.7599L48.9 29.2L53.6 24.52L53.78 24.68L65.48 36.4L65.32 36.58ZM76.7 18L64.4 30.2999L64.22 30.12L59.7 25.6L59.88 25.44L72.18 13.12L72.36 13.3L76.88 17.82L76.7 18Z" fill="#666666"/>
</svg>
