<svg width="100" height="80" viewBox="0 0 100 80" fill="none" xmlns="http://www.w3.org/2000/svg">
<path d="M83.86 48.1399C83.8596 46.234 83.3145 44.368 82.2891 42.7615C81.2636 41.155 79.8003 39.875 78.0717 39.0723C76.3431 38.2696 74.4211 37.9775 72.5321 38.2306C70.6431 38.4837 68.8657 39.2713 67.4094 40.5008C65.953 41.7302 64.8783 43.3502 64.3119 45.17C63.7454 46.9897 63.7108 48.9335 64.2121 50.7723C64.7134 52.6111 65.7297 54.2683 67.1413 55.5488C68.553 56.8293 70.3012 57.6798 72.18 57.9999C71.8937 60.5605 71.0763 63.0332 69.78 65.2599C66.44 70.9999 59.36 71.8199 55.46 71.8199C54.2 71.8199 53.2 71.8199 52.72 71.6999C46.14 71.0399 42.34 69.1199 39.98 65.3199C38.2968 62.1735 37.4498 58.6476 37.52 55.0799C39.566 53.3148 40.943 50.8998 41.42 48.2399C41.4328 47.6932 41.5647 47.1559 41.8065 46.6654C42.0483 46.1749 42.3941 45.743 42.82 45.3999C52.72 36.1999 55.46 14.2999 55.6 13.3999C55.7143 12.6222 55.597 11.8281 55.2626 11.1167C54.9283 10.4053 54.3917 9.80819 53.72 9.39994C53.003 8.92853 52.2389 8.53307 51.44 8.21994C51.1873 8.09625 50.9267 7.98935 50.66 7.89994C50.4589 7.07486 49.9871 6.34094 49.3201 5.8153C48.6531 5.28966 47.8292 5.0026 46.98 4.99994C46.0758 5.18356 45.2628 5.67413 44.6789 6.38854C44.095 7.10295 43.776 7.99726 43.776 8.91994C43.776 9.84263 44.095 10.7369 44.6789 11.4514C45.2628 12.1658 46.0758 12.6563 46.98 12.8399C47.5051 12.8501 48.0264 12.7484 48.5092 12.5415C48.992 12.3346 49.4252 12.0272 49.78 11.6399C49.96 11.4799 50 11.2599 50.14 11.0799C50.7991 11.3564 51.4289 11.6981 52.02 12.0999C52.1569 12.1853 52.267 12.3075 52.3377 12.4525C52.4084 12.5975 52.4369 12.7595 52.42 12.9199C51.52 20.7999 48 35.7599 41.2 42.4999H40.86H30.62C23.74 35.5799 20.3 20.7399 19.32 12.9199C19.2754 12.7439 19.2905 12.5581 19.3629 12.3916C19.4353 12.2251 19.5609 12.0874 19.72 11.9999C20.3125 11.6059 20.9421 11.271 21.6 10.9999C21.9391 11.5358 22.4088 11.9766 22.9651 12.281C23.5214 12.5853 24.1459 12.7433 24.78 12.7399C25.3106 12.7596 25.8395 12.6695 26.3336 12.4754C26.8278 12.2814 27.2766 11.9874 27.6521 11.612C28.0275 11.2366 28.3214 10.7878 28.5155 10.2936C28.7096 9.79941 28.7996 9.2705 28.78 8.73994C28.7286 7.71412 28.2846 6.74736 27.54 6.03994C26.7953 5.33252 25.8071 4.93866 24.78 4.93994C23.9472 4.97098 23.1449 5.26135 22.4851 5.77052C21.8253 6.27968 21.3411 6.9822 21.1 7.77994C20.8332 7.86935 20.5727 7.97625 20.32 8.09994C19.5105 8.44173 18.7339 8.85679 18 9.33994C17.3356 9.75357 16.8072 10.353 16.4801 11.064C16.1531 11.775 16.0418 12.5663 16.16 13.3399V13.5199C17.12 20.4799 20.4 37.5199 28.98 45.5199C29.3975 45.898 29.7334 46.3573 29.9673 46.8697C30.2011 47.3821 30.3279 47.9368 30.34 48.4999C30.8081 51.1921 32.2276 53.6266 34.34 55.3599C34.2651 59.4897 35.2791 63.5664 37.28 67.1799C40.16 71.8199 44.8 74.2599 52.32 74.9999C53.3817 75.1285 54.4506 75.1887 55.52 75.1799C63.22 75.1799 69.38 72.2399 72.44 67.1799C74.094 64.3782 75.0986 61.2413 75.38 57.9999C77.7369 57.6375 79.8868 56.4447 81.4417 54.6367C82.9967 52.8287 83.8543 50.5246 83.86 48.1399ZM80.72 48.1399C80.72 49.5086 80.3141 50.8465 79.5538 51.9845C78.7934 53.1225 77.7126 54.0094 76.4482 54.5332C75.1837 55.0569 73.7923 55.194 72.45 54.927C71.1076 54.66 69.8746 54.0009 68.9068 53.0331C67.939 52.0653 67.28 50.8323 67.013 49.49C66.7459 48.1476 66.883 46.7562 67.4067 45.4918C67.9305 44.2273 68.8175 43.1466 69.9554 42.3862C71.0934 41.6258 72.4313 41.2199 73.8 41.2199C74.7114 41.2226 75.6133 41.4047 76.4543 41.7559C77.2953 42.1071 78.0589 42.6205 78.7015 43.2668C79.344 43.9131 79.853 44.6796 80.1994 45.5226C80.5457 46.3656 80.7226 47.2686 80.72 48.1799V48.1399ZM36 52.3399C34.7026 51.0655 33.8416 49.4134 33.54 47.6199V47.4399C33.54 47.0399 33.32 46.5199 33.2 45.9999H38.8C38.62 46.6399 38.5 47.2599 38.36 47.8799C38.0024 49.5568 37.1852 51.101 36 52.3399ZM73.8 43.9999C73.0089 43.9999 72.2355 44.2345 71.5777 44.6741C70.9199 45.1136 70.4072 45.7383 70.1045 46.4692C69.8017 47.2001 69.7225 48.0044 69.8769 48.7803C70.0312 49.5562 70.4122 50.269 70.9716 50.8284C71.531 51.3878 72.2437 51.7687 73.0196 51.9231C73.7956 52.0774 74.5998 51.9982 75.3307 51.6955C76.0616 51.3927 76.6863 50.88 77.1259 50.2222C77.5654 49.5644 77.8 48.7911 77.8 47.9999C77.8 46.9391 77.3786 45.9217 76.6284 45.1715C75.8783 44.4214 74.8609 43.9999 73.8 43.9999ZM73.8 49.5599C73.4346 49.5175 73.0975 49.3423 72.8528 49.0676C72.6081 48.7929 72.4729 48.4378 72.4729 48.0699C72.4729 47.7021 72.6081 47.347 72.8528 47.0723C73.0975 46.7976 73.4346 46.6224 73.8 46.5799C74.1654 46.6224 74.5025 46.7976 74.7472 47.0723C74.9919 47.347 75.1271 47.7021 75.1271 48.0699C75.1271 48.4378 74.9919 48.7929 74.7472 49.0676C74.5025 49.3423 74.1654 49.5175 73.8 49.5599Z" fill="#666666"/>
</svg>
