<svg width="100" height="80" viewBox="0 0 100 80" fill="none" xmlns="http://www.w3.org/2000/svg">
<path d="M12 72.1601C12.7576 72.8851 13.6623 73.439 14.6526 73.784C15.6429 74.1291 16.6958 74.2573 17.74 74.1601H18C18.62 74.1601 32.66 74.1601 37.12 71.4801C37.38 71.4801 42.24 70.7001 42.88 63.1801L43.26 58.9801C43.5 56.8001 43.64 54.5001 43.76 52.3401V44.7201C43.7707 44.5109 43.7398 44.3017 43.669 44.1046C43.5981 43.9075 43.4888 43.7265 43.3474 43.572C43.2059 43.4175 43.0352 43.2927 42.8451 43.2048C42.655 43.1169 42.4493 43.0677 42.24 43.0601C42.0272 43.0403 41.8127 43.0657 41.6104 43.1345C41.4081 43.2033 41.2226 43.3139 41.066 43.4593C40.9094 43.6046 40.7851 43.7813 40.7014 43.9778C40.6176 44.1744 40.5763 44.3864 40.58 44.6001V52.2401C40.5169 54.3766 40.3232 56.5072 40 58.6201C39.88 60.0401 39.74 61.5601 39.62 62.9601C39.24 67.8201 36.82 68.3201 36.68 68.3201L36.04 68.4601L35.42 68.8401C32.74 70.3601 23.54 71.1401 17.8 71.1401C16.5309 71.2235 15.2723 70.8629 14.24 70.1201C13.3565 68.9406 12.9754 67.4595 13.18 66.0001C13.2503 64.9412 13.2503 63.8789 13.18 62.8201C13.1149 62.155 13.1149 61.4851 13.18 60.8201C13.18 59.1601 13.32 57.3801 13.44 55.4601C13.7 52.4001 14.08 49.0801 14.6 45.4601C15.4625 38.7147 17.7682 32.2344 21.36 26.4601C24.54 21.3601 31.36 13.7001 36.54 13.7001C36.9702 13.6805 37.401 13.7209 37.82 13.8201C38.58 14.3401 39.82 16.3801 39.34 23.6401C39.34 24.0401 39.22 24.4201 39.22 24.8001C38.9374 26.4589 39.0262 28.1597 39.48 29.7801C39.643 30.1488 39.9377 30.4435 40.3064 30.6065C40.6752 30.7696 41.0914 30.7893 41.4739 30.6618C41.8564 30.5343 42.1776 30.2688 42.3747 29.9171C42.5719 29.5654 42.6308 29.1529 42.54 28.7601C42.2447 27.5487 42.1971 26.2902 42.4 25.0601C42.4 24.6601 42.54 24.2801 42.54 23.7801C42.92 19.4401 42.92 13.4401 39.72 11.1401C39.4291 10.8878 39.0776 10.7154 38.7 10.6401C38.0029 10.4174 37.27 10.3292 36.54 10.3801C29.64 10.3801 22.12 19.3201 18.68 24.6601C14.9009 30.8067 12.4674 37.6845 11.54 44.8401C11.02 48.5401 10.52 51.8601 10.26 55.0601C10.12 57.0601 9.99999 58.8801 9.99999 60.6601C9.97954 61.3888 10.0197 62.118 10.12 62.8401C10.19 63.7721 10.19 64.708 10.12 65.6401C9.94323 66.7981 10.0198 67.9808 10.3443 69.1064C10.6689 70.232 11.2338 71.2739 12 72.1601Z" fill="#666666"/>
<path d="M90 60.54C90 58.88 89.88 56.96 89.74 54.92C89.48 51.74 89.1 48.42 88.46 44.72C87.5334 37.5705 85.0998 30.6991 81.32 24.56C78 19.34 70.48 10.28 63.46 10.28C62.7347 10.3006 62.0122 10.3809 61.3 10.52C60.9594 10.611 60.649 10.7904 60.4 11.04C57.2 13.34 57.2 19.34 57.6 23.66C57.6 24.06 57.72 24.56 57.72 24.94C57.9268 26.1691 57.8859 27.427 57.6 28.64C57.4839 29.0406 57.5247 29.4704 57.7141 29.8419C57.9036 30.2135 58.2276 30.4989 58.62 30.64C59.0206 30.7513 59.4483 30.7083 59.8186 30.5194C60.1889 30.3305 60.4749 30.0096 60.62 29.62C61.0787 28 61.1608 26.2966 60.86 24.64C60.86 24.26 60.74 23.88 60.74 23.5C60.24 16.36 61.5 14.32 62.28 13.8C62.6923 13.7009 63.1165 13.6605 63.54 13.68C68.78 13.68 75.42 21.34 78.6 26.44C82.1411 32.2387 84.4428 38.7079 85.36 45.44C85.88 49.02 86.26 52.34 86.52 55.44C86.64 57.44 86.78 59.14 86.78 60.8C86.7966 61.4696 86.7498 62.1393 86.64 62.8C86.5798 63.8592 86.5798 64.9209 86.64 65.98C86.7617 66.7159 86.7342 67.4687 86.5589 68.1937C86.3837 68.9187 86.0644 69.601 85.62 70.2C85.1539 70.6077 84.6052 70.9099 84.0115 71.086C83.4178 71.262 82.793 71.3077 82.18 71.22C76.44 71.22 67.12 70.58 64.44 68.92L63.8 68.54L63.16 68.42C63.04 68.42 60.48 67.9 60.24 63.06C60.1 61.66 59.98 60.12 59.84 58.72C59.6 56.54 59.46 54.38 59.34 52.34V44.72C59.354 44.5037 59.3196 44.2869 59.2394 44.0854C59.1591 43.884 59.035 43.703 58.876 43.5555C58.7171 43.408 58.5273 43.2978 58.3204 43.2329C58.1135 43.1679 57.8947 43.1499 57.68 43.18C57.4699 43.1878 57.2633 43.2369 57.0721 43.3245C56.8809 43.4121 56.7089 43.5366 56.5659 43.6908C56.4229 43.8449 56.3116 44.0258 56.2385 44.223C56.1655 44.4202 56.132 44.6299 56.14 44.84V52.5C56.28 54.68 56.4 56.96 56.66 59.14L57.04 63.34C57.56 70.62 62.28 71.52 62.78 71.64C67.24 74.32 81.28 74.32 81.92 74.32H82.18C83.2049 74.4024 84.2356 74.2668 85.2043 73.9221C86.1729 73.5774 87.0576 73.0314 87.8 72.32C88.5403 71.394 89.0894 70.3302 89.4155 69.1905C89.7416 68.0507 89.8384 66.8575 89.7 65.68C89.64 64.7477 89.64 63.8124 89.7 62.88C89.8636 62.1095 89.9639 61.3269 90 60.54Z" fill="#666666"/>
<path d="M49.42 5.67996C48.9829 5.69013 48.5666 5.86829 48.2574 6.17742C47.9483 6.48656 47.7701 6.9029 47.76 7.33996V31.7C44.8925 32.7087 42.1537 34.0513 39.6 35.7C37.8597 37.0127 36.3521 38.6082 35.14 40.42C34.1497 41.8319 32.9949 43.1209 31.7 44.26C28.8982 46.0749 25.5609 46.8792 22.24 46.54C22.0299 46.5321 21.8203 46.5657 21.6231 46.6388C21.426 46.7119 21.2452 46.8232 21.091 46.9662C20.9369 47.1092 20.8124 47.2811 20.7247 47.4722C20.637 47.6633 20.5879 47.8699 20.58 48.08C20.5721 48.2901 20.6057 48.4997 20.6788 48.6968C20.7519 48.894 20.8632 49.0748 21.0062 49.2289C21.1492 49.3831 21.3212 49.5075 21.5123 49.5952C21.7034 49.6829 21.9099 49.7321 22.12 49.74H23.4C27.0254 49.864 30.5968 48.8347 33.6 46.8C35.1268 45.4989 36.4722 43.9989 37.6 42.34C38.6375 40.838 39.8833 39.4912 41.3 38.34C43.7883 36.7527 46.4792 35.5082 49.3 34.64C52.131 35.4813 54.8256 36.7275 57.3 38.34C58.7529 39.4519 60.0044 40.8049 61 42.34C62.1283 44.0293 63.5113 45.5338 65.1 46.8C68.1032 48.8347 71.6745 49.864 75.3 49.74H76.58C77.0043 49.7214 77.4039 49.535 77.6908 49.2218C77.9778 48.9087 78.1285 48.4943 78.11 48.07C78.0914 47.6456 77.905 47.246 77.5919 46.9591C77.2787 46.6722 76.8643 46.5214 76.44 46.54C73.1265 46.8618 69.8013 46.0587 67 44.26C65.6652 43.1618 64.5053 41.867 63.56 40.42C62.3421 38.6128 60.8353 37.0182 59.1 35.7C56.5413 34.0474 53.7954 32.7047 50.92 31.7V7.33996C50.9755 7.12529 50.9768 6.90019 50.9239 6.68485C50.871 6.46952 50.7655 6.27068 50.6169 6.10615C50.4682 5.94163 50.281 5.81658 50.0721 5.74219C49.8633 5.66781 49.6392 5.64643 49.42 5.67996Z" fill="#666666"/>
</svg>
