<svg width="100" height="80" viewBox="0 0 100 80" fill="none" xmlns="http://www.w3.org/2000/svg">
<path d="M12 37.46C11.6022 37.46 11.2206 37.618 10.9393 37.8994C10.658 38.1807 10.5 38.5622 10.5 38.96C10.5 39.3578 10.658 39.7394 10.9393 40.0207C11.2206 40.302 11.6022 40.46 12 40.46H28C28.3001 40.459 28.5932 40.3692 28.8423 40.202C29.0914 40.0347 29.2855 39.7974 29.4 39.52L35.58 24L42.54 55.26C42.6119 55.5848 42.7911 55.8759 43.0487 56.0864C43.3064 56.2969 43.6274 56.4144 43.96 56.42C44.2906 56.4254 44.6139 56.323 44.881 56.1281C45.1481 55.9332 45.3443 55.6565 45.44 55.34L52.12 32L54.58 39.4C54.6777 39.6988 54.868 39.9587 55.1233 40.1421C55.3786 40.3255 55.6857 40.4228 56 40.42H72C72.3978 40.42 72.7794 40.262 73.0607 39.9807C73.342 39.6994 73.5 39.3178 73.5 38.92C73.5 38.5222 73.342 38.1407 73.0607 37.8594C72.7794 37.578 72.3978 37.42 72 37.42H57.08L53.42 26.46C53.3387 26.1538 53.156 25.8843 52.9017 25.6954C52.6474 25.5065 52.3366 25.4094 52.02 25.42C51.6903 25.4202 51.3695 25.5276 51.1062 25.726C50.8428 25.9244 50.6511 26.2031 50.56 26.52L44.18 48.86L37.46 18.64C37.3948 18.3265 37.2283 18.043 36.9862 17.8334C36.744 17.6238 36.4397 17.4996 36.12 17.48C35.8017 17.4514 35.4825 17.5253 35.2091 17.6908C34.9357 17.8562 34.7223 18.1047 34.6 18.4L26.98 37.46H12Z" fill="#666666"/>
<path d="M82.62 10.42C78.3845 6.14116 72.6561 3.66957 66.6372 3.52413C60.6183 3.3787 54.7772 5.57073 50.34 9.64004L50 10L49.66 9.70004C45.9614 6.33678 41.2815 4.24873 36.3081 3.74281C31.3347 3.23688 26.3302 4.33977 22.0301 6.88935C17.7301 9.43893 14.3614 13.3007 12.4191 17.9071C10.4769 22.5134 10.0636 27.6214 11.24 32.48H14.34C13.4791 29.4442 13.3349 26.25 13.9188 23.1489C14.5027 20.0479 15.7987 17.1248 17.7047 14.61C19.6107 12.0951 22.0747 10.0572 24.9024 8.65683C27.7302 7.25644 30.8445 6.53181 34 6.54004C38.9414 6.53686 43.7112 8.35222 47.4 11.64L50 14L52.58 11.58C55.5322 8.96253 59.1789 7.25541 63.08 6.6647C66.981 6.07399 70.9696 6.62495 74.5645 8.25108C78.1593 9.8772 81.2066 12.509 83.3387 15.8288C85.4708 19.1486 86.5965 23.0146 86.58 26.96C86.5888 29.6537 86.063 32.3223 85.0331 34.8113C84.0032 37.3003 82.4896 39.5602 80.58 41.46L50 72L23.46 45.48H19.2L50 76.26L82.62 43.64C87.0179 39.2309 89.4877 33.2576 89.4877 27.03C89.4877 20.8025 87.0179 14.8292 82.62 10.42Z" fill="#666666"/>
</svg>
