<svg width="100" height="80" viewBox="0 0 100 80" fill="none" xmlns="http://www.w3.org/2000/svg">
<path d="M81.72 22.66C81.9678 22.9083 82.2833 23.0779 82.6271 23.1474C82.9709 23.217 83.3276 23.1834 83.6524 23.051C83.9771 22.9185 84.2556 22.693 84.4526 22.4028C84.6497 22.1127 84.7566 21.7708 84.76 21.42C84.7544 20.9489 84.5683 20.498 84.24 20.16L69.84 5.76001C69.5069 5.43146 69.0579 5.24725 68.59 5.24725C68.1221 5.24725 67.6731 5.43146 67.34 5.76001C67.1739 5.92491 67.0424 6.12128 66.9531 6.33763C66.8638 6.55398 66.8186 6.78597 66.82 7.02001C66.8166 7.25137 66.8611 7.48093 66.9505 7.6943C67.04 7.90768 67.1726 8.10028 67.34 8.26001L69.68 10.62L69.5 10.8L57.2 23.1L57.02 22.92L50 16C49.7538 15.7475 49.4374 15.5747 49.0919 15.5041C48.7463 15.4336 48.3875 15.4684 48.062 15.6042C47.7365 15.74 47.4594 15.9705 47.2664 16.2657C47.0735 16.561 46.9737 16.9074 46.98 17.26C46.9792 17.7226 47.1585 18.1674 47.48 18.5L51.1 22L50.92 22.18L31.18 42C30.1127 43.0602 29.5026 44.4958 29.48 46C29.4773 46.647 29.5855 47.2896 29.8 47.9V48.04L25.42 52.42C24.5859 53.2561 24.1174 54.389 24.1174 55.57C24.1174 56.7511 24.5859 57.8839 25.42 58.72L27.06 60.36L26.9 60.54L15.76 71.74C15.4315 72.0731 15.2473 72.5221 15.2473 72.99C15.2473 73.4579 15.4315 73.9069 15.76 74.24C16.0979 74.5593 16.5451 74.7372 17.01 74.7372C17.4749 74.7372 17.9221 74.5593 18.26 74.24L29.62 62.9L31.26 64.54C32.0961 65.3742 33.229 65.8426 34.41 65.8426C35.5911 65.8426 36.7239 65.3742 37.56 64.54L42 60.16H42.14C42.7528 60.365 43.3939 60.473 44.04 60.48C45.5246 60.4578 46.9433 59.8631 48 58.82L68 38.82L71.56 42.36C71.8919 42.5564 72.2791 42.6384 72.6621 42.5933C73.0451 42.5482 73.4027 42.3785 73.6799 42.1104C73.9571 41.8423 74.1386 41.4906 74.1964 41.1093C74.2542 40.728 74.1852 40.3383 74 40L66.9 32.8L79.38 20.32L81.72 22.66ZM35.06 62C34.8813 62.1678 34.6451 62.2608 34.4 62.26C34.2801 62.2584 34.1616 62.2327 34.0517 62.1846C33.9418 62.1366 33.8426 62.067 33.76 61.98L28 56.24C27.8335 56.0686 27.7403 55.839 27.74 55.6C27.7412 55.3553 27.834 55.1198 28 54.94L32 50.94L32.18 51.12L39.08 58L35.06 62ZM65.32 36.58L45.58 56.32C45.3698 56.5298 45.1202 56.696 44.8457 56.8092C44.5712 56.9225 44.277 56.9805 43.98 56.98C43.375 56.9777 42.7944 56.7412 42.36 56.32L33.68 47.64C33.2586 47.2101 33.0225 46.632 33.0225 46.03C33.0225 45.428 33.2586 44.8499 33.68 44.42L39.2 38.9L42.76 42.44C43.0954 42.7081 43.5172 42.8444 43.946 42.8232C44.3748 42.802 44.7811 42.6248 45.0884 42.3249C45.3956 42.025 45.5827 41.6231 45.6143 41.1949C45.6459 40.7668 45.5199 40.3418 45.26 40L41.7 36.4L41.88 36.22L46.4 31.7L50 35.26C50.3379 35.5793 50.7851 35.7572 51.25 35.7572C51.7149 35.7572 52.1621 35.5793 52.5 35.26C52.8286 34.9269 53.0128 34.4779 53.0128 34.01C53.0128 33.5421 52.8286 33.0931 52.5 32.76L48.9 29.2L53.6 24.52L53.78 24.68L65.48 36.4L65.32 36.58ZM76.7 18L64.4 30.3L64.22 30.12L59.7 25.6L59.88 25.44L72.18 13.12L72.36 13.3L76.88 17.82L76.7 18Z" fill="#008FD5"/>
</svg>
