<svg width="100" height="80" viewBox="0 0 100 80" fill="none" xmlns="http://www.w3.org/2000/svg">
<path d="M83.86 48.14C83.8596 46.2341 83.3145 44.368 82.2891 42.7615C81.2636 41.155 79.8003 39.875 78.0717 39.0723C76.3431 38.2696 74.4211 37.9776 72.5321 38.2307C70.6431 38.4838 68.8657 39.2714 67.4094 40.5008C65.953 41.7303 64.8783 43.3503 64.3119 45.17C63.7454 46.9898 63.7108 48.9336 64.2121 50.7723C64.7134 52.6111 65.7297 54.2684 67.1413 55.5489C68.553 56.8294 70.3012 57.6798 72.18 58C71.8937 60.5606 71.0763 63.0333 69.78 65.26C66.44 71 59.36 71.82 55.46 71.82C54.2 71.82 53.2 71.82 52.72 71.7C46.14 71.04 42.34 69.12 39.98 65.32C38.2968 62.1736 37.4498 58.6477 37.52 55.08C39.566 53.3148 40.943 50.8998 41.42 48.24C41.4328 47.6933 41.5647 47.156 41.8065 46.6655C42.0483 46.1749 42.3941 45.7431 42.82 45.4C52.72 36.2 55.46 14.3 55.6 13.4C55.7143 12.6223 55.597 11.8282 55.2626 11.1168C54.9283 10.4054 54.3917 9.80826 53.72 9.40001C53.003 8.9286 52.2389 8.53313 51.44 8.22001C51.1873 8.09631 50.9267 7.98941 50.66 7.90001C50.4589 7.07492 49.9871 6.341 49.3201 5.81536C48.6531 5.28972 47.8292 5.00266 46.98 5.00001C46.0758 5.18362 45.2628 5.67419 44.6789 6.3886C44.095 7.10301 43.776 7.99732 43.776 8.92001C43.776 9.84269 44.095 10.737 44.6789 11.4514C45.2628 12.1658 46.0758 12.6564 46.98 12.84C47.5051 12.8502 48.0264 12.7484 48.5092 12.5415C48.992 12.3346 49.4252 12.0273 49.78 11.64C49.96 11.48 50 11.26 50.14 11.08C50.7991 11.3565 51.4289 11.6982 52.02 12.1C52.1569 12.1854 52.267 12.3076 52.3377 12.4526C52.4084 12.5976 52.4369 12.7596 52.42 12.92C51.52 20.8 48 35.76 41.2 42.5H40.86H30.62C23.74 35.58 20.3 20.74 19.32 12.92C19.2754 12.744 19.2905 12.5582 19.3629 12.3917C19.4353 12.2252 19.5609 12.0874 19.72 12C20.3125 11.606 20.9421 11.2711 21.6 11C21.9391 11.5358 22.4088 11.9766 22.9651 12.281C23.5214 12.5854 24.1459 12.7433 24.78 12.74C25.3106 12.7596 25.8395 12.6696 26.3336 12.4755C26.8278 12.2814 27.2766 11.9875 27.6521 11.6121C28.0275 11.2367 28.3214 10.7878 28.5155 10.2936C28.7096 9.79947 28.7996 9.27057 28.78 8.74001C28.7286 7.71418 28.2846 6.74742 27.54 6.04C26.7953 5.33258 25.8071 4.93872 24.78 4.94001C23.9472 4.97104 23.1449 5.26142 22.4851 5.77058C21.8253 6.27974 21.3411 6.98226 21.1 7.78001C20.8332 7.86941 20.5727 7.97631 20.32 8.10001C19.5105 8.44179 18.7339 8.85685 18 9.34001C17.3356 9.75363 16.8072 10.3531 16.4801 11.0641C16.1531 11.7751 16.0418 12.5664 16.16 13.34V13.52C17.12 20.48 20.4 37.52 28.98 45.52C29.3975 45.8981 29.7334 46.3574 29.9673 46.8698C30.2011 47.3822 30.3279 47.9369 30.34 48.5C30.8081 51.1922 32.2276 53.6266 34.34 55.36C34.2651 59.4898 35.2791 63.5665 37.28 67.18C40.16 71.82 44.8 74.26 52.32 75C53.3817 75.1286 54.4506 75.1887 55.52 75.18C63.22 75.18 69.38 72.24 72.44 67.18C74.094 64.3783 75.0986 61.2413 75.38 58C77.7369 57.6375 79.8868 56.4447 81.4417 54.6368C82.9967 52.8288 83.8543 50.5247 83.86 48.14ZM80.72 48.14C80.72 49.5087 80.3141 50.8466 79.5538 51.9846C78.7934 53.1225 77.7126 54.0095 76.4482 54.5332C75.1837 55.057 73.7923 55.194 72.45 54.927C71.1076 54.66 69.8746 54.001 68.9068 53.0332C67.939 52.0654 67.28 50.8324 67.013 49.49C66.7459 48.1477 66.883 46.7563 67.4067 45.4918C67.9305 44.2274 68.8175 43.1466 69.9554 42.3862C71.0934 41.6259 72.4313 41.22 73.8 41.22C74.7114 41.2226 75.6133 41.4047 76.4543 41.7559C77.2953 42.1071 78.0589 42.6205 78.7015 43.2668C79.344 43.9131 79.853 44.6796 80.1994 45.5227C80.5457 46.3657 80.7226 47.2686 80.72 48.18V48.14ZM36 52.34C34.7026 51.0656 33.8416 49.4134 33.54 47.62V47.44C33.54 47.04 33.32 46.52 33.2 46H38.8C38.62 46.64 38.5 47.26 38.36 47.88C38.0024 49.5568 37.1852 51.1011 36 52.34ZM73.8 44C73.0089 44 72.2355 44.2346 71.5777 44.6741C70.9199 45.1137 70.4072 45.7384 70.1045 46.4693C69.8017 47.2002 69.7225 48.0044 69.8769 48.7804C70.0312 49.5563 70.4122 50.269 70.9716 50.8284C71.531 51.3878 72.2437 51.7688 73.0196 51.9231C73.7956 52.0775 74.5998 51.9983 75.3307 51.6955C76.0616 51.3928 76.6863 50.8801 77.1259 50.2223C77.5654 49.5645 77.8 48.7911 77.8 48C77.8 46.9391 77.3786 45.9217 76.6284 45.1716C75.8783 44.4214 74.8609 44 73.8 44ZM73.8 49.56C73.4346 49.5176 73.0975 49.3424 72.8528 49.0677C72.6081 48.7929 72.4729 48.4379 72.4729 48.07C72.4729 47.7021 72.6081 47.3471 72.8528 47.0723C73.0975 46.7976 73.4346 46.6224 73.8 46.58C74.1654 46.6224 74.5025 46.7976 74.7472 47.0723C74.9919 47.3471 75.1271 47.7021 75.1271 48.07C75.1271 48.4379 74.9919 48.7929 74.7472 49.0677C74.5025 49.3424 74.1654 49.5176 73.8 49.56Z" fill="#008FD5"/>
</svg>
