<svg width="100" height="80" viewBox="0 0 100 80" fill="none" xmlns="http://www.w3.org/2000/svg">
<path d="M42.46 17.9999C42.5383 15.7281 42.0267 13.4747 40.9753 11.4594C39.9238 9.44401 38.3681 7.73537 36.46 6.49995C34.1261 5.08333 31.4502 4.32966 28.72 4.31995H27.7C24.2471 4.20346 20.8308 5.05829 17.8396 6.78722C14.8485 8.51615 12.4025 11.0498 10.78 14.0999C8.84076 17.8461 7.88422 22.0232 7.99999 26.2399V26.4399C7.99999 26.9999 7.99999 27.5799 8.13999 28.1199V28.2599C8.13999 29.4799 8.33999 30.7399 8.51999 31.9799C8.93656 35.6734 10.1586 39.2304 12.1 42.3999C16.1 48.5199 21.4 51.4199 27.88 51.0199C29.5621 50.9698 31.2149 50.5663 32.7309 49.8359C34.247 49.1054 35.5925 48.0642 36.68 46.7799C38.2457 44.9538 39.1354 42.6446 39.2 40.2399C39.1758 38.9392 38.8785 37.6581 38.3272 36.4797C37.7759 35.3014 36.983 34.2521 36 33.3999C35.7009 33.1068 35.2988 32.9426 34.88 32.9426C34.4612 32.9426 34.0591 33.1068 33.76 33.3999C33.6173 33.5522 33.5066 33.7316 33.4345 33.9274C33.3623 34.1232 33.3302 34.3315 33.34 34.5399C33.3425 34.7479 33.3883 34.9532 33.4743 35.1425C33.5604 35.3319 33.6849 35.5013 33.84 35.6399C34.4786 36.1976 34.996 36.8803 35.3603 37.6458C35.7246 38.4113 35.928 39.2434 35.958 40.0906C35.988 40.9379 35.8439 41.7823 35.5347 42.5716C35.2254 43.361 34.7575 44.0786 34.16 44.6799C33.3541 45.6383 32.3507 46.4114 31.2186 46.9464C30.0864 47.4814 28.8521 47.7658 27.6 47.7799H26.64C21.76 47.7799 17.84 45.4199 14.64 40.5399C12.9395 37.7603 11.8741 34.6392 11.52 31.3999C11.36 30.2199 11.26 29.0199 11.16 27.7599V27.5999L11.04 26.2799C10.9471 22.6015 11.7938 18.9601 13.5 15.6999C14.9101 12.9897 17.0906 10.7573 19.7669 9.28386C22.4433 7.81045 25.4958 7.16192 28.54 7.41995C30.7092 7.41942 32.8381 8.00692 34.7 9.11995C36.1787 10.0661 37.3823 11.3848 38.1898 12.9436C38.9973 14.5024 39.3802 16.2463 39.3 17.9999C39.3434 19.2117 39.1038 20.417 38.6 21.5199C38.449 21.9126 38.449 22.3473 38.6 22.7399C38.7553 23.1244 39.0474 23.4379 39.42 23.6199C39.7903 23.7657 40.202 23.7664 40.5728 23.6218C40.9436 23.4772 41.2461 23.198 41.42 22.8399C42.1272 21.3257 42.4828 19.6711 42.46 17.9999Z" fill="#666666"/>
<path d="M43.5801 31.14C40.7489 28.0174 37.1181 25.7283 33.0801 24.52H32.9801V24.42C32.5899 23.511 32.0931 22.6516 31.5001 21.86L31.3801 21.66L31.5601 21.52C32.1779 20.9456 32.6921 20.269 33.0801 19.52L34.6801 16.8C34.7753 16.6338 34.8197 16.4435 34.8079 16.2524C34.7962 16.0613 34.7287 15.8778 34.6138 15.7246C34.4989 15.5715 34.3417 15.4553 34.1615 15.3905C33.9814 15.3257 33.7862 15.3151 33.6001 15.36C33.3503 15.4343 33.1367 15.5981 33.0001 15.82L31.4001 18.54C31.1477 19.0093 30.8387 19.4458 30.4801 19.84L30.2601 20.04L30.0001 19.8C29.4382 18.9981 29.0374 18.0947 28.8201 17.14C28.7677 16.8858 28.6166 16.6629 28.4001 16.52C28.1865 16.3838 27.9291 16.3337 27.6801 16.38C27.4296 16.433 27.2098 16.582 27.0677 16.7951C26.9257 17.0081 26.8727 17.2683 26.9201 17.52C27.3715 19.2475 28.1901 20.8574 29.3201 22.24C30.0069 23.1097 30.5908 24.056 31.0601 25.06C31.151 25.2599 31.2246 25.4674 31.2801 25.68C31.4361 26.1785 31.517 26.6975 31.5201 27.22C31.4964 28.0667 31.2553 28.8932 30.8201 29.62C30.1028 30.8192 29.1421 31.8548 28.0001 32.66L27.8801 32.76L23.0801 30.54L21.4601 30C21.2203 29.9584 20.9737 30.0074 20.7682 30.1376C20.5626 30.2678 20.4128 30.4698 20.348 30.7043C20.2831 30.9388 20.3078 31.189 20.4172 31.4063C20.5267 31.6236 20.713 31.7925 20.9401 31.88L22.3601 32.28L25.8401 33.88L25.3601 34.1C24.3765 34.5663 23.3522 34.9412 22.3001 35.22C22.0348 35.2518 21.7931 35.3877 21.6281 35.5977C21.4631 35.8077 21.3882 36.0747 21.4201 36.34C21.4519 36.6052 21.5878 36.8469 21.7978 37.0119C22.0078 37.1769 22.2748 37.2518 22.5401 37.22H22.7801C24.672 36.7266 26.4789 35.9513 28.1401 34.92C28.3651 34.8741 28.5649 34.7457 28.7001 34.56C30.1745 33.5722 31.4166 32.2755 32.3401 30.76C32.7725 30.0199 33.0641 29.2062 33.2001 28.36V28.06L33.4801 28.18C36.3586 29.1922 38.9325 30.9197 40.9601 33.2C44.5201 37.62 44.2801 43.98 43.4601 48.52C43.0601 50.68 42.5001 52.9 41.9401 55.02C40.9709 58.4827 40.3017 62.0224 39.9401 65.6C39.7049 68.6701 39.9341 71.7582 40.6201 74.76C40.67 74.9661 40.76 75.1605 40.885 75.3318C41.01 75.5032 41.1675 75.6483 41.3486 75.7588C41.7143 75.982 42.1537 76.0507 42.5701 75.95C42.7762 75.9 42.9706 75.81 43.1419 75.685C43.3133 75.56 43.4584 75.4025 43.5689 75.2214C43.6794 75.0403 43.7532 74.8393 43.786 74.6297C43.8188 74.4201 43.81 74.2061 43.7601 74C43.1609 71.2835 42.9588 68.4944 43.1601 65.72C43.5271 62.3336 44.1965 58.987 45.1601 55.72C45.7201 53.54 46.3001 51.28 46.7201 49C47.6401 43.72 47.8601 36.44 43.5801 31.14Z" fill="#666666"/>
<path d="M72.12 51.02H73.3C79.3 51.02 84.16 48.1 87.9 42.36C89.8331 39.2083 91.0549 35.6727 91.48 32C91.66 30.76 91.76 29.5 91.86 28.28V28.14C91.86 27.6 91.86 27.02 92 26.46V26.26C92.1096 22.0415 91.1461 17.8643 89.2 14.12C87.5043 10.9158 84.9075 8.27839 81.7301 6.53328C78.5526 4.78816 74.9336 4.01178 71.32 4.29996C68.5985 4.30726 65.9301 5.05385 63.6 6.45996C61.6918 7.69539 60.1362 9.40402 59.0847 11.4194C58.0332 13.4348 57.5217 15.6881 57.6 17.96C57.5493 19.6466 57.8845 21.3226 58.58 22.86C58.7538 23.218 59.0564 23.4972 59.4272 23.6418C59.7979 23.7864 60.2096 23.7857 60.58 23.64C60.9525 23.4579 61.2446 23.1444 61.4 22.76C61.5509 22.3673 61.5509 21.9326 61.4 21.54C60.8931 20.4309 60.6534 19.2185 60.7 18C60.6162 16.243 60.9974 14.495 61.8051 12.9324C62.6127 11.3698 63.8182 10.0478 65.3 9.09996C67.1619 7.98694 69.2907 7.39944 71.46 7.39996H72.38C75.2777 7.30555 78.1428 8.03537 80.6423 9.5046C83.1417 10.9738 85.173 13.1222 86.5 15.7C88.1674 18.9564 88.9795 22.5834 88.86 26.24C88.86 26.72 88.86 27.16 88.74 27.6V27.88C88.74 29.14 88.54 30.34 88.38 31.52C88.022 34.7584 86.9569 37.8786 85.26 40.66C81.9 45.84 77.68 48.18 72.34 47.86C71.0878 47.8458 69.8535 47.5615 68.7214 47.0265C67.5892 46.4914 66.5859 45.7183 65.78 44.76C65.1763 44.1653 64.7009 43.4531 64.3832 42.6675C64.0655 41.8819 63.9123 41.0395 63.9329 40.1923C63.9535 39.3452 64.1476 38.5112 64.5031 37.742C64.8586 36.9728 65.3681 36.2846 66 35.72C66.1575 35.579 66.2835 35.4064 66.3697 35.2134C66.4558 35.0204 66.5002 34.8113 66.5 34.6C66.5082 34.3947 66.4753 34.1899 66.4032 33.9975C66.331 33.8052 66.2211 33.6292 66.08 33.48C65.7891 33.181 65.3964 33.0025 64.98 32.98C64.5812 32.9857 64.1978 33.1348 63.9 33.4C62.9315 34.2593 62.1536 35.3119 61.6163 36.4899C61.079 37.6679 60.7941 38.9453 60.78 40.24C60.8445 42.6446 61.7343 44.9538 63.3 46.78C64.3897 48.0667 65.7384 49.1094 67.2581 49.8399C68.7778 50.5705 70.4344 50.9726 72.12 51.02Z" fill="#666666"/>
<path d="M79.74 30.76C79.6699 30.5114 79.5046 30.3005 79.2798 30.1732C79.0551 30.0458 78.7892 30.0123 78.54 30.08L76.92 30.54L72.16 32.76L72 32.66C70.8217 31.8657 69.8262 30.8293 69.08 29.62C68.6447 28.8933 68.4037 28.0668 68.38 27.22C68.383 26.6976 68.4639 26.1786 68.62 25.68C68.6754 25.4674 68.749 25.26 68.84 25.06C69.3052 24.0644 69.8822 23.125 70.56 22.26C71.7002 20.8738 72.5259 19.2565 72.98 17.52C73.0273 17.2684 72.9743 17.0082 72.8323 16.7951C72.6902 16.5821 72.4705 16.4331 72.22 16.38C71.9709 16.3338 71.7136 16.3838 71.5 16.52C71.2834 16.6629 71.1324 16.8859 71.08 17.14C70.8932 18.0875 70.5266 18.9905 70 19.8L69.84 20.04L69.62 19.84C69.2613 19.4459 68.9523 19.0093 68.7 18.54L67.1 15.82C66.9633 15.5981 66.7497 15.4344 66.5 15.36H66.2C66.0295 15.3569 65.862 15.4057 65.72 15.5C65.4997 15.6296 65.3387 15.8402 65.2715 16.0868C65.2042 16.3334 65.236 16.5965 65.36 16.82L66.96 19.54C67.3479 20.2891 67.8621 20.9656 68.48 21.54L68.66 21.68L68.54 21.88C67.9469 22.6717 67.4501 23.531 67.06 24.44V24.54C63.022 25.7483 59.3911 28.0375 56.56 31.16C52.28 36.46 52.56 43.74 53.44 48.9C53.86 51.18 54.44 53.44 55 55.62C55.9636 58.887 56.6329 62.2337 57 65.62C57.2012 68.3945 56.9991 71.1835 56.4 73.9C56.3418 74.0968 56.3247 74.3034 56.3496 74.5071C56.3745 74.7108 56.4409 74.9072 56.5447 75.0841C56.6485 75.2611 56.7876 75.4149 56.9532 75.536C57.1189 75.6571 57.3076 75.7429 57.5078 75.7882C57.7079 75.8334 57.9152 75.8371 58.1168 75.799C58.3185 75.7609 58.5101 75.6819 58.68 75.5668C58.8499 75.4517 58.9943 75.3029 59.1044 75.1298C59.2144 74.9566 59.2878 74.7627 59.32 74.56C60.0059 71.5582 60.2351 68.4702 60 65.4C59.6439 61.8414 58.9746 58.3211 58 54.88C57.44 52.7 56.88 50.48 56.48 48.32C55.66 43.78 55.42 37.42 58.98 33C60.9481 30.7574 63.4429 29.0392 66.24 28L66.52 27.88V28.18C66.656 29.0262 66.9475 29.84 67.38 30.58C68.2972 32.1004 69.5404 33.3982 71.02 34.38C71.1551 34.5657 71.3549 34.6941 71.58 34.74H71.7C73.3533 35.7493 75.1457 36.5107 77.02 37H77.26C77.5252 37.0292 77.7911 36.9518 77.9993 36.7849C78.2075 36.618 78.3408 36.3752 78.37 36.11C78.3991 35.8448 78.3218 35.5788 78.1549 35.3707C77.9879 35.1625 77.7452 35.0292 77.48 35C76.4353 34.7179 75.4179 34.3431 74.44 33.88L74.16 34L77.6 32.42L79.06 32C79.3146 31.9257 79.5292 31.7534 79.6568 31.5208C79.7843 31.2883 79.8142 31.0146 79.74 30.76Z" fill="#666666"/>
</svg>
