<svg width="100" height="80" viewBox="0 0 100 80" fill="none" xmlns="http://www.w3.org/2000/svg">
<path d="M51 48L44 37.22C43.64 36.86 43.32 36.54 42.9 36.54C42.3932 36.5258 41.9 36.7045 41.52 37.04L31.66 46.8L31.32 46.58C29.6466 45.438 27.6659 44.8313 25.64 44.84C22.9309 44.8342 20.329 45.8979 18.4 47.8C16.481 49.7033 15.3766 52.2778 15.32 54.98C15.2966 56.3217 15.5571 57.6532 16.0845 58.8872C16.6118 60.1211 17.3941 61.2296 18.38 62.14C19.9607 63.6808 21.9799 64.6939 24.16 65.04H24.54V65.4C24.7504 67.6804 25.7723 69.8095 27.42 71.4C29.3135 73.3334 31.8941 74.4404 34.6 74.48C35.9408 74.4971 37.2704 74.2338 38.5034 73.7068C39.7365 73.1798 40.8457 72.4009 41.76 71.42C43.4224 69.7342 44.4533 67.5272 44.6792 65.1703C44.905 62.8135 44.312 60.4508 43 58.48L42.76 58.14L50.76 50.14C51.0253 49.8568 51.192 49.4955 51.2353 49.1099C51.2785 48.7242 51.196 48.3349 51 48ZM39.7 57.1C39.387 57.4057 39.2073 57.8226 39.2 58.26C39.204 58.4736 39.2503 58.6843 39.3361 58.8799C39.4219 59.0756 39.5456 59.2523 39.7 59.4C40.3554 60.0746 40.8698 60.8731 41.2132 61.7487C41.5566 62.6244 41.7221 63.5597 41.7 64.5C41.6877 65.3792 41.495 66.2464 41.1337 67.048C40.7725 67.8496 40.2505 68.5685 39.6 69.16C38.2827 70.4538 36.5064 71.173 34.66 71.16H34.6C33.7339 71.1447 32.8799 70.9543 32.0894 70.6003C31.2988 70.2463 30.5881 69.7359 30 69.1C29.0241 68.0829 28.3822 66.792 28.16 65.4V64.94H28.6C30.307 64.4519 31.8577 63.5283 33.1 62.26C33.2594 62.1139 33.3867 61.9362 33.4738 61.7382C33.5609 61.5402 33.6059 61.3263 33.6059 61.11C33.6059 60.8937 33.5609 60.6798 33.4738 60.4818C33.3867 60.2838 33.2594 60.1061 33.1 59.96C32.9494 59.8082 32.7702 59.6878 32.5729 59.6055C32.3755 59.5233 32.1638 59.481 31.95 59.481C31.7362 59.481 31.5245 59.5233 31.3271 59.6055C31.1297 59.6878 30.9506 59.8082 30.8 59.96C29.589 61.0742 28.0551 61.7746 26.42 61.96C25.4334 62.0546 24.4383 61.9237 23.5097 61.5772C22.5811 61.2307 21.7435 60.6777 21.06 59.96C20.4138 59.3242 19.9034 58.5639 19.5596 57.7251C19.2159 56.8863 19.0459 55.9864 19.06 55.08C18.9815 54.1472 19.1092 53.2085 19.4341 52.3306C19.759 51.4527 20.2731 50.657 20.94 50C22.2978 48.6935 24.1159 47.9749 26 48C26.8711 48.0041 27.7325 48.1832 28.5331 48.5268C29.3336 48.8704 30.0569 49.3714 30.66 50C30.9633 50.3005 31.373 50.469 31.8 50.469C32.2269 50.469 32.6366 50.3005 32.94 50L42.4 40.54L47.94 48.54L39.7 57.1Z" fill="#008FD5"/>
<path d="M47.28 33.16L54.82 44C54.9498 44.1762 55.1144 44.324 55.3036 44.4341C55.4928 44.5442 55.7026 44.6142 55.92 44.64H56.14C56.3551 44.6458 56.5689 44.604 56.766 44.5176C56.963 44.4311 57.1386 44.3022 57.28 44.14L68.36 33.08L68.7 33.34C70.3787 34.4899 72.3876 35.0589 74.42 34.96C75.761 34.9784 77.091 34.7156 78.3242 34.1885C79.5574 33.6615 80.6665 32.8819 81.58 31.9C83.5093 29.9938 84.6211 27.4116 84.68 24.7C84.6583 23.3465 84.3576 22.012 83.7967 20.78C83.2358 19.548 82.4267 18.445 81.42 17.54C79.8978 15.9233 77.8622 14.8843 75.66 14.6H75.3V14.22C75.0478 12.0352 74.0438 10.006 72.46 8.47999C70.5302 6.58151 67.9271 5.52446 65.22 5.53999C62.4789 5.54339 59.8413 6.587 57.84 8.45999C56.1889 10.1488 55.1671 12.3529 54.945 14.7042C54.723 17.0556 55.3142 19.412 56.62 21.38L56.86 21.72L47.52 31.06C47.258 31.3368 47.0929 31.6913 47.0497 32.07C47.0064 32.4487 47.0872 32.8312 47.28 33.16ZM60.3 23C60.4573 22.8505 60.5826 22.6706 60.6682 22.4712C60.7539 22.2718 60.798 22.057 60.798 21.84C60.798 21.623 60.7539 21.4082 60.6682 21.2088C60.5826 21.0094 60.4573 20.8295 60.3 20.68C59.6437 20.006 59.1286 19.2077 58.7852 18.3319C58.4417 17.4561 58.2768 16.5205 58.3 15.58C58.3146 14.7012 58.5084 13.8347 58.8695 13.0335C59.2306 12.2322 59.7514 11.513 60.4 10.92C61.2837 10.0115 62.4038 9.36816 63.6337 9.06241C64.8637 8.75666 66.1546 8.80073 67.3608 9.18963C68.567 9.57854 69.6406 10.2968 70.4603 11.2634C71.28 12.23 71.8133 13.4064 72 14.66V15.12L71.56 15.22C69.8305 15.7227 68.2688 16.6832 67.04 18C66.8856 18.1477 66.7619 18.3244 66.6761 18.5201C66.5903 18.7157 66.5441 18.9264 66.54 19.14C66.5473 19.5774 66.727 19.9943 67.04 20.3C67.1877 20.4568 67.3659 20.5817 67.5637 20.6671C67.7615 20.7525 67.9746 20.7965 68.19 20.7965C68.4054 20.7965 68.6185 20.7525 68.8163 20.6671C69.0141 20.5817 69.1923 20.4568 69.34 20.3C70.5463 19.1787 72.0826 18.4771 73.72 18.3C74.6986 18.2591 75.6755 18.4151 76.5928 18.7586C77.51 19.1022 78.349 19.6263 79.06 20.3C79.7037 20.9335 80.2127 21.6905 80.5564 22.5257C80.9001 23.3609 81.0714 24.2569 81.06 25.16C81.0714 26.0335 80.8992 26.8996 80.5547 27.7023C80.2102 28.5051 79.701 29.2265 79.06 29.82C78.3929 30.4858 77.5958 31.0071 76.7183 31.3512C75.8408 31.6953 74.9019 31.8549 73.96 31.82C73.0887 31.817 72.2269 31.6384 71.4262 31.2948C70.6255 30.9511 69.9024 30.4495 69.3 29.82C69.1541 29.6638 68.9775 29.5392 68.7814 29.454C68.5853 29.3688 68.3738 29.3249 68.16 29.3249C67.9462 29.3249 67.7347 29.3688 67.5386 29.454C67.3425 29.5392 67.1659 29.6638 67.02 29.82L56.26 40.58L50.72 32.58L60.3 23Z" fill="#008FD5"/>
<path d="M26.22 34C25.988 33.9744 25.7533 33.998 25.5311 34.0693C25.3089 34.1405 25.1043 34.2578 24.9304 34.4135C24.7566 34.5692 24.6176 34.7598 24.5224 34.9729C24.4272 35.1859 24.3781 35.4166 24.3781 35.65C24.3781 35.8833 24.4272 36.1141 24.5224 36.3271C24.6176 36.5402 24.7566 36.7307 24.9304 36.8864C25.1043 37.0421 25.3089 37.1594 25.5311 37.2307C25.7533 37.302 25.988 37.3256 26.22 37.3H32.68C32.9 37.3182 33.1212 37.2882 33.3285 37.2122C33.5357 37.1362 33.7239 37.016 33.8799 36.86C34.036 36.7039 34.1562 36.5157 34.2322 36.3085C34.3082 36.1012 34.3382 35.88 34.32 35.66C34.3413 35.4384 34.3136 35.2149 34.239 35.0052C34.1644 34.7955 34.0447 34.6047 33.8882 34.4464C33.7318 34.2881 33.5425 34.166 33.3337 34.0889C33.125 34.0117 32.9018 33.9814 32.68 34H26.22Z" fill="#008FD5"/>
<path d="M43.44 14.6C43.2185 14.5787 42.9949 14.6064 42.7852 14.681C42.5755 14.7556 42.3848 14.8753 42.2264 15.0318C42.0681 15.1882 41.9461 15.3775 41.8689 15.5863C41.7918 15.795 41.7614 16.0182 41.78 16.24V22.7C41.7544 22.9319 41.7781 23.1667 41.8493 23.3889C41.9206 23.6111 42.0379 23.8157 42.1936 23.9896C42.3493 24.1634 42.5399 24.3024 42.7529 24.3976C42.966 24.4927 43.1967 24.5419 43.43 24.5419C43.6634 24.5419 43.8941 24.4927 44.1071 24.3976C44.3202 24.3024 44.5108 24.1634 44.6665 23.9896C44.8222 23.8157 44.9395 23.6111 45.0107 23.3889C45.082 23.1667 45.1056 22.9319 45.08 22.7V16.24C45.0982 16.02 45.0682 15.7988 44.9923 15.5915C44.9163 15.3843 44.7961 15.1961 44.64 15.04C44.4839 14.884 44.2957 14.7638 44.0885 14.6878C43.8813 14.6118 43.66 14.5818 43.44 14.6Z" fill="#008FD5"/>
<path d="M29.38 23.86L33.68 28.16C33.9884 28.457 34.3926 28.6342 34.82 28.66C35.2531 28.6338 35.6635 28.4569 35.98 28.16C36.293 27.8543 36.4727 27.4375 36.48 27C36.4759 26.7864 36.4297 26.5757 36.3439 26.3801C36.258 26.1844 36.1344 26.0077 35.98 25.86L31.68 21.54C31.3743 21.227 30.9574 21.0473 30.52 21.04C30.3064 21.0441 30.0957 21.0903 29.9 21.1761C29.7044 21.262 29.5277 21.3856 29.38 21.54C29.22 21.6879 29.0924 21.8674 29.0051 22.067C28.9178 22.2666 28.8727 22.4821 28.8727 22.7C28.8727 22.9179 28.9178 23.1334 29.0051 23.333C29.0924 23.5327 29.22 23.7121 29.38 23.86Z" fill="#008FD5"/>
</svg>
