<svg width="100" height="80" viewBox="0 0 100 80" fill="none" xmlns="http://www.w3.org/2000/svg">
<g clip-path="url(#clip0_164_85)">
<path d="M72.8 50.12C75.8579 46.8634 78.0724 42.9081 79.2506 38.5991C80.4288 34.2901 80.5347 29.7583 79.5592 25.399C78.5837 21.0396 76.5564 16.9851 73.6541 13.5892C70.7518 10.1933 67.0626 7.55915 62.9085 5.91644C58.7543 4.27373 54.2613 3.6724 49.8214 4.1649C45.3814 4.65741 41.1294 6.22879 37.4363 8.74198C33.7431 11.2552 30.721 14.6338 28.6334 18.5832C26.5459 22.5326 25.4564 26.9328 25.46 31.4C25.46 32.28 25.46 33.16 25.6 34C24.66 36 23.36 38.48 22.28 40.62C21.72 41.74 21.2 42.74 20.82 43.48C20.64 43.84 20.5 44.14 20.38 44.36L20.26 44.6C19.9459 45.2978 19.8116 46.0632 19.8695 46.8262C19.9273 47.5892 20.1754 48.3256 20.5912 48.9681C21.0069 49.6105 21.5769 50.1386 22.2493 50.504C22.9216 50.8695 23.6748 51.0606 24.44 51.06H26.44V59.22C26.4453 60.776 27.0672 62.2665 28.1693 63.3649C29.2714 64.4632 30.764 65.08 32.32 65.08H40.92L43.84 74.92C43.8897 75.078 43.97 75.2248 44.0763 75.3517C44.1827 75.4787 44.3131 75.5835 44.46 75.66C44.612 75.7238 44.7752 75.7567 44.94 75.7567C45.1049 75.7567 45.268 75.7238 45.42 75.66L76.5 66.22C76.8239 66.1184 77.0951 65.8941 77.2558 65.5951C77.4165 65.2961 77.4539 64.9462 77.36 64.62L72.8 50.12ZM45.86 73.14L43.02 63.64C42.9455 63.3742 42.7858 63.1402 42.5654 62.974C42.345 62.8077 42.0761 62.7185 41.8 62.72H32.26C31.3795 62.72 30.535 62.3702 29.9124 61.7476C29.2898 61.125 28.94 60.2805 28.94 59.4V50C28.9373 49.6615 28.8007 49.338 28.56 49.1C28.4412 48.9835 28.3005 48.8918 28.146 48.83C27.9916 48.7682 27.8264 48.7376 27.66 48.74H24.36C23.8296 48.74 23.3209 48.5293 22.9458 48.1542C22.5707 47.7791 22.36 47.2704 22.36 46.74C22.3653 46.451 22.4264 46.1658 22.54 45.9L22.72 45.54C23.54 43.96 26.4 38.3 28.08 34.92C28.1795 34.7008 28.2209 34.4598 28.2 34.22C28.0792 33.2846 28.0124 32.3431 28 31.4C28.0019 27.32 29.0087 23.3033 30.9314 19.7049C32.8542 16.1064 35.6338 13.0369 39.0245 10.7677C42.4151 8.49851 46.3126 7.09944 50.3724 6.69413C54.4321 6.28882 58.5293 6.88975 62.3017 8.44382C66.074 9.99789 69.4056 12.4572 72.0018 15.6046C74.5981 18.7519 76.3791 22.4902 77.1875 26.4893C77.9959 30.4884 77.8069 34.625 76.637 38.5337C75.4672 42.4423 73.3525 46.0026 70.48 48.9C70.3133 49.0585 70.1948 49.2609 70.1382 49.4838C70.0816 49.7068 70.0892 49.9412 70.16 50.16L74.5 64.44L45.86 73.14Z" fill="#008FD5"/>
<path d="M70.54 32.26C71.3207 31.6638 71.9527 30.8949 72.3865 30.0135C72.8202 29.1322 73.0439 28.1623 73.04 27.18C73.0317 25.5605 72.4264 24.001 71.34 22.8C71.34 22.56 71.34 22.32 71.34 22.08C71.3512 20.658 70.884 19.2735 70.0134 18.149C69.1428 17.0245 67.9195 16.2254 66.54 15.88C66.0518 14.8172 65.2721 13.9148 64.2915 13.2775C63.3108 12.6403 62.1695 12.2944 61 12.28C60.5289 12.2815 60.0593 12.3351 59.6 12.44C59.0274 11.8526 58.3432 11.3855 57.5877 11.0661C56.8321 10.7467 56.0203 10.5814 55.2 10.58C54.0219 10.5792 52.8688 10.9196 51.88 11.56C50.8912 10.9196 49.7381 10.5792 48.56 10.58C47.2185 10.58 45.9132 11.0151 44.84 11.82C44.0891 12.4077 43.475 13.1515 43.04 14H42.76C41.2199 14.0028 39.7364 14.5805 38.6 15.62C37.6691 16.476 37.0146 17.5901 36.72 18.82C35.4243 19.3836 34.3224 20.3151 33.5509 21.4989C32.7795 22.6828 32.3723 24.067 32.38 25.48C32.3594 27.3752 33.0766 29.2041 34.38 30.58C35.0339 31.2492 35.8146 31.7814 36.6766 32.1454C37.5385 32.5094 38.4644 32.6979 39.4 32.7C40.7691 32.6986 42.1064 32.2877 43.24 31.52C44.2844 32.2854 45.5452 32.6987 46.84 32.7C47.3543 32.6936 47.8629 32.5919 48.34 32.4C48.845 32.173 49.3271 31.8984 49.78 31.58L50.16 31.36C51.317 31.3999 52.4282 31.8219 53.32 32.56C53.7362 32.9042 54.0825 33.3252 54.34 33.8C54.5731 34.23 54.6967 34.7108 54.7 35.2V44.28C54.7027 44.6184 54.8393 44.942 55.08 45.18C55.1988 45.2964 55.3395 45.3882 55.494 45.45C55.6485 45.5118 55.8137 45.5424 55.98 45.54H61.78C61.9464 45.5424 62.1115 45.5118 62.266 45.45C62.4205 45.3882 62.5612 45.2964 62.68 45.18C62.9207 44.942 63.0573 44.6184 63.06 44.28C63.0677 43.744 63.1145 43.2092 63.2 42.68C63.3561 41.6602 63.6244 40.6608 64 39.7C64.1254 39.3476 64.2933 39.0118 64.5 38.7C64.5568 38.6182 64.624 38.5443 64.7 38.48C64.9417 38.4058 65.1893 38.3523 65.44 38.32C66.0452 38.2362 66.6412 38.0956 67.22 37.9C67.8035 37.7166 68.3372 37.4019 68.78 36.98C69.4094 36.3755 69.8829 35.6275 70.16 34.8C70.4287 33.9807 70.5572 33.122 70.54 32.26ZM68.54 30.5C68.3233 30.6248 68.1486 30.8112 68.0382 31.0356C67.9278 31.26 67.8867 31.5121 67.92 31.76C67.9292 31.9265 67.9292 32.0934 67.92 32.26C67.9341 33.0015 67.7695 33.7355 67.44 34.4C67.3151 34.6657 67.1383 34.9037 66.92 35.1C66.7593 35.266 66.5601 35.3897 66.34 35.46C65.8752 35.6063 65.4007 35.7199 64.92 35.8C64.4916 35.8504 64.0694 35.9442 63.66 36.08C63.2736 36.2463 62.9261 36.4916 62.64 36.8C62.1972 37.3168 61.8455 37.9052 61.6 38.54C61.211 39.5131 60.9293 40.5258 60.76 41.56C60.66 42.06 60.6 42.54 60.54 42.96H57.3V35.16C57.2945 34.2614 57.0751 33.377 56.66 32.58C56.0402 31.4409 55.1203 30.4933 54 29.84C52.8561 29.1582 51.5516 28.7924 50.22 28.78C49.7716 28.8014 49.3339 28.9245 48.94 29.14C48.44 29.42 48.08 29.68 47.74 29.88C47.4858 30.0348 47.1972 30.1241 46.9 30.14C46.4042 30.1367 45.9142 30.032 45.4602 29.8326C45.0063 29.6331 44.5978 29.343 44.26 28.98C44.0238 28.7443 43.7037 28.6119 43.37 28.6119C43.0363 28.6119 42.7162 28.7443 42.48 28.98C41.6315 29.7786 40.5019 30.2098 39.3371 30.1798C38.1722 30.1499 37.0664 29.6611 36.26 28.82C35.3983 27.9299 34.9176 26.7389 34.92 25.5C34.9095 24.4968 35.223 23.5169 35.8139 22.7062C36.4049 21.8954 37.2417 21.297 38.2 21C38.4378 20.9252 38.649 20.7836 38.8086 20.5921C38.9682 20.4007 39.0693 20.1673 39.1 19.92C39.2019 18.9984 39.6356 18.1454 40.32 17.52C40.9837 16.9046 41.8549 16.5619 42.76 16.56C43.0258 16.5294 43.2942 16.5294 43.56 16.56C43.8673 16.6352 44.1917 16.5901 44.4668 16.4339C44.742 16.2778 44.947 16.0224 45.04 15.72C45.262 14.9275 45.7316 14.2268 46.38 13.72C47.0024 13.2346 47.7707 12.9738 48.56 12.98C49.4794 12.9971 50.3583 13.3615 51.02 14C51.2511 14.2224 51.5593 14.3467 51.88 14.3467C52.2007 14.3467 52.509 14.2224 52.74 14C53.4109 13.3833 54.2888 13.0408 55.2 13.04C55.7759 13.0397 56.3435 13.1776 56.855 13.4421C57.3666 13.7066 57.8073 14.0899 58.14 14.56C58.304 14.7915 58.5413 14.9609 58.8135 15.0407C59.0858 15.1206 59.377 15.1062 59.64 15C60.2138 14.7696 60.8372 14.691 61.4503 14.7715C62.0633 14.8521 62.6452 15.0892 63.14 15.46C63.7651 15.9211 64.233 16.5635 64.48 17.3C64.5576 17.5287 64.6982 17.7309 64.8858 17.8831C65.0734 18.0353 65.3002 18.1313 65.54 18.16C66.4658 18.2827 67.314 18.742 67.9227 19.4503C68.5314 20.1586 68.8579 21.0663 68.84 22C68.8394 22.2974 68.799 22.5933 68.72 22.88C68.6724 23.1084 68.6862 23.3453 68.76 23.5667C68.8338 23.788 68.9649 23.9858 69.14 24.14C69.6077 24.5428 69.9731 25.051 70.2062 25.6226C70.4392 26.1942 70.5333 26.813 70.4806 27.428C70.4278 28.0431 70.2299 28.6368 69.903 29.1604C69.576 29.6841 69.1295 30.1226 68.6 30.44L68.54 30.5Z" fill="#008FD5"/>
<path d="M50.58 23.4C50.3506 23.5368 50.0871 23.6062 49.82 23.6C49.4762 23.5874 49.1382 23.5066 48.8258 23.3624C48.5134 23.2183 48.2327 23.0135 48 22.76C47.4934 22.2861 47.192 21.633 47.16 20.94C47.1508 20.6788 47.2205 20.421 47.36 20.2C47.4778 20.0621 47.565 19.9007 47.6157 19.7266C47.6665 19.5524 47.6796 19.3695 47.6543 19.1899C47.6289 19.0103 47.5657 18.8381 47.4688 18.6847C47.3719 18.5314 47.2435 18.4004 47.0922 18.3005C46.9408 18.2005 46.7699 18.1339 46.5909 18.105C46.4118 18.076 46.2286 18.0855 46.0535 18.1328C45.8784 18.18 45.7153 18.2639 45.575 18.3789C45.4348 18.494 45.3206 18.6375 45.24 18.8C44.8242 19.4354 44.6082 20.1807 44.62 20.94C44.6696 22.3033 45.2334 23.5973 46.1981 24.562C47.1627 25.5266 48.4567 26.0904 49.82 26.14C50.5757 26.1462 51.3177 25.9381 51.96 25.54C52.207 25.3419 52.3718 25.0593 52.4226 24.7467C52.4734 24.4342 52.4065 24.1139 52.2349 23.8478C52.0633 23.5817 51.7992 23.3886 51.4935 23.3059C51.1879 23.2232 50.8624 23.2567 50.58 23.4Z" fill="#008FD5"/>
<path d="M59.82 24.6C60.2359 23.9646 60.4518 23.2192 60.44 22.46C60.3904 21.0967 59.8266 19.8027 58.862 18.838C57.8973 17.8734 56.6033 17.3096 55.24 17.26C54.4843 17.2538 53.7423 17.4619 53.1 17.86C52.8177 18.0442 52.6194 18.3324 52.5482 18.6619C52.4771 18.9914 52.5388 19.3357 52.72 19.62C52.9042 19.9023 53.1924 20.1006 53.5219 20.1718C53.8514 20.2429 54.1957 20.1812 54.48 20C54.7095 19.8632 54.9729 19.7938 55.24 19.8C55.932 19.8361 56.5836 20.1368 57.06 20.64C57.5666 21.1139 57.8681 21.767 57.9 22.46C57.9062 22.7271 57.8369 22.9905 57.7 23.22C57.6094 23.3592 57.5471 23.5149 57.5167 23.6782C57.4862 23.8414 57.4882 24.0091 57.5226 24.1716C57.5569 24.3341 57.623 24.4883 57.7169 24.6253C57.8108 24.7622 57.9308 24.8794 58.07 24.97C58.2092 25.0606 58.3649 25.1229 58.5282 25.1534C58.6915 25.1838 58.8591 25.1818 59.0216 25.1474C59.1842 25.1131 59.3383 25.047 59.4753 24.9531C59.6123 24.8592 59.7294 24.7392 59.82 24.6Z" fill="#008FD5"/>
<path d="M64 23.68C63.7177 23.8642 63.5194 24.1524 63.4482 24.4819C63.3771 24.8114 63.4388 25.1557 63.62 25.44C63.766 25.6655 63.8361 25.9318 63.82 26.2C63.7933 26.8901 63.4992 27.5428 63 28.02C62.5162 28.5244 61.858 28.8249 61.16 28.86C60.8991 28.8668 60.6419 28.7973 60.42 28.66C60.1403 28.5213 59.8195 28.4896 59.5181 28.5709C59.2167 28.6522 58.9553 28.8409 58.7833 29.1014C58.6113 29.3619 58.5404 29.6764 58.584 29.9855C58.6275 30.2947 58.7826 30.5772 59.02 30.78C59.6602 31.1852 60.4023 31.4002 61.16 31.4C62.5233 31.3504 63.8173 30.7866 64.782 29.822C65.7466 28.8573 66.3104 27.5633 66.36 26.2C66.3662 25.4443 66.1581 24.7023 65.76 24.06C65.6706 23.9181 65.5538 23.7955 65.4164 23.6994C65.279 23.6032 65.1238 23.5355 64.9599 23.5001C64.796 23.4647 64.6266 23.4624 64.4618 23.4933C64.297 23.5242 64.14 23.5876 64 23.68Z" fill="#008FD5"/>
</g>
<defs>
<clipPath id="clip0_164_85">
<rect width="100" height="80" fill="white"/>
</clipPath>
</defs>
</svg>
