<svg width="20" height="20" viewBox="0 0 20 20" fill="none" xmlns="http://www.w3.org/2000/svg">
<path d="M10 20C15.5228 20 20 15.5229 20 10C20 4.47715 15.5228 0 10 0C4.47715 0 0 4.47715 0 10C0 15.5229 4.47715 20 10 20Z" fill="url(#paint0_linear_1068_2375)"/>
<path d="M12.7554 6.65674C12.418 6.65674 12.1455 6.92923 12.1455 7.2666C12.1455 7.60397 12.418 7.87646 12.7554 7.87646C13.0927 7.87646 13.3652 7.60397 13.3652 7.2666C13.3652 6.92923 13.0927 6.65674 12.7554 6.65674Z" fill="white"/>
<path d="M10.0434 7.43945C8.62904 7.43945 7.47852 8.58997 7.47852 10.0043C7.47852 11.4187 8.62904 12.5692 10.0434 12.5692C11.4578 12.5692 12.6083 11.4187 12.6083 10.0043C12.6083 8.58997 11.4578 7.43945 10.0434 7.43945ZM10.0434 11.6436C9.13942 11.6436 8.3998 10.9083 8.3998 10C8.3998 9.0917 9.13509 8.35641 10.0434 8.35641C10.9517 8.35641 11.687 9.0917 11.687 10C11.687 10.9083 10.9517 11.6436 10.0434 11.6436Z" fill="white"/>
<path d="M12.0762 15.2034H7.91964C6.19819 15.2034 4.79248 13.802 4.79248 12.0762V7.91964C4.79248 6.19386 6.19386 4.79248 7.91964 4.79248H12.0762C13.7977 4.79248 15.2034 6.19386 15.2034 7.91964V12.0762C15.2034 13.7977 13.802 15.2034 12.0762 15.2034ZM7.91964 5.77864C6.73452 5.77864 5.77431 6.74317 5.77431 7.92397V12.0805C5.77431 13.2657 6.73885 14.2259 7.91964 14.2259H12.0762C13.2613 14.2259 14.2215 13.2613 14.2215 12.0805V7.92397C14.2215 6.73885 13.257 5.77864 12.0762 5.77864H7.91964Z" fill="white"/>
<defs>
<linearGradient id="paint0_linear_1068_2375" x1="2.9282" y1="2.93253" x2="17.0675" y2="17.0718" gradientUnits="userSpaceOnUse">
<stop stop-color="#FFE185"/>
<stop offset="0.21" stop-color="#FFBB36"/>
<stop offset="0.38" stop-color="#FF5176"/>
<stop offset="0.52" stop-color="#F63395"/>
<stop offset="0.74" stop-color="#A436D2"/>
<stop offset="1" stop-color="#5F4EED"/>
</linearGradient>
</defs>
</svg>
