<svg width="20" height="20" viewBox="0 0 20 20" fill="none" xmlns="http://www.w3.org/2000/svg">
<path d="M10 20C15.5228 20 20 15.5229 20 10C20 4.47715 15.5228 0 10 0C4.47715 0 0 4.47715 0 10C0 15.5229 4.47715 20 10 20Z" fill="url(#paint0_linear_1068_2367)"/>
<path d="M5.99493 7.66012H7.71206V13.1835H5.99493V7.66012ZM6.85565 4.91357C7.40496 4.91357 7.85046 5.35908 7.85046 5.90838C7.85046 6.45769 7.40496 6.9032 6.85565 6.9032C6.30634 6.9032 5.86084 6.45769 5.86084 5.90838C5.86084 5.35908 6.30634 4.91357 6.85565 4.91357Z" fill="white"/>
<path d="M8.78906 7.65996H10.437V8.41688H10.4586C10.6879 7.98436 11.2501 7.52588 12.0849 7.52588C13.8237 7.52588 14.1437 8.66775 14.1437 10.1556V13.1833H12.4266V10.4973C12.4266 9.85719 12.4136 9.03107 11.5356 9.03107C10.6576 9.03107 10.5062 9.72744 10.5062 10.4498V13.1833H8.78906V7.65996Z" fill="white"/>
<defs>
<linearGradient id="paint0_linear_1068_2367" x1="2.9282" y1="2.93253" x2="17.0718" y2="17.0718" gradientUnits="userSpaceOnUse">
<stop stop-color="#007BB8"/>
<stop offset="1" stop-color="#0044E9"/>
</linearGradient>
</defs>
</svg>
