<svg width="21" height="21" viewBox="0 0 21 21" fill="none" xmlns="http://www.w3.org/2000/svg">
<path d="M19.8429 10.0465C19.8429 15.457 15.457 19.8429 10.0465 19.8429C4.63592 19.8429 0.25 15.457 0.25 10.0465C0.25 4.63592 4.63592 0.25 10.0465 0.25C15.457 0.25 19.8429 4.63592 19.8429 10.0465Z" stroke="white" stroke-width="0.5"/>
<path d="M6.48868 7.36092C7.20333 7.36092 7.78267 6.78158 7.78267 6.06693C7.78267 5.35228 7.20333 4.77295 6.48868 4.77295C5.77404 4.77295 5.1947 5.35228 5.1947 6.06693C5.1947 6.78158 5.77404 7.36092 6.48868 7.36092Z" fill="white"/>
<path d="M7.47021 8.22314H5.50674C5.4534 8.22314 5.41016 8.26639 5.41016 8.31973V14.596C5.41016 14.6493 5.4534 14.6926 5.50674 14.6926H7.47021C7.52356 14.6926 7.5668 14.6493 7.5668 14.596V8.31973C7.5668 8.26639 7.52356 8.22314 7.47021 8.22314Z" fill="white"/>
<path d="M14.8994 10.5953V14.2613C14.8994 14.4985 14.7052 14.6927 14.468 14.6927H13.174C12.9369 14.6927 12.7427 14.4985 12.7427 14.2613V11.242C12.7427 10.6469 12.2598 10.164 11.6646 10.164C11.0695 10.164 10.5866 10.6469 10.5866 11.242V14.2613C10.5866 14.4985 10.3924 14.6927 10.1552 14.6927H8.86126C8.62411 14.6927 8.42993 14.4985 8.42993 14.2613V8.65406C8.42993 8.4169 8.62411 8.22273 8.86126 8.22273H10.1552C10.3924 8.22273 10.5866 8.4169 10.5866 8.65406V8.93015C11.0179 8.3714 11.7319 8.00732 12.5273 8.00732C13.7176 8.00732 14.8994 8.86998 14.8994 10.5953Z" fill="white"/>
</svg>
