<svg width="21" height="21" viewBox="0 0 21 21" fill="none" xmlns="http://www.w3.org/2000/svg">
<path d="M19.8429 10.0465C19.8429 15.457 15.457 19.8429 10.0465 19.8429C4.63592 19.8429 0.25 15.457 0.25 10.0465C0.25 4.63592 4.63592 0.25 10.0465 0.25C15.457 0.25 19.8429 4.63592 19.8429 10.0465Z" stroke="white" stroke-width="0.5"/>
<path d="M11.5492 10.6435L11.5493 10.6435C12.041 10.3977 12.041 9.69528 11.5493 9.44943L11.5492 9.44941L9.14128 8.24594L9.14116 8.24588C8.69777 8.02459 8.17475 8.34652 8.17475 8.84325V11.2502C8.17475 11.7468 8.69727 12.069 9.14128 11.847C9.1413 11.847 9.14131 11.847 9.14132 11.847L11.5492 10.6435ZM5.71695 6.03906H14.3759C15.0929 6.03906 15.6747 6.6209 15.6747 7.3379V12.7535C15.6747 13.471 15.0929 14.0524 14.3759 14.0524H5.71695C4.99933 14.0524 4.4176 13.4709 4.4176 12.7535V7.3379C4.4176 6.62095 4.99939 6.03906 5.71695 6.03906Z" stroke="white" stroke-width="0.5"/>
</svg>
