<svg width="20" height="20" viewBox="0 0 20 20" fill="none" xmlns="http://www.w3.org/2000/svg">
<path d="M10 20C15.5228 20 20 15.5228 20 10C20 4.47715 15.5228 0 10 0C4.47715 0 0 4.47715 0 10C0 15.5228 4.47715 20 10 20Z" fill="url(#paint0_linear_1068_2372)"/>
<path d="M14.8571 8.73245C14.8571 7.55598 13.9012 6.6001 12.7248 6.6001H7.27493C6.09846 6.6001 5.14258 7.55598 5.14258 8.73245V11.267C5.14258 12.4435 6.09846 13.3994 7.27493 13.3994H12.7248C13.9012 13.3994 14.8571 12.4435 14.8571 11.267V8.73245ZM11.6521 10.1901L9.20832 11.4011C9.11317 11.453 8.78877 11.3838 8.78877 11.2757V8.793C8.78877 8.68054 9.11749 8.61134 9.21265 8.66757L11.5526 9.9392C11.6521 9.99543 11.7516 10.1382 11.6564 10.1901H11.6521Z" fill="white"/>
<defs>
<linearGradient id="paint0_linear_1068_2372" x1="2.9282" y1="2.93253" x2="17.0718" y2="17.0718" gradientUnits="userSpaceOnUse">
<stop stop-color="#FF0000"/>
<stop offset="1" stop-color="#9B0000"/>
</linearGradient>
</defs>
</svg>
